<svg width="18" height="18" viewBox="0 0 18 18" fill="none" xmlns="http://www.w3.org/2000/svg">
<path d="M15.6977 0H2.30233C1.69191 0.000664815 1.1067 0.243444 0.67507 0.67507C0.243444 1.1067 0.000664815 1.69191 0 2.30233V12.3488C0.000664815 12.9592 0.243444 13.5445 0.67507 13.9761C1.1067 14.4077 1.69191 14.6505 2.30233 14.6512H3.34298C3.5665 14.6514 3.78081 14.7403 3.93887 14.8983C4.09693 15.0564 4.18582 15.2707 4.18605 15.4942V16.015C4.18216 16.3884 4.29108 16.7544 4.49856 17.0649C4.70604 17.3755 5.00242 17.6162 5.34893 17.7555C5.58115 17.852 5.83002 17.9021 6.08149 17.9029C6.3274 17.9022 6.57073 17.8527 6.79737 17.7573C7.024 17.6619 7.22944 17.5224 7.40177 17.347L9.8506 14.8981C9.92834 14.8188 10.0211 14.7558 10.1234 14.7127C10.2258 14.6695 10.3356 14.6472 10.4467 14.647H15.6977C16.3074 14.6463 16.8919 14.4041 17.3235 13.9734C17.755 13.5427 17.9982 12.9585 18 12.3488V2.30233C17.9993 1.69191 17.7566 1.1067 17.3249 0.67507C16.8933 0.243444 16.3081 0.000664815 15.6977 0ZM11.5116 7.95349H9.62791V9.83721C9.62791 10.0037 9.56175 10.1635 9.444 10.2812C9.32624 10.399 9.16653 10.4651 9 10.4651C8.83347 10.4651 8.67376 10.399 8.556 10.2812C8.43825 10.1635 8.37209 10.0037 8.37209 9.83721V7.95349H6.48837C6.32184 7.95349 6.16213 7.88733 6.04437 7.76958C5.92662 7.65182 5.86047 7.49211 5.86047 7.32558C5.86047 7.15905 5.92662 6.99934 6.04437 6.88158C6.16213 6.76383 6.32184 6.69767 6.48837 6.69767H8.37209V4.81395C8.37209 4.64742 8.43825 4.48771 8.556 4.36996C8.67376 4.2522 8.83347 4.18605 9 4.18605C9.16653 4.18605 9.32624 4.2522 9.444 4.36996C9.56175 4.48771 9.62791 4.64742 9.62791 4.81395V6.69767H11.5116C11.6782 6.69767 11.8379 6.76383 11.9556 6.88158C12.0734 6.99934 12.1395 7.15905 12.1395 7.32558C12.1395 7.49211 12.0734 7.65182 11.9556 7.76958C11.8379 7.88733 11.6782 7.95349 11.5116 7.95349Z" fill="#4D5060"/>
</svg>
