<svg width="14" height="14" viewBox="0 0 14 14" fill="none" xmlns="http://www.w3.org/2000/svg">
<g clip-path="url(#clip0_520_181)">
<path d="M8.3125 2.625H3.0625C2.821 2.625 2.625 2.821 2.625 3.0625C2.625 3.304 2.821 3.5 3.0625 3.5H8.3125C8.554 3.5 8.75 3.304 8.75 3.0625C8.75 2.821 8.554 2.625 8.3125 2.625Z" fill="#CFA935"/>
<path d="M6.5625 4.375H3.0625C2.821 4.375 2.625 4.571 2.625 4.8125C2.625 5.054 2.821 5.25 3.0625 5.25H6.5625C6.804 5.25 7 5.054 7 4.8125C7 4.571 6.804 4.375 6.5625 4.375Z" fill="#CFA935"/>
<path d="M9.625 0H1.75C0.784875 0 0 0.784875 0 1.75V10.5C0 10.6698 0.098 10.8246 0.252 10.8964C0.310625 10.9235 0.3745 10.9375 0.4375 10.9375C0.538125 10.9375 0.637875 10.9025 0.7175 10.836L3.22088 8.75H9.625C10.5901 8.75 11.375 7.96513 11.375 7V1.75C11.375 0.784875 10.5901 0 9.625 0ZM10.5 7C10.5 7.48212 10.108 7.875 9.625 7.875H3.0625C2.96012 7.875 2.86125 7.91088 2.7825 7.9765L0.875 9.56637V1.75C0.875 1.26787 1.267 0.875 1.75 0.875H9.625C10.108 0.875 10.5 1.26787 10.5 1.75V7Z" fill="#CFA935"/>
<path d="M12.25 3.5C12.0085 3.5 11.8125 3.696 11.8125 3.9375C11.8125 4.179 12.0085 4.375 12.25 4.375C12.733 4.375 13.125 4.76787 13.125 5.25V12.6516L11.648 11.4704C11.571 11.4091 11.4739 11.375 11.375 11.375H5.25C4.767 11.375 4.375 10.9821 4.375 10.5V10.0625C4.375 9.821 4.179 9.625 3.9375 9.625C3.696 9.625 3.5 9.821 3.5 10.0625V10.5C3.5 11.4651 4.28487 12.25 5.25 12.25H11.221L13.2886 13.9046C13.3682 13.9676 13.4654 14 13.5625 14C13.6264 14 13.6911 13.986 13.7524 13.9571C13.9038 13.8836 14 13.7305 14 13.5625V5.25C14 4.28487 13.2151 3.5 12.25 3.5Z" fill="#CFA935"/>
</g>
<defs>
<clipPath id="clip0_520_181">
<rect width="14" height="14" fill="white"/>
</clipPath>
</defs>
</svg>
