<svg xmlns="http://www.w3.org/2000/svg" xmlns:xlink="http://www.w3.org/1999/xlink" width="26" height="26" viewBox="0 0 26 26">
  <defs>
    <clipPath id="clip-path">
      <rect id="Rectangle_1" data-name="Rectangle 1" width="26" height="26" fill="#fff"/>
    </clipPath>
  </defs>
  <g id="Group_1" data-name="Group 1" transform="translate(-459 562)">
    <g id="add_2" data-name="add 2" transform="translate(459 -562)" clip-path="url(#clip-path)">
      <g id="Group">
        <g id="Group_2">
          <path id="Vector" d="M13,0A13,13,0,1,0,26,13,13,13,0,0,0,13,0Zm0,23.986A10.986,10.986,0,1,1,23.986,13,10.986,10.986,0,0,1,13,23.986Z" fill="#fff"/>
        </g>
      </g>
    </g>
    <path id="Rectangle_2" data-name="Rectangle 2" d="M1,0H13a1,1,0,0,1,0,2H1A1,1,0,0,1,1,0Z" transform="translate(465 -550)" fill="#fff"/>
  </g>
</svg>
