<svg width="16" height="16" viewBox="0 0 16 16" fill="none" xmlns="http://www.w3.org/2000/svg">
<g id="Icon">
<path id="Vector" d="M8.00008 3.34879C8.71933 3.34879 9.30241 2.76572 9.30241 2.04647C9.30241 1.32721 8.71933 0.744141 8.00008 0.744141C7.28082 0.744141 6.69775 1.32721 6.69775 2.04647C6.69775 2.76572 7.28082 3.34879 8.00008 3.34879Z" fill="white"/>
<path id="Vector_2" d="M14.6976 5.58146C15.4168 5.58146 15.9999 4.99839 15.9999 4.27913C15.9999 3.55988 15.4168 2.97681 14.6976 2.97681C13.9783 2.97681 13.3953 3.55988 13.3953 4.27913C13.3953 4.99839 13.9783 5.58146 14.6976 5.58146Z" fill="white"/>
<path id="Vector_3" d="M1.30233 5.58146C2.02158 5.58146 2.60465 4.99839 2.60465 4.27913C2.60465 3.55988 2.02158 2.97681 1.30233 2.97681C0.583071 2.97681 0 3.55988 0 4.27913C0 4.99839 0.583071 5.58146 1.30233 5.58146Z" fill="white"/>
<path id="Vector_4" fill-rule="evenodd" clip-rule="evenodd" d="M14.8726 5.13276C14.9202 4.89611 14.8101 4.65648 14.6009 4.53741C14.3911 4.41908 14.1284 4.44811 13.9498 4.61034C13.9498 4.61034 13.1714 5.31806 12.2932 6.11657C11.8824 6.49015 11.3131 6.63527 10.7736 6.50504C10.2341 6.37481 9.79424 5.9856 9.59926 5.46541L8.52243 2.59508C8.44057 2.37704 8.23294 2.23267 8.00001 2.23267C7.76708 2.23267 7.55945 2.37704 7.47759 2.59508L6.40075 5.46541C6.20578 5.9856 5.76596 6.37481 5.22643 6.50504C4.68689 6.63527 4.11759 6.49015 3.7068 6.11657C2.82866 5.31806 2.05024 4.61034 2.05024 4.61034C1.87164 4.44811 1.60894 4.41908 1.39908 4.53741C1.18996 4.65648 1.07982 4.89611 1.12745 5.13276C1.12745 5.13276 1.95573 9.27415 2.37619 11.378C2.56745 12.335 3.40764 13.0234 4.38326 13.0234H11.6168C12.5924 13.0234 13.4326 12.335 13.6238 11.378C14.0443 9.27415 14.8726 5.13276 14.8726 5.13276Z" fill="white"/>
<path id="Vector_5" fill-rule="evenodd" clip-rule="evenodd" d="M12.4652 14.1395H3.53495C3.22685 14.1395 2.97681 14.3896 2.97681 14.6977C2.97681 15.0058 3.22685 15.2558 3.53495 15.2558H12.4652C12.7733 15.2558 13.0233 15.0058 13.0233 14.6977C13.0233 14.3896 12.7733 14.1395 12.4652 14.1395Z" fill="white" fill-opacity="0.6"/>
</g>
</svg>
