<svg width="22" height="22" viewBox="0 0 22 22" fill="none" xmlns="http://www.w3.org/2000/svg">
<g clip-path="url(#clip0_344_299)">
<path d="M19.258 7.06327H9.08279L13.6394 2.50666C13.8911 2.25496 13.8911 1.84686 13.6394 1.59511L12.4848 0.440491C11.8975 -0.14683 10.9452 -0.14683 10.3578 0.440491L9.17066 1.62772L8.56293 1.01999C7.89281 0.34983 6.80234 0.349873 6.13218 1.01999L3.76218 3.38999C3.09202 4.06015 3.09202 5.15062 3.76218 5.82078L4.36987 6.42852L3.18268 7.61571C2.59536 8.20303 2.59536 9.15527 3.18268 9.74263L4.3373 10.8973C4.58896 11.149 4.99711 11.149 5.24881 10.8973L6.88247 9.26359V19.2069C6.88247 20.7495 8.133 22 9.67557 22H16.4649C18.0075 22 19.258 20.7495 19.258 19.2069V7.06327ZM5.28142 5.51692L4.67373 4.90923C4.5062 4.7417 4.5062 4.46907 4.67373 4.3015L7.04373 1.9315C7.2113 1.76393 7.48393 1.76397 7.65142 1.9315L8.25911 2.53923L5.28142 5.51692ZM10.8471 18.3905C10.8471 18.7465 10.5586 19.035 10.2026 19.035C9.84658 19.035 9.55801 18.7465 9.55801 18.3905V10.6728C9.55801 10.3169 9.84658 10.0283 10.2026 10.0283C10.5586 10.0283 10.8471 10.3169 10.8471 10.6728V18.3905ZM13.7148 18.3905C13.7148 18.7465 13.4262 19.035 13.0703 19.035C12.7143 19.035 12.4257 18.7465 12.4257 18.3905V10.6728C12.4257 10.3169 12.7143 10.0283 13.0703 10.0283C13.4262 10.0283 13.7148 10.3169 13.7148 10.6728V18.3905ZM16.5825 18.3905C16.5825 18.7465 16.2939 19.035 15.9379 19.035C15.582 19.035 15.2934 18.7465 15.2934 18.3905V10.6728C15.2934 10.3169 15.582 10.0283 15.9379 10.0283C16.2939 10.0283 16.5825 10.3169 16.5825 10.6728V18.3905Z" fill="#E75656"/>
<path d="M13.7883 4.87885C13.3951 5.01592 13.1193 5.367 13.0737 5.77438H19.2581V4.70311C19.2581 3.96755 18.5343 3.44988 17.8392 3.68556L13.8017 4.87455C13.7973 4.8758 13.7926 4.87752 13.7883 4.87885Z" fill="#E75656"/>
</g>
<defs>
<clipPath id="clip0_344_299">
<rect width="22" height="22" fill="white"/>
</clipPath>
</defs>
</svg>
