<svg width="16" height="16" viewBox="0 0 16 16" fill="none" xmlns="http://www.w3.org/2000/svg">
<g id="delete 1" clip-path="url(#clip0_356_693)">
<g id="Group">
<path id="Vector" d="M14.0057 5.13693H6.60549L9.91939 1.82303C10.1024 1.63997 10.1024 1.34317 9.91939 1.16008L9.07966 0.320357C8.65252 -0.106786 7.95998 -0.106786 7.5328 0.320357L6.66939 1.1838L6.22741 0.741813C5.74005 0.254422 4.94698 0.254453 4.45959 0.741813L2.73595 2.46545C2.24856 2.95284 2.24856 3.74591 2.73595 4.2333L3.17791 4.67528L2.3145 5.53869C1.88735 5.96584 1.88735 6.65838 2.3145 7.08555L3.15422 7.92528C3.33725 8.10833 3.63408 8.10836 3.81714 7.92528L5.00526 6.73716V13.9687C5.00526 15.0906 5.91473 16 7.0366 16H11.9743C13.0962 16 14.0057 15.0906 14.0057 13.9687V5.13693ZM3.84086 4.0123L3.3989 3.57035C3.27706 3.44851 3.27706 3.25023 3.3989 3.12836L5.12253 1.40473C5.24441 1.28286 5.44268 1.28289 5.56449 1.40473L6.00645 1.84672L3.84086 4.0123ZM7.88864 13.3749C7.88864 13.6338 7.67877 13.8437 7.41987 13.8437C7.16097 13.8437 6.9511 13.6338 6.9511 13.3749V7.76206C6.9511 7.50316 7.16097 7.2933 7.41987 7.2933C7.67877 7.2933 7.88864 7.50316 7.88864 7.76206V13.3749ZM9.97423 13.3749C9.97423 13.6338 9.76436 13.8437 9.50546 13.8437C9.24656 13.8437 9.0367 13.6338 9.0367 13.3749V7.76206C9.0367 7.50316 9.24656 7.2933 9.50546 7.2933C9.76436 7.2933 9.97423 7.50316 9.97423 7.76206V13.3749ZM12.0598 13.3749C12.0598 13.6338 11.85 13.8437 11.5911 13.8437C11.3322 13.8437 11.1223 13.6338 11.1223 13.3749V7.76206C11.1223 7.50316 11.3322 7.2933 11.5911 7.2933C11.85 7.2933 12.0598 7.50316 12.0598 7.76206V13.3749Z" fill="#E75656"/>
<path id="Vector_2" d="M10.0275 3.54824C9.74156 3.64793 9.54094 3.90326 9.50781 4.19954H14.0055V3.42044C14.0055 2.88548 13.4792 2.509 12.9736 2.6804L10.0372 3.54512C10.0341 3.54603 10.0306 3.54728 10.0275 3.54824Z" fill="#E75656"/>
</g>
</g>
<defs>
<clipPath id="clip0_356_693">
<rect width="16" height="16" fill="white"/>
</clipPath>
</defs>
</svg>
