<svg width="20" height="20" viewBox="0 0 20 20" fill="none" xmlns="http://www.w3.org/2000/svg">
<g id="download 1" clip-path="url(#clip0_554_303)">
<g id="Group">
<path id="Vector" fill-rule="evenodd" clip-rule="evenodd" d="M1.55263 13.6842C2.13398 13.6842 2.60526 14.1555 2.60526 14.7368V16.8421C2.60526 17.1213 2.71614 17.3889 2.91359 17.5864C3.11097 17.7838 3.3787 17.8947 3.65789 17.8947H16.2894C16.5686 17.8947 16.8363 17.7839 17.0337 17.5864C17.2312 17.3889 17.3421 17.1213 17.3421 16.8421V14.7368C17.3421 14.1555 17.8133 13.6842 18.3947 13.6842C18.9761 13.6842 19.4473 14.1555 19.4473 14.7368V16.8421C19.4473 17.6796 19.1147 18.4828 18.5224 19.075C17.9302 19.6672 17.1269 20 16.2894 20H3.65789C2.82039 20 2.01713 19.6674 1.4249 19.075C0.832715 18.4828 0.5 17.6796 0.5 16.8421V14.7368C0.5 14.1555 0.971273 13.6842 1.55263 13.6842Z" fill="#5B5A5F"/>
<path id="Vector_2" fill-rule="evenodd" clip-rule="evenodd" d="M3.96602 7.67672C4.3771 7.26564 5.04359 7.26564 5.45467 7.67672L9.97347 12.1956L14.4923 7.67672C14.9034 7.26564 15.5699 7.26564 15.9809 7.67672C16.3921 8.08777 16.3921 8.7543 15.9809 9.16535L10.7178 14.4285C10.3067 14.8396 9.64021 14.8396 9.22916 14.4285L3.96602 9.16535C3.55495 8.7543 3.55495 8.08777 3.96602 7.67672Z" fill="#5B5A5F"/>
<path id="Vector_3" fill-rule="evenodd" clip-rule="evenodd" d="M9.97304 0C10.5544 0 11.0257 0.471283 11.0257 1.05263V13.6842C11.0257 14.2656 10.5544 14.7368 9.97304 14.7368C9.39167 14.7368 8.92041 14.2656 8.92041 13.6842V1.05263C8.92041 0.471283 9.39167 0 9.97304 0Z" fill="#5B5A5F"/>
</g>
</g>
<defs>
<clipPath id="clip0_554_303">
<rect width="20" height="20" fill="white"/>
</clipPath>
</defs>
</svg>
