<svg width="26" height="26" viewBox="0 0 26 26" fill="none" xmlns="http://www.w3.org/2000/svg">
<g id="add 2" clip-path="url(#clip0_236_175)">
<g id="Group">
<g id="Group_2">
<path id="Vector" d="M13 0C5.83136 0 0 5.83136 0 13C0 20.1686 5.83136 26 13 26C20.1686 26 26 20.1676 26 13C26 5.83238 20.1686 0 13 0ZM13 23.9861C6.94307 23.9861 2.01393 19.0579 2.01393 13C2.01393 6.94205 6.94307 2.01393 13 2.01393C19.0569 2.01393 23.9861 6.94205 23.9861 13C23.9861 19.0579 19.0579 23.9861 13 23.9861Z" fill="#CFA935"/>
</g>
</g>
<g id="Group_3">
<g id="Group_4">
<path id="Vector_2" d="M18.035 11.9024H14.0071V7.87455C14.0071 7.31869 13.557 6.86755 13.0001 6.86755C12.4432 6.86755 11.9931 7.31869 11.9931 7.87455V11.9024H7.96524C7.40838 11.9024 6.95825 12.3536 6.95825 12.9094C6.95825 13.4653 7.40838 13.9164 7.96524 13.9164H11.9931V17.9443C11.9931 18.5001 12.4432 18.9513 13.0001 18.9513C13.557 18.9513 14.0071 18.5001 14.0071 17.9443V13.9164H18.035C18.5918 13.9164 19.042 13.4653 19.042 12.9094C19.042 12.3536 18.5918 11.9024 18.035 11.9024Z" fill="#CFA935"/>
</g>
</g>
</g>
<defs>
<clipPath id="clip0_236_175">
<rect width="26" height="26" fill="white"/>
</clipPath>
</defs>
</svg>
