<svg width="27" height="26" viewBox="0 0 27 26" fill="none" xmlns="http://www.w3.org/2000/svg">
<path d="M22.7974 0H3.34362C2.45713 0.000965498 1.60723 0.353549 0.98039 0.98039C0.353549 1.60723 0.000965498 2.45713 0 3.34362V17.934C0.000965498 18.8205 0.353549 19.6704 0.98039 20.2972C1.60723 20.924 2.45713 21.2766 3.34362 21.2776H4.85494C5.17956 21.2779 5.4908 21.407 5.72035 21.6366C5.94989 21.8661 6.07899 22.1773 6.07931 22.502V23.2582C6.07367 23.8006 6.23185 24.332 6.53317 24.7831C6.83449 25.2341 7.26492 25.5836 7.76814 25.786C8.1054 25.9261 8.46683 25.9988 8.83202 26C9.18915 25.999 9.54253 25.9272 9.87168 25.7886C10.2008 25.65 10.4992 25.4474 10.7494 25.1927L14.3058 21.6363C14.4187 21.5211 14.5534 21.4295 14.702 21.3669C14.8507 21.3043 15.0103 21.2719 15.1715 21.2715H22.7974C23.6829 21.2705 24.5318 20.9188 25.1585 20.2933C25.7852 19.6677 26.1385 18.8194 26.141 17.934V3.34362C26.1401 2.45713 25.7875 1.60723 25.1606 0.98039C24.5338 0.353549 23.6839 0.000965498 22.7974 0ZM16.7181 11.5507H13.9824V14.2864C13.9824 14.5282 13.8863 14.7602 13.7153 14.9312C13.5443 15.1022 13.3124 15.1983 13.0705 15.1983C12.8287 15.1983 12.5967 15.1022 12.4257 14.9312C12.2547 14.7602 12.1586 14.5282 12.1586 14.2864V11.5507H9.42293C9.18108 11.5507 8.94914 11.4546 8.77812 11.2836C8.60711 11.1126 8.51104 10.8806 8.51104 10.6388C8.51104 10.3969 8.60711 10.165 8.77812 9.99399C8.94914 9.82297 9.18108 9.7269 9.42293 9.7269H12.1586V6.99121C12.1586 6.74936 12.2547 6.51741 12.4257 6.3464C12.5967 6.17539 12.8287 6.07931 13.0705 6.07931C13.3124 6.07931 13.5443 6.17539 13.7153 6.3464C13.8863 6.51741 13.9824 6.74936 13.9824 6.99121V9.7269H16.7181C16.96 9.7269 17.1919 9.82297 17.3629 9.99399C17.5339 10.165 17.63 10.3969 17.63 10.6388C17.63 10.8806 17.5339 11.1126 17.3629 11.2836C17.1919 11.4546 16.96 11.5507 16.7181 11.5507Z" fill="white"/>
</svg>
