<svg width="26" height="26" viewBox="0 0 26 26" fill="none" xmlns="http://www.w3.org/2000/svg">
<g clip-path="url(#clip0_43_920)">
<path d="M13.8125 20.3125C13.811 19.1083 14.1444 17.9273 14.7756 16.9017C15.4068 15.8762 16.3108 15.0463 17.3866 14.5051C18.4623 13.9638 19.6674 13.7325 20.8671 13.8369C22.0668 13.9413 23.2139 14.3773 24.18 15.0962L25.155 8.78313C25.2189 8.37556 25.1955 7.95905 25.0862 7.56123C24.977 7.1634 24.7844 6.79336 24.5212 6.47563C24.2672 6.17304 23.9359 5.94503 23.5625 5.81588V5.6875C23.5775 5.0575 23.3423 4.44721 22.9083 3.99033C22.4742 3.53345 21.8768 3.26724 21.2469 3.25H11.3506C11.262 3.24868 11.1748 3.22825 11.0949 3.19011C11.015 3.15196 10.9442 3.09701 10.8875 3.029L9.50623 1.55431C9.29838 1.3223 9.04422 1.13642 8.76013 1.00866C8.47605 0.880887 8.16834 0.814066 7.85685 0.8125H3.1281C2.49816 0.829735 1.90073 1.09595 1.46669 1.55283C1.03266 2.00971 0.797406 2.62 0.812477 3.25V19.3538C0.779634 20.0028 1.00457 20.6385 1.43829 21.1224C1.872 21.6064 2.47937 21.8993 3.1281 21.9375H14.0237C13.8785 21.4082 13.8074 20.8613 13.8125 20.3125ZM3.1281 2.4375H7.85685C7.94507 2.44002 8.03178 2.46099 8.11141 2.49905C8.19103 2.53712 8.2618 2.59143 8.31917 2.6585L9.68904 4.12506C9.89779 4.35975 10.1536 4.54783 10.4399 4.67705C10.7262 4.80626 11.0365 4.87371 11.3506 4.875H21.2469C21.4446 4.89499 21.627 4.99075 21.7557 5.14221C21.8845 5.29367 21.9496 5.48909 21.9375 5.6875H4.9481C4.93348 5.6875 4.91967 5.6875 4.90504 5.6875C4.33412 5.72757 3.79607 5.96945 3.38716 6.36988C2.97824 6.77031 2.72513 7.30317 2.6731 7.87312L2.43748 9.40875V3.25C2.42534 3.05159 2.49047 2.85617 2.61922 2.70471C2.74796 2.55325 2.93032 2.45749 3.1281 2.4375Z" fill="white"/>
<path d="M23.6 16.7164L23.5837 16.701C23.5748 16.692 23.5667 16.6823 23.5569 16.6733C22.855 16.0474 21.9869 15.638 21.0575 15.4943C20.1281 15.3506 19.1769 15.4788 18.3187 15.8634C17.4605 16.2481 16.7319 16.8728 16.2207 17.6622C15.7095 18.4516 15.4375 19.372 15.4376 20.3125C15.4354 20.64 15.4678 20.9668 15.5343 21.2875C15.6863 22.0403 16.0141 22.7465 16.4908 23.3486C16.9675 23.9507 17.5798 24.4316 18.2776 24.7522C18.9755 25.0728 19.7392 25.224 20.5065 25.1935C21.2739 25.163 22.0232 24.9516 22.6934 24.5766C23.3636 24.2016 23.9357 23.6735 24.3631 23.0355C24.7905 22.3974 25.0611 21.6674 25.1529 20.905C25.2446 20.1425 25.155 19.3691 24.8912 18.6479C24.6274 17.9266 24.197 17.2779 23.6349 16.7546C23.6244 16.7375 23.6114 16.7286 23.6 16.7164ZM21.9376 21.125H21.1251V21.9375C21.1251 22.153 21.0395 22.3597 20.8871 22.512C20.7348 22.6644 20.5281 22.75 20.3126 22.75C20.0971 22.75 19.8905 22.6644 19.7381 22.512C19.5857 22.3597 19.5001 22.153 19.5001 21.9375V21.125H18.6876C18.4721 21.125 18.2655 21.0394 18.1131 20.887C17.9607 20.7347 17.8751 20.528 17.8751 20.3125C17.8751 20.097 17.9607 19.8904 18.1131 19.738C18.2655 19.5856 18.4721 19.5 18.6876 19.5H19.5001V18.6875C19.5001 18.472 19.5857 18.2654 19.7381 18.113C19.8905 17.9606 20.0971 17.875 20.3126 17.875C20.5281 17.875 20.7348 17.9606 20.8871 18.113C21.0395 18.2654 21.1251 18.472 21.1251 18.6875V19.5H21.9376C22.1531 19.5 22.3598 19.5856 22.5121 19.738C22.6645 19.8904 22.7501 20.097 22.7501 20.3125C22.7501 20.528 22.6645 20.7347 22.5121 20.887C22.3598 21.0394 22.1531 21.125 21.9376 21.125Z" fill="white"/>
</g>
<defs>
<clipPath id="clip0_43_920">
<rect width="26" height="26" fill="white"/>
</clipPath>
</defs>
</svg>
