<svg width="14" height="11" viewBox="0 0 14 11" fill="none" xmlns="http://www.w3.org/2000/svg">
<path d="M13.8376 4.93524C13.6248 4.59216 13.2488 4.38708 12.8318 4.38708H3.54694C3.08669 4.38708 2.6681 4.64653 2.48022 5.04825L0.0244141 10.1973C0.117126 10.5743 0.469283 10.856 0.888731 10.856H10.7672C11.1895 10.856 11.5755 10.6172 11.7641 10.2393L13.8868 5.98477C14.0544 5.6481 14.0358 5.25578 13.8376 4.93524Z" fill="#8E92A8"/>
<path d="M1.97975 4.25622C2.16741 3.85461 2.58611 3.59505 3.04647 3.59505H11.7897V2.47674C11.7897 2.01574 11.4008 1.64062 10.9228 1.64062H5.82474C5.81726 1.64062 5.81214 1.6387 5.81021 1.63731L4.89773 0.361449C4.73612 0.135116 4.4692 0 4.18401 0H0.867094C0.3889 0 0 0.375121 0 0.836119V8.4069L1.97975 4.25622Z" fill="#8E92A8"/>
</svg>
