<svg xmlns="http://www.w3.org/2000/svg" width="385.515" height="250.278" viewBox="0 0 385.515 250.278">
  <g id="Group_2" data-name="Group 2" transform="translate(-270 271.579)">
    <rect id="Rectangle_1" data-name="Rectangle 1" width="372" height="229" rx="19.5" transform="translate(271.5 -251.801)" fill="#fdf9f0" stroke="#cfa935" stroke-width="1"/>
    <rect id="Rectangle_2" data-name="Rectangle 2" width="299.083" height="218.569" rx="19.5" transform="translate(356.151 -253.8) rotate(2.291)" fill="#fff" stroke="#cfa935" stroke-width="1"/>
    <rect id="Rectangle_3" data-name="Rectangle 3" width="287.855" height="181" rx="19.5" transform="matrix(0.985, -0.174, 0.174, 0.985, 328.579, -220.861)" fill="#fff" stroke="#cfa935" stroke-width="1"/>
    <path id="Path_1" data-name="Path 1" d="M93.3,25.245a20,20,0,0,0-14.25-5.967H20a20,20,0,0,0-20,20v190a20,20,0,0,0,20,20H353a20,20,0,0,0,20-20v-160a20,20,0,0,0-20-20H125.339a20,20,0,0,1-14.251-5.967Z" transform="translate(271 -271.579)" fill="#fdf9f0" fill-rule="evenodd"/>
    <path id="Path_2" data-name="Path 2" d="M111.088,43.311l-.712.7ZM93.3,25.245l-.713.7ZM20,20.278H79.048v-2H20Zm-19,209v-190H-1v190Zm352,19H20v2H353Zm19-179v160h2v-160Zm-19-21H125.339v2H353ZM111.8,42.61,94.01,24.543l-1.425,1.4,17.791,18.066Zm13.538,5.668A19,19,0,0,1,111.8,42.61l-1.425,1.4a21,21,0,0,0,14.963,6.265ZM374,69.278a21,21,0,0,0-21-21v2a19,19,0,0,1,19,19Zm-21,181a21,21,0,0,0,21-21h-2a19,19,0,0,1-19,19Zm-354-21a21,21,0,0,0,21,21v-2a19,19,0,0,1-19-19Zm80.048-209a19,19,0,0,1,13.538,5.669l1.425-1.4a21,21,0,0,0-14.963-6.265ZM20,18.278a21,21,0,0,0-21,21H1a19,19,0,0,1,19-19Z" transform="translate(271 -271.579)" fill="#cfa935"/>
    <g id="Group_1" data-name="Group 1" transform="translate(293.935 -264.904)">
      <path id="Path_3" data-name="Path 3" d="M150.941,209.083c-4.635-3.751-16.806-5.457-26.157-5.457a67.622,67.622,0,0,0-7.947.434c-8.795,1.063-16.3,2.013-22.927,2.857-17.736,2.253-28.438,3.618-37.334,3.618-7.408,0-13.758-.925-22.645-3.3-9.279-2.483-16.094-4.844-21.559-6.745-8.585-2.98-14.251-4.942-22.006-4.942a57.367,57.367,0,0,0-8.339.67v.368a56.919,56.919,0,0,1,8.339-.675c7.582,0,13.184,1.947,21.669,4.891,5.483,1.9,12.308,4.272,21.623,6.76,8.987,2.4,15.41,3.337,22.918,3.337,8.969,0,19.7-1.364,37.471-3.623,6.623-.843,14.123-1.793,22.918-2.856a66.261,66.261,0,0,1,7.81-.425c9.2,0,21.139,1.661,25.637,5.305,1.98,1.61,2.308,3.434.967,5.432-2.682,3.986-15.227,7.5-26.3,10.609-6.688,1.876-13.01,3.649-16.258,5.295-9.5,4.808-7.217,11.329-3.367,18.356h.666c-3.823-6.955-6.131-13.4,3.12-18.091,3.184-1.615,9.471-3.373,16.122-5.238,11.176-3.132,23.839-6.689,26.613-10.8,1.423-2.111,1.077-4.052-1.031-5.759Z" transform="translate(0 -11.08)" fill="#ffedb5"/>
      <path id="Path_4" data-name="Path 4" d="M-15.071,168.18c1.3-15.76,19.232-27.253,33.648-36.487l1.022-.654c1.67-.987,5.529-3.624,5.228-6.807-.183-1.937-1.9-3.695-5.1-5.218-1.916-.915-3.686-1.763-5.374-2.576-7.454-3.587-13.348-6.418-22.49-9.97-3.339-1.3-6.633-2.524-9.835-3.679v.184c3.157,1.139,6.4,2.345,9.68,3.623,9.133,3.546,15.017,6.378,22.462,9.96,1.688.812,3.458,1.666,5.374,2.575,3.139,1.493,4.817,3.21,5,5.106.3,3.127-3.5,5.723-5.155,6.7l-1.031.66c-14.443,9.249-32.416,20.763-33.721,36.579a3.4,3.4,0,0,1-2.628,3.066v.184a3.556,3.556,0,0,0,2.9-3.24Z" transform="translate(0 -5.753)" fill="#ffedb5"/>
      <path id="Path_5" data-name="Path 5" d="M144.729,233.015A9.4,9.4,0,0,0,140.094,232c-5.73,0-12.91,3.179-15.3,4.625-8.814,5.34-9.826,8.33-8.065,12.352h.474c-1.752-3.971-.766-6.915,7.928-12.178,2.354-1.426,9.389-4.543,14.972-4.543a8.735,8.735,0,0,1,4.306.94c1.907,1.068,2.856,3.056,2.829,5.9a26.053,26.053,0,0,1-2.436,9.879h.465a26.355,26.355,0,0,0,2.427-9.879C147.721,236.183,146.718,234.134,144.729,233.015Z" transform="translate(-15.073 -11.08)" fill="#ffedb5"/>
      <path id="Path_6" data-name="Path 6" d="M-8.694,168.344c1.2-14.513,18.32-25.48,32.078-34.295l1.031-.66c2.892-1.85,5.228-3.5,6.961-4.875,2.144-1.717,6.122-4.911-3.285-10a287.824,287.824,0,0,0-32.58-14.983q-7.021-2.729-13.475-4.926v.179q6.377,2.185,13.32,4.871A287.882,287.882,0,0,1,27.9,118.626c9.242,5,5.346,8.12,3.248,9.8a84.621,84.621,0,0,1-6.943,4.865l-1.031.659C9.389,142.777-7.773,153.769-8.968,168.334c-.557,6.756-2.7,10.685-6.742,12.372a7.028,7.028,0,0,1-2.263.557v.153a7.289,7.289,0,0,0,2.427-.588c4.115-1.711,6.286-5.682,6.852-12.489Z" transform="translate(0 -5.992)" fill="#ffedb5"/>
      <path id="Path_7" data-name="Path 7" d="M102.668,64.538c-1.77-3.92-16.076-4.972-32.644-6.184-4.1-.3-8.33-.608-12.435-.976-18.165-1.6-34.788-6.71-50.864-11.652-8.047-2.473-16.276-5-24.7-7.073v.388c8.3,2.059,16.432,4.553,24.387,7C22.536,51,39.214,56.121,57.488,57.736c4.124.363,8.357.675,12.454.976,15.656,1.15,30.436,2.233,32.106,5.918,1.3,2.872-5.383,7.231-20.419,13.323-21.1,8.549-38.8,12.531-55.718,12.531A102.816,102.816,0,0,1-2.417,86.512a137.048,137.048,0,0,1-15.547-5.647v.445A136.42,136.42,0,0,0-2.7,86.829a103.716,103.716,0,0,0,28.621,4.012c17.052,0,34.879-4,56.092-12.6,15.492-6.275,22.052-10.624,20.665-13.7Z" fill="#ffedb5"/>
      <path id="Path_8" data-name="Path 8" d="M-15.61,145.2a65.624,65.624,0,0,1,8.731-6.745c4.443-3.067,9.041-6.235,11.514-10.129C9,121.457.447,118.288-8.613,114.926q-1.259-.468-2.518-.941c-1.5-.567-2.9-1.1-4.288-1.64-.684-.266-1.524-.6-2.564-1.027v.189q1.437.589,2.409.966c1.387.542,2.8,1.073,4.3,1.64.839.317,1.679.629,2.509.941,8.959,3.326,17.426,6.464,13.138,13.22-2.463,3.868-7.043,7.027-11.477,10.083a65.434,65.434,0,0,0-8.749,6.766,20.183,20.183,0,0,0-2.126,2.683v.413c.073-.1.146-.209.219-.311a20.738,20.738,0,0,1,2.144-2.709Z" transform="translate(0 -5.297)" fill="#ffedb5"/>
      <path id="Path_9" data-name="Path 9" d="M270.678,233.838c-.346-1.728-2.29-3.23-5.775-4.456-6.286-2.218-19.442-3.21-29.7-3.21-2,0-3.832.036-5.447.113a286.7,286.7,0,0,0-31.85,3.383c-1.633.26-3.267.536-4.836.833-19.059,3.546-30.08,9.152-35.372,18.479h.484c5.273-9.194,16.185-14.733,35.025-18.239,1.569-.291,3.184-.567,4.817-.828A287.847,287.847,0,0,1,229.8,226.54c1.6-.076,3.421-.112,5.41-.112,10.182,0,23.238.981,29.451,3.173,3.357,1.186,5.228,2.622,5.565,4.267.839,4.145-7.782,9.005-14.716,12.909-1.4.787-2.7,1.523-3.841,2.2h.629c1.059-.628,2.254-1.3,3.531-2.018,7-3.945,15.711-8.851,14.844-13.118Z" transform="translate(-25.164 -11.08)" fill="#ffedb5"/>
      <path id="Path_10" data-name="Path 10" d="M96.419,220.842a14.311,14.311,0,0,1,4.653-.587c.693,0,1.4.015,2.135.035s1.5.041,2.253.041a18.426,18.426,0,0,0,5.921-.787c5.182-1.8,6.907-3.889,6.305-5.064-.393-.777-1.743-1.227-3.695-1.227a25.48,25.48,0,0,0-6.4,1.012,20.468,20.468,0,0,0-4.325,1.911,16.456,16.456,0,0,1-5.291,2.1,11.885,11.885,0,0,1-1.816.138,21.844,21.844,0,0,1-3.5-.363A22.685,22.685,0,0,0,89,217.669a13.635,13.635,0,0,0-1.369.071A14.121,14.121,0,0,0,82.2,219.6a15.29,15.29,0,0,1-4.325,1.687,44.416,44.416,0,0,1-8.138.572c-4.562,0-9.616-.322-13.685-.577-1.168-.077-2.254-.143-3.221-.2a132.2,132.2,0,0,1-26.842-4.527c-10.182-2.724-17.462-5.249-23.32-7.283A29.626,29.626,0,0,0-7.043,207.6a27.367,27.367,0,0,0-10.93,2.234v.189a26.927,26.927,0,0,1,10.93-2.269,29.1,29.1,0,0,1,9.58,1.65c5.857,2.034,13.147,4.564,23.347,7.288a132.391,132.391,0,0,0,26.924,4.543c.967.056,2.053.122,3.221.2,4.069.261,9.142.577,13.713.577a44.891,44.891,0,0,0,8.22-.577,15.622,15.622,0,0,0,4.425-1.722,13.708,13.708,0,0,1,5.292-1.825,12.44,12.44,0,0,1,1.314-.066,21.887,21.887,0,0,1,3.586.373,21.887,21.887,0,0,0,3.586.373,12.293,12.293,0,0,0,1.889-.143,16.984,16.984,0,0,0,5.41-2.131,20.192,20.192,0,0,1,4.261-1.881,25.3,25.3,0,0,1,6.277-1c1.852,0,3.065.393,3.43,1.114.575,1.124-1.122,3.138-6.186,4.9a17.918,17.918,0,0,1-5.784.766c-.748,0-1.5-.02-2.235-.041-.712-.02-1.442-.035-2.144-.035a14.673,14.673,0,0,0-4.8.613c-1.688.593-2.974,2.1-4.215,3.551a15.777,15.777,0,0,1-2.208,2.28c-6.241,4.762-6.624,9.893-5.273,16.128A31.9,31.9,0,0,0,86.757,249h.283a31.535,31.535,0,0,1-2.19-6.327c-1.341-6.2-.967-11.293,5.228-16.015a16.167,16.167,0,0,0,2.235-2.305c1.223-1.431,2.491-2.913,4.115-3.485Z" transform="translate(0 -11.08)" fill="#ffedb5"/>
      <path id="Path_11" data-name="Path 11" d="M125.03,50.147a6.152,6.152,0,0,0-5.419,3.23c-1.834,3,1.7,3.7,5.438,4.441.657.128,1.332.266,1.989.414a17.391,17.391,0,0,0,3.676.5,3.474,3.474,0,0,0,2.3-.6c1.395-1.242-.84-3.986-1.871-5.105a8.6,8.6,0,0,0-6.122-2.872Zm7.609,7.844c-.729.649-2.572.644-5.428,0-.666-.148-1.35-.286-2.007-.414-3.668-.726-6.843-1.354-5.155-4.119A5.736,5.736,0,0,1,125.03,50.4a7.993,7.993,0,0,1,5.712,2.734c2.062,2.254,2.773,4.068,1.888,4.855Z" transform="translate(-14.747)" fill="#ffedb5"/>
      <path id="Path_12" data-name="Path 12" d="M6.688,133.946c.411-.271.821-.546,1.241-.822,5.876-3.869,11.943-7.87,5.045-12.654-5.337-3.7-13.393-6.75-20.51-9.443-1.469-.557-2.865-1.084-4.233-1.615-.921-.358-2.162-.869-3.613-1.457-.794-.322-1.66-.679-2.591-1.058v.189c.867.353,1.688.685,2.427.992,1.441.593,2.691,1.1,3.613,1.456,1.369.532,2.764,1.058,4.233,1.62,7.089,2.688,15.136,5.734,20.446,9.413,6.761,4.687.757,8.637-5.036,12.459-.42.276-.83.547-1.241.823A116.748,116.748,0,0,0-10.3,146.891a48.433,48.433,0,0,0-7.682,9.643v.5a47.436,47.436,0,0,1,7.919-10.073A117.106,117.106,0,0,1,6.679,133.946Z" transform="translate(0 -5.415)" fill="#ffedb5"/>
      <path id="Path_13" data-name="Path 13" d="M130.4,248.121a6.356,6.356,0,0,0-1.743-1.957c-1.012-.854-1.879-1.6-1.532-2.99.474-1.906,4.6-6.617,9.05-6.617h.128c2.226.046,3.64.362,4.206.935,1.031,1.047-.83,2.826-2.318,4.251a6.7,6.7,0,0,0-1.624,1.876c-.246.864.438,1.359,1.1,1.835.529.378,1.022.735,1,1.267-.046,1.109-.922,1.63-1.852,2.182-.046.026-.082.051-.128.077h.374c.949-.562,1.834-1.1,1.88-2.254.027-.583-.53-.981-1.059-1.364-.62-.45-1.268-.92-1.04-1.717a6.83,6.83,0,0,1,1.6-1.82c1.523-1.461,3.421-3.275,2.317-4.4-.62-.634-2.071-.966-4.434-1.017h-.146c-4.6,0-8.831,4.8-9.315,6.751-.365,1.456.584,2.254,1.578,3.1a6.185,6.185,0,0,1,1.706,1.911,3,3,0,0,1,.274.818h.274a3.257,3.257,0,0,0-.283-.854Z" transform="translate(-15.571 -11.08)" fill="#ffedb5"/>
      <path id="Path_14" data-name="Path 14" d="M1.488,82.225a66.286,66.286,0,0,0,18.539,2.918c5.711,0,11.3-1.007,17.462-2.172,3.494-.659,7.454-1.41,11.943-2.044a39.363,39.363,0,0,1,5.556-.358c.867,0,1.706.02,2.509.036.766.015,1.487.036,2.2.036,3.695,0,6.642-.491,9.863-2.928a13.553,13.553,0,0,0,3.7-4.037c1.077-1.676,1.925-3,6.651-4.9a32.409,32.409,0,0,1,4.635-1.237c2.7-.6,5.036-1.109,5.137-1.983.082-.705-1.387-1.492-4.626-2.479-3.868-1.175-9.4-1.334-14.3-1.334-2.181,0-4.48.036-6.7.072s-4.534.077-6.733.077a75.1,75.1,0,0,1-11.167-.618C30.291,58.861,15.4,54.292,2.263,50.255c-6.9-2.116-13.585-4.17-20.263-5.933V44.6c6.606,1.748,13.22,3.782,20.044,5.877,13.156,4.042,28.064,8.621,44,11.043a75.938,75.938,0,0,0,11.286.629c2.208,0,4.516-.036,6.751-.077C66.3,62.039,68.592,62,70.763,62c4.836,0,10.291.153,14.078,1.3,2.974.9,4.452,1.661,4.389,2.238-.082.71-2.4,1.221-4.845,1.758a33.974,33.974,0,0,0-4.726,1.267c-4.845,1.942-5.757,3.368-6.815,5.018a13.473,13.473,0,0,1-3.649,3.971c-3.111,2.351-5.939,2.826-9.5,2.826-.7,0-1.423-.015-2.181-.036-.812-.02-1.651-.036-2.527-.036a40.268,40.268,0,0,0-5.666.363c-4.507.634-8.476,1.385-11.979,2.049-6.122,1.16-11.4,2.162-17.317,2.162A64.189,64.189,0,0,1,1.689,82,149.687,149.687,0,0,1-15.7,75.479c-.757-.322-1.515-.644-2.281-.966v.322c.675.281,1.341.567,2.007.848A148.938,148.938,0,0,0,1.479,82.225Z" fill="#ffedb5"/>
      <path id="Path_15" data-name="Path 15" d="M223.51,241.861a9.388,9.388,0,0,0-2.026-.158c-5.291,0-16.5,1.768-16.623,1.783-1.25.2-2.5.414-3.713.639-6.2,1.155-10.793,2.7-14.132,4.85h.365c3.3-2.08,7.809-3.578,13.858-4.707,1.205-.225,2.455-.44,3.7-.639.11-.02,11.286-1.778,16.541-1.778A9.014,9.014,0,0,1,223.4,242c2.026.485,1.287,1.778-.346,4.615-.393.679-.849,1.476-1.314,2.361h.283c.465-.864.912-1.646,1.295-2.31,1.633-2.837,2.455-4.262.2-4.8Z" transform="translate(-23.443 -11.08)" fill="#ffedb5"/>
      <path id="Path_16" data-name="Path 16" d="M211.129,246.46a30.068,30.068,0,0,0-4.553.419c-1.167.184-2.326.384-3.439.593a51.653,51.653,0,0,0-6.158,1.5h.957a53.418,53.418,0,0,1,5.347-1.263c1.113-.2,2.263-.4,3.421-.587a29.146,29.146,0,0,1,4.425-.409c2.272,0,3.659.465,4.1,1.385a1.638,1.638,0,0,1,.127.874h.457a1.907,1.907,0,0,0-.146-.941c-.347-.72-1.415-1.574-4.544-1.574Z" transform="translate(-23.387 -11.08)" fill="#ffedb5"/>
      <path id="Path_17" data-name="Path 17" d="M239.786,238.013c-.794-.894-3.531-1.211-8.44-.986a253.879,253.879,0,0,0-28.2,3.01c-1.368.214-2.709.449-4.005.689-9.279,1.728-15.747,4.375-19.962,8.243h.319c4.179-3.8,10.583-6.4,19.725-8.1,1.287-.241,2.637-.471,4-.685a254.456,254.456,0,0,1,28.156-3.005c1-.046,1.925-.072,2.746-.072,3.074,0,4.844.317,5.428.971,1.022,1.15-1.852,3.276-4.625,5.335-.493.363-.986.731-1.46,1.094a56.411,56.411,0,0,0-5.182,4.466h.319a55.4,55.4,0,0,1,5.082-4.374c.474-.363.967-.726,1.46-1.094,2.956-2.192,5.748-4.262,4.653-5.493Z" transform="translate(-24.028 -11.08)" fill="#ffedb5"/>
      <path id="Path_18" data-name="Path 18" d="M249,240.645c4.206-2.213,5.894-3.966,5.018-5.208-1.04-1.472-5.684-2.223-13.795-2.223-2.7,0-5.775.082-9.4.251a265.828,265.828,0,0,0-29.414,3.132c-1.442.23-2.883.475-4.279.736-12.171,2.264-20.382,6.035-25.218,11.641h.31c4.809-5.534,12.956-9.254,25-11.493,1.4-.26,2.837-.506,4.27-.736a265.012,265.012,0,0,1,29.369-3.127c3.613-.169,6.678-.251,9.379-.251,7.983,0,12.535.716,13.539,2.126.83,1.176-.83,2.872-4.945,5.039-.83.435-1.624.859-2.3,1.237a72.591,72.591,0,0,0-7.9,4.855c-1.013.771-1.962,1.558-2.892,2.35h.328c.894-.766,1.816-1.517,2.792-2.258a73.664,73.664,0,0,1,7.874-4.84c.666-.378,1.459-.8,2.29-1.231Z" transform="translate(-24.656 -11.08)" fill="#ffedb5"/>
      <path id="Path_19" data-name="Path 19" d="M5.694,77.631A72.169,72.169,0,0,0,25.9,80.508a118.828,118.828,0,0,0,19.36-2.346c6.332-1.288,13.886-3.424,13.9-6.3.018-3.383-11.642-5.264-18.612-6.388-1.515-.245-2.828-.455-3.7-.634C24.379,62.31,11.989,59.111-2.125,54.777c-5.392-1.656-10.647-3.271-15.829-4.722v.174c5.137,1.441,10.355,3.041,15.7,4.686,14.132,4.339,26.531,7.543,39.021,10.077.885.179,2.2.388,3.713.634,6.9,1.109,18.439,2.969,18.421,6.24-.027,4.967-25.026,8.488-32.991,8.488A71.637,71.637,0,0,1,5.831,77.493a140.9,140.9,0,0,1-16.048-6.046c-2.491-1.058-5.054-2.146-7.737-3.2v.189c2.618,1.037,5.127,2.1,7.573,3.138A140.085,140.085,0,0,0,5.712,77.631Z" fill="#ffedb5"/>
      <path id="Path_20" data-name="Path 20" d="M8.6,74.447a61.938,61.938,0,0,0,17.3,2.484c5.064,0,11.669-.843,14.215-2.688a2.108,2.108,0,0,0,.931-2.8c-1.159-2.479-10.419-4.231-17.189-5.509-2.19-.414-4.078-.772-5.237-1.073-7.819-2.034-15.556-4.41-23.037-6.7l-.83-.256c-4.325-1.329-8.558-2.627-12.727-3.833v.174c4.124,1.2,8.312,2.479,12.591,3.8l.83.256c7.481,2.3,15.227,4.676,23.046,6.71,1.177.307,3.066.664,5.264,1.078,6.332,1.2,15.893,3,17.006,5.4a2.007,2.007,0,0,1-.876,2.662c-2.491,1.8-9,2.627-14.014,2.627A61.3,61.3,0,0,1,8.714,74.309,134.8,134.8,0,0,1-6.394,68.591c-3.567-1.513-7.4-3.138-11.6-4.671V64.1c4.133,1.518,7.91,3.117,11.432,4.615A134.43,134.43,0,0,0,8.587,74.447Z" transform="translate(0 -1.876)" fill="#ffedb5"/>
      <path id="Path_21" data-name="Path 21" d="M143.953,22.071c.456-1.032.9-2.049,1.323-3.061h-.466c-.41.991-.848,1.988-1.295,3-.84,1.9-1.706,3.853-2.409,5.856-2.336,6.669-4.352,15.413.858,23.9,2.116,3.45,7.4,6.265,12.052,8.749,4.142,2.213,7.718,4.124,7.4,5.729-.146.736-1.113,1.4-2.947,2.008a15.265,15.265,0,0,1-4.3.424c-7.007,0-19.36-1.732-28.5-3.45-9.945-1.865-22.189-4.84-24.086-8.407-.6-1.134-.11-2.284,1.478-3.409,2.034-1.446,4.215-2.714,6.322-3.945,4.152-2.417,8.075-4.7,10.675-8.09,3.7-4.834,4.151-9.878,1.332-14.989-.684-1.237-1.368-2.376-1.98-3.383A37.854,37.854,0,0,1,117.2,19.01h-.474a36.577,36.577,0,0,0,2.253,4.073c.6,1.007,1.3,2.141,1.971,3.378,2.783,5.049,2.336,10.031-1.323,14.81-2.564,3.347-6.459,5.616-10.583,8.013-2.117,1.232-4.306,2.509-6.359,3.966-1.679,1.2-2.208,2.422-1.56,3.644,1.952,3.669,14.342,6.689,24.378,8.575,9.178,1.722,21.586,3.46,28.648,3.46a15.888,15.888,0,0,0,4.534-.46c1.962-.654,3-1.375,3.166-2.2.347-1.732-3.3-3.685-7.536-5.943-4.617-2.463-9.853-5.258-11.934-8.652-5.173-8.427-3.165-17.13-.839-23.763.7-1.993,1.56-3.95,2.4-5.841Z" transform="translate(-14.491)" fill="#ffedb5"/>
      <path id="Path_22" data-name="Path 22" d="M68.364,141.6c-.456.424-.885.822-1.259,1.119a136.3,136.3,0,0,1-16.231,10.42c-.83.475-1.679.96-2.536,1.446-5.073,2.872-10.328,5.841-13.466,9.352-1.213,1.359-1.6,2.422-1.086,3.071a1.792,1.792,0,0,0,1.2.578,5.181,5.181,0,0,0,.776.056,14.4,14.4,0,0,0,4.315-.879c3.376-1.145,6.578-2.555,9.68-3.925,2.536-1.119,5.164-2.279,7.874-3.281,10.921-4.052,18.138-6.735,21.513-14.293.7-1.569,1.113-5.136-1.049-6.69a4.732,4.732,0,0,0-2.929-.756c-2.81.082-5.109,2.218-6.8,3.776Zm7.007-3.629a4.18,4.18,0,0,1,2.5.7c2.1,1.508,1.688,5.014,1,6.557-3.348,7.5-10.529,10.164-21.4,14.2-2.719,1.007-5.346,2.167-7.892,3.291-3.093,1.365-6.3,2.775-9.653,3.915a11.441,11.441,0,0,1-4.872.807,1.568,1.568,0,0,1-1.022-.495c-.465-.6-.082-1.641,1.077-2.939,3.12-3.49,8.357-6.449,13.412-9.316.858-.485,1.715-.971,2.545-1.446a137.5,137.5,0,0,0,16.258-10.435c.383-.3.812-.7,1.268-1.125,1.651-1.533,3.9-3.628,6.569-3.705h.2Z" transform="translate(0 -6.576)" fill="#ffedb5"/>
      <path id="Path_23" data-name="Path 23" d="M11.47,71.309a49.107,49.107,0,0,0,10.638,1.456,9.265,9.265,0,0,0,3-.368c1.441-.526,2.08-1.017,1.952-1.508-.292-1.078-4.48-1.727-7.837-2.248-1.387-.215-2.573-.4-3.257-.577C7.957,65.984.129,63.577-7.443,61.252L-8.283,61c-3.284-1.007-6.514-2-9.7-2.944v.291c3.111.925,6.268,1.9,9.479,2.877l.839.256c7.582,2.33,15.419,4.737,23.438,6.822.712.184,1.925.373,3.321.593,3.066.475,7.253,1.129,7.509,2.044.1.373-.484.8-1.752,1.252a8.705,8.705,0,0,1-2.755.322,49.217,49.217,0,0,1-10.437-1.426A128.387,128.387,0,0,1-2.48,65.708c-4.5-1.906-9.607-4.078-15.51-6.056v.3C-12.206,61.9-7.17,64.037-2.745,65.918a129.705,129.705,0,0,0,14.2,5.4Z" transform="translate(0 -2.01)" fill="#ffedb5"/>
      <path id="Path_24" data-name="Path 24" d="M-2.225,168.513c1.095-13.246,17.389-23.687,30.482-32.073l1.031-.659c15.574-9.986,14.944-13.471,7.636-17.508A303.914,303.914,0,0,0-.8,100.556c-5.83-2.264-11.605-4.334-17.171-6.179v.3c5.483,1.819,11.167,3.863,16.906,6.091A303.558,303.558,0,0,1,36.6,118.457c7.1,3.92,7.673,7.328-7.655,17.16l-1.031.66c-13.138,8.416-29.5,18.893-30.591,32.23C-3.7,181.023-12.115,184.7-17.963,185.729v.266c5.985-1.022,14.7-4.717,15.747-17.477Z" transform="translate(0 -6.035)" fill="#ffedb5"/>
      <path id="Path_25" data-name="Path 25" d="M262.176,233.531c-2.683-3.2-13.512-3.874-22.134-3.874-3.029,0-6.305.082-9.744.241a276.355,276.355,0,0,0-30.628,3.255c-1.542.245-3.075.511-4.553.782-9.488,1.763-16.787,4.318-22.307,7.8a28.006,28.006,0,0,0-7.9,7.236h.283c5.283-7.3,15.008-12.1,30.017-14.891,1.478-.276,3-.537,4.543-.782a276.845,276.845,0,0,1,30.573-3.25c3.431-.158,6.706-.24,9.726-.24,8.54,0,19.26.654,21.878,3.781,2.874,3.429-4.1,7.1-8.731,9.536-.785.414-1.524.808-2.153,1.155a69.882,69.882,0,0,0-7.29,4.456c-.1.077-.2.154-.3.235h.338c.063-.046.118-.092.182-.143a68.534,68.534,0,0,1,7.262-4.435c.621-.348,1.36-.741,2.144-1.15,4.681-2.463,11.742-6.184,8.786-9.71Z" transform="translate(-24.934 -11.08)" fill="#ffedb5"/>
      <path id="Path_26" data-name="Path 26" d="M74.221,225.278a96.375,96.375,0,0,0-12.636-.659c-2.436-.021-4.954-.041-7.354-.174a147.482,147.482,0,0,1-30.975-4.681c-10.492-2.806-17.946-5.391-23.931-7.471a19.478,19.478,0,0,0-6.359-1.135,18.831,18.831,0,0,0-10.93,3.736v.255a18.469,18.469,0,0,1,10.93-3.837,18.906,18.906,0,0,1,6.213,1.114c5.994,2.079,13.448,4.665,23.958,7.476A148.114,148.114,0,0,0,54.2,224.6c2.418.128,4.936.149,7.381.174a96.417,96.417,0,0,1,12.581.654c6.268.9,6.049,3.47,5.155,6.48-1.058,3.593-1.943,7.149-1.067,11.192a32.364,32.364,0,0,0,1.943,5.877h.283a32.008,32.008,0,0,1-1.952-5.9c-.867-4.022,0-7.568,1.067-11.145.876-2.975,1.131-5.719-5.355-6.654Z" transform="translate(0 -11.08)" fill="#ffedb5"/>
      <path id="Path_27" data-name="Path 27" d="M98.48,23.431c6.25,10.905,8.8,16.833-6.724,21.857A45.454,45.454,0,0,1,83.162,47.1a74.9,74.9,0,0,1-8.74.48c-28.849,0-68.463-13.5-89.758-20.753l-.73-.245c-.648-.22-1.287-.44-1.907-.649v.3q.821.276,1.67.567l.73.245C5.749,34.305,45.445,47.827,74.422,47.832a75.484,75.484,0,0,0,8.841-.486,46.243,46.243,0,0,0,8.722-1.84c15.82-5.12,13.256-11.12,6.934-22.158-.8-1.4-1.633-2.852-2.4-4.344h-.474c.776,1.518,1.624,3,2.436,4.42Z" fill="#ffedb5"/>
      <path id="Path_28" data-name="Path 28" d="M62.059,21.872c.182.383.438.858.73,1.39.821,1.513.675,2.53-.438,3.03a6.116,6.116,0,0,1-2.418.378c-4.452,0-11.861-2.223-14.3-2.959-1.186-.358-2.089-.624-2.792-.823L39.1,21.857c-3.431-.94-6.779-1.891-10.018-2.847H28.5c3.385,1,6.888,2,10.483,2.984l3.741,1.032c.7.194,1.6.465,2.783.818,2.454.736,9.908,2.974,14.434,2.974a6.557,6.557,0,0,0,2.591-.409c1.213-.542,1.387-1.615.529-3.194-.292-.531-.547-1-.73-1.39-.438-.925-.885-1.86-1.3-2.821h-.283c.42.976.867,1.927,1.314,2.862Z" fill="#ffedb5"/>
      <path id="Path_29" data-name="Path 29" d="M89.877,24.979c2.527,4.415,4.954,9.955,1.168,13.614-1.87,1.814-5.164,3.01-9.762,3.557a58.6,58.6,0,0,1-6.861.373C48.109,42.523,9.89,29.5-10.638,22.506l-3.786-1.288c-1.159-.393-2.345-.761-3.54-1.109v.174c1.15.332,2.281.685,3.4,1.063l3.786,1.288c20.555,7,58.81,20.038,85.2,20.043a59.463,59.463,0,0,0,6.916-.373c4.68-.557,8.029-1.778,9.945-3.633,3.841-3.71,1.405-9.291-1.14-13.737-1.095-1.906-2.171-3.889-3.1-5.918h-.283c.931,2.049,2.025,4.047,3.129,5.969Z" fill="#ffedb5"/>
      <path id="Path_30" data-name="Path 30" d="M68.236,20.952c.164.347.4.772.666,1.267,1.323,2.433,3.33,6.107,1.432,7.8a6.519,6.519,0,0,1-3.549,1.344,16.858,16.858,0,0,1-2.126.123c-6.66,0-16.669-3-22.043-4.62-1.04-.312-1.943-.583-2.618-.772l-.465-.128c-.529-.148-1.022-.286-1.478-.409l-1.761-.486c-7.262-1.993-14.16-4.032-20.519-6.056h-.547c6.478,2.07,13.521,4.16,20.948,6.194l1.761.486c.456.123.949.261,1.478.409l.465.128c.675.189,1.569.46,2.609.772,5.392,1.62,15.437,4.64,22.17,4.64a17.793,17.793,0,0,0,2.18-.123,6.805,6.805,0,0,0,3.723-1.41c1.961-1.753-.064-5.468-1.405-7.926-.265-.491-.5-.915-.666-1.262-.3-.629-.6-1.262-.885-1.906h-.283c.292.654.6,1.3.9,1.942Z" fill="#ffedb5"/>
      <path id="Path_31" data-name="Path 31" d="M74.4,20.032c1.3,2.724,2.637,5.545,2.774,8.452.182,3.761-2.436,5.913-7.773,6.4-.794.071-1.66.107-2.573.107-9.279,0-22.554-3.71-29.688-5.7-.693-.194-1.332-.373-1.916-.531l-1.761-.486C22.372,25.235,12.081,22.076,3.25,19.01h-.52c8.923,3.107,19.351,6.316,30.619,9.408l1.761.485c.575.158,1.213.337,1.916.532,7.153,2,20.473,5.718,29.816,5.718.931,0,1.816-.036,2.618-.112,5.5-.5,8.193-2.7,8-6.557-.146-2.928-1.487-5.754-2.783-8.488l-.465-.981H73.93c.164.342.319.685.484,1.022Z" fill="#ffedb5"/>
      <path id="Path_32" data-name="Path 32" d="M83.8,26.073l.411.705c1.46,2.484,2.965,5.054.529,7.538-2.035,2.07-6.149,3.751-10.492,4.277-.447.056-.894.1-1.332.123-1.086.072-2.226.107-3.385.107-12.253,0-26.623-3.955-37.115-6.843l-1.761-.48c-13.476-3.7-26.495-8.141-37.981-12.055L-8.6,19.01h-.529l1.66.567c11.487,3.915,24.515,8.35,38.009,12.055l1.752.48c10.519,2.892,24.916,6.858,37.233,6.858,1.177,0,2.326-.036,3.421-.107.447-.031.9-.072,1.359-.128,4.416-.537,8.6-2.243,10.675-4.354,2.491-2.54.967-5.141-.511-7.66l-.411-.705a69.658,69.658,0,0,1-3.595-7.011h-.283a70.626,70.626,0,0,0,3.613,7.063Z" fill="#ffedb5"/>
      <path id="Path_33" data-name="Path 33" d="M73.866,133.088c-4.005.552-7.5,3.659-10.319,6.153-.985.873-1.916,1.7-2.728,2.284A167.842,167.842,0,0,1,46.24,150.6c-1.287.741-2.91,1.584-4.617,2.473C36.532,155.711,30.2,159,28.275,162.012c-1.615,2.53-.666,4.947.255,7.277.757,1.917,1.542,3.9.921,5.954-.383,1.277-1.761,2.534-3.23,3.863-1.752,1.6-3.558,3.24-3.668,5.013a2.918,2.918,0,0,0,.493,1.769c1.2,1.9,2.463,2.774,3.96,2.774s3.093-.863,5.483-2.974c2.281-2.018,3.175-4.354,4.042-6.613a15.232,15.232,0,0,1,4.069-6.643c4.379-3.863,12.1-6.715,18.9-9.224.575-.21,1.14-.424,1.706-.629,11.3-4.195,20.236-7.512,24.223-16.44,1.058-2.36.775-8.38-3.513-11.457a10.892,10.892,0,0,0-8.047-1.594Zm7.691,1.753c3.841,2.759,4.607,8.59,3.43,11.237-3.941,8.831-12.809,12.122-24.031,16.287-.557.209-1.131.419-1.706.628-6.852,2.525-14.616,5.392-19.041,9.3-2.345,2.07-3.248,4.436-4.133,6.73-.858,2.239-1.743,4.554-3.978,6.531-1.6,1.411-3.449,2.857-5.091,2.857-1.259,0-2.409-.853-3.531-2.606a2.741,2.741,0,0,1-.465-1.676c.109-1.7,1.879-3.322,3.6-4.886,1.487-1.354,2.892-2.632,3.285-3.955.639-2.106-.155-4.114-.921-6.051-.949-2.407-1.852-4.676-.274-7.139,1.889-2.949,8.175-6.214,13.229-8.841,1.715-.894,3.339-1.732,4.635-2.483a170.1,170.1,0,0,0,14.616-9.1c.83-.6,1.761-1.431,2.755-2.3,2.773-2.453,6.213-5.508,10.036-6.04a14.544,14.544,0,0,1,2.007-.143,9.36,9.36,0,0,1,5.575,1.645Z" transform="translate(0 -7.244)" fill="#ffedb5"/>
      <path id="Path_34" data-name="Path 34" d="M78.062,121.993a10.4,10.4,0,0,0-6.067-2.217,15.271,15.271,0,0,1-4.443-1.028l-.137-.087c-4.653-2.918-20.263-12.433-25.546-12.433a2.432,2.432,0,0,0-1.442.368c-.7.516-.666,1.554.11,3.174.465.96,4.881,2.289,9.562,3.7,3.9,1.171,7.928,2.382,9.3,3.291,1.223.818,2.837,1.947,2.691,2.336-.036.107-.246.169-.6.266-.812.224-2.044.572-1.387,2.182a11.091,11.091,0,0,0,2.874,3.3,10.719,10.719,0,0,1,2.582,2.857c1.168,2.514-6.186,7.128-11.049,10.179-1.606,1.007-2.993,1.876-3.877,2.535a111,111,0,0,1-12.235,7.43c-8.312,4.589-16.9,9.332-19.926,15.878-4.516,9.786-5.419,18.428-2.673,25.685,1.46,3.873,6.5,9.27,11.377,9.27,3.038,0,5.255-2.044,6.578-6.082,5.109-15.545,19.041-20.717,32.525-25.72,11.943-4.43,23.219-8.616,28.073-19.491,1.825-4.1-.985-10.409-4.644-13.9a18.212,18.212,0,0,0-5.675-3.28,17.174,17.174,0,0,1-4.671-2.571c-.9-.792-.739-1.722-.575-2.7.173-1.012.356-2.06-.739-2.949Zm.775,5.842a17.5,17.5,0,0,0,4.826,2.662,17.83,17.83,0,0,1,5.511,3.179c3.595,3.429,6.359,9.617,4.571,13.634-4.79,10.737-15.966,14.886-27.809,19.276-13.585,5.044-27.644,10.262-32.8,25.955-1.241,3.787-3.3,5.79-5.958,5.79-4.142,0-9.187-4.834-10.757-8.989-2.719-7.2-1.825-15.791,2.673-25.521,2.974-6.454,11.5-11.161,19.752-15.714a111.7,111.7,0,0,0,12.3-7.471c.867-.644,2.244-1.508,3.841-2.509,5.255-3.3,12.445-7.814,11.186-10.507a11.121,11.121,0,0,0-2.664-2.954,10.661,10.661,0,0,1-2.792-3.184c-.547-1.339.3-1.574,1.049-1.783.411-.118.839-.235.949-.516.137-.373-.283-.946-2.828-2.637-1.442-.961-5.529-2.187-9.479-3.378-4.151-1.247-8.85-2.663-9.242-3.475-.894-1.85-.611-2.576-.219-2.862a1.555,1.555,0,0,1,.931-.225c3.987,0,15.565,6.363,25.071,12.311a1.917,1.917,0,0,0,.192.112,16.129,16.129,0,0,0,4.726,1.109,9.623,9.623,0,0,1,5.675,2.075c.967.777.8,1.717.63,2.709s-.356,2.028.666,2.928Z" transform="translate(0 -7.026)" fill="#ffedb5"/>
      <path id="Path_35" data-name="Path 35" d="M-17.973,88.822c30.765,9.75,63.92,25.266,69.96,32.977,3.622,4.63-5.164,10.165-16.285,17.171-12.645,7.962-28.374,17.871-29.36,29.762-1.2,14.5-14.023,20.452-24.314,22.251v.373c10.529-1.8,23.74-7.829,24.953-22.608.967-11.764,16.623-21.622,29.2-29.543,11.277-7.1,20.181-12.709,16.4-17.554-6.086-7.768-39.56-23.421-70.544-33.217v.388Z" transform="translate(0 -6.054)" fill="#ffedb5"/>
      <path id="Path_36" data-name="Path 36" d="M137.01,19.041a.531.531,0,0,1,.045-.031h-.374a5.306,5.306,0,0,0-1.551,1.221c-1.131,1.492-.812,3.046-.5,4.548a8.943,8.943,0,0,1,.283,2.55,17.126,17.126,0,0,1-1.067,4.052,21.8,21.8,0,0,0-.976,3.358,25.468,25.468,0,0,0,3.138,18.167c.675,1.1,3.321,2.79,6.122,4.579,3.577,2.289,7.281,4.655,7.427,6.091a.759.759,0,0,1-.447.772c-.967.572-3.559.68-7.71.312A58.234,58.234,0,0,1,132.685,63c-1.633-.4-3.33-.812-5.018-1.129-.474-.092-.967-.179-1.478-.276-6.067-1.119-14.369-2.657-15.565-5.345-.565-1.283.548-2.749,3.312-4.359,4.352-2.535,8.859-5.156,11.907-9.137,2.919-3.817,6.286-11.243,5-15.259a4.547,4.547,0,0,0-1.469-1.916c-.793-.721-1.542-1.4-1.2-2.632a3.826,3.826,0,0,1,1.442-1.906c.666-.562,1.249-1.073,1.085-2.034h-.273c.164.915-.384,1.39-1.041,1.952A3.893,3.893,0,0,0,127.9,22.93c-.355,1.288.42,1.993,1.241,2.734a4.417,4.417,0,0,1,1.433,1.865C131.855,31.52,128.507,38.9,125.6,42.7c-3.029,3.955-7.518,6.567-11.851,9.091-2.829,1.651-3.969,3.163-3.376,4.5,1.222,2.77,9.616,4.323,15.747,5.458q.767.138,1.478.276c1.679.317,3.367.726,4.991,1.124a59.268,59.268,0,0,0,8.777,1.666c1.633.143,3.038.22,4.187.22a8.119,8.119,0,0,0,3.759-.577.9.9,0,0,0,.52-.884c-.155-1.487-3.886-3.874-7.5-6.184-2.783-1.778-5.41-3.46-6.067-4.528a25.39,25.39,0,0,1-3.13-18.1,21.9,21.9,0,0,1,.976-3.342,16.8,16.8,0,0,0,1.068-4.073,9.136,9.136,0,0,0-.283-2.576c-.319-1.554-.629-3.015.484-4.472A5.464,5.464,0,0,1,137,19.046Z" transform="translate(-14.73)" fill="#ffedb5"/>
      <path id="Path_37" data-name="Path 37" d="M107.075,21.882c5.775,10.073,11.742,20.482-10.8,27.785a59.238,59.238,0,0,1-11.231,2.376,90.143,90.143,0,0,1-10.62.593c-30.491,0-68.618-12.694-92.394-20.789v.419C5.885,40.382,43.9,52.994,74.413,52.994a91.28,91.28,0,0,0,10.757-.6,60.716,60.716,0,0,0,11.423-2.417c22.991-7.446,16.942-18,11.094-28.2-.529-.93-1.058-1.85-1.56-2.765h-.666c.52.951,1.068,1.906,1.624,2.872Z" fill="#ffedb5"/>
      <path id="Path_38" data-name="Path 38" d="M69.5,230.123c-3.321-1.723-8.284-1.866-12.664-1.993-1.122-.031-2.19-.062-3.212-.118A157.786,157.786,0,0,1,20.5,223a213.087,213.087,0,0,1-21.7-6.833,13.617,13.617,0,0,0-4.918-.94,11.969,11.969,0,0,0-9.415,4.4c-.812,1.037-1.615,2.059-2.445,3.071v.368c.912-1.109,1.8-2.233,2.691-3.378a11.659,11.659,0,0,1,9.169-4.3,13.164,13.164,0,0,1,4.763.915,213.487,213.487,0,0,0,21.732,6.848A158.153,158.153,0,0,0,53.6,228.171c1.031.056,2.1.086,3.23.117,4.334.128,9.242.271,12.49,1.952,3.768,1.952,3.239,5.657,2.764,8.923a13.365,13.365,0,0,0-.182,4.364,26.578,26.578,0,0,0,2.025,5.448h.283a26.355,26.355,0,0,1-2.035-5.468,13.219,13.219,0,0,1,.183-4.339c.474-3.3,1.013-7.047-2.856-9.045Z" transform="translate(0 -11.08)" fill="#ffedb5"/>
      <path id="Path_39" data-name="Path 39" d="M-15.774,238.994c-.8-.179-1.533-.347-2.2-.536v.173c.648.184,1.35.343,2.089.506.383.087.776.174,1.186.271A114.594,114.594,0,0,1-.592,243.517c4.708,1.778,10.027,3.613,15.8,5.458h.547c-5.93-1.891-11.377-3.767-16.194-5.586a115.309,115.309,0,0,0-14.151-4.124C-15,239.168-15.391,239.081-15.774,238.994Z" transform="translate(0 -11.08)" fill="#ffedb5"/>
      <path id="Path_40" data-name="Path 40" d="M-4.151,246.481c2.171.822,4.48,1.65,6.888,2.494h.52C.712,248.09-1.715,247.217-4,246.358a121.939,121.939,0,0,0-13.968-4.006v.163a120.3,120.3,0,0,1,13.822,3.971Z" transform="translate(0 -11.08)" fill="#ffedb5"/>
      <path id="Path_41" data-name="Path 41" d="M44.24,19.516a23.9,23.9,0,0,0,6.122,1.15,6.21,6.21,0,0,0,2.235-.358c.055-.02.1-.041.155-.061A2.794,2.794,0,0,0,54.13,19.01h-.474a2.483,2.483,0,0,1-1.186,1.037.777.777,0,0,1-.128.051,5.62,5.62,0,0,1-1.98.312,23.309,23.309,0,0,1-5.921-1.124l-.7-.2s-.119-.031-.292-.082h-1.04l1.131.312C43.757,19.378,43.994,19.445,44.24,19.516Z" fill="#ffedb5"/>
      <path id="Path_42" data-name="Path 42" d="M48.529,244.375a1.281,1.281,0,0,0-.319-1.707c-1.341-1.16-4.954-1.456-7.591-1.671-.438-.036-.848-.071-1.2-.1-.119-.01-.319-.036-.584-.061-1.378-.154-4.251-.481-6.4-.481a5.712,5.712,0,0,0-2.509.353.461.461,0,0,0-.283.439c.128,1.319,3.741,2.137,5.9,2.622.338.077.639.143.894.2.584.144,1.241.328,1.943.522a27.875,27.875,0,0,0,6.916,1.323c.283,0,.548-.01.8-.035a2.838,2.838,0,0,0,2.454-1.4Zm-2.536,1.114c-.219.021-.465.031-.712.031a27.256,27.256,0,0,1-6.678-1.293c-.7-.194-1.369-.383-1.962-.526-.256-.062-.566-.133-.9-.21-2.044-.46-5.465-1.231-5.574-2.361a.244.244,0,0,1,.137-.22,4.97,4.97,0,0,1,2.126-.26,62.318,62.318,0,0,1,6.3.475c.274.031.474.051.6.066.365.036.776.067,1.223.108,2.4.194,6.022.49,7.226,1.538a1.1,1.1,0,0,1,.255,1.467A2.31,2.31,0,0,1,46,245.494Z" transform="translate(0 -11.08)" fill="#ffedb5"/>
      <path id="Path_43" data-name="Path 43" d="M66.311,237.543c.438-1.5.885-3.056-.885-4.237-2.117-1.41-5.565-1.507-8.613-1.594l-.31-.01c-1.086-.031-2.308-.067-3.485-.128a168.014,168.014,0,0,1-35.272-5.345c-3.476-.931-6.888-1.988-10.191-3.016-1.816-.562-3.686-1.144-5.556-1.7l-.128-.036a24.1,24.1,0,0,0-6.779-1.324,9.674,9.674,0,0,0-3.385.573c-3.713,1.354-5.492,3.981-7.217,6.521a25.233,25.233,0,0,1-2.445,3.2v.322a23.267,23.267,0,0,0,2.7-3.465c1.706-2.52,3.476-5.121,7.116-6.449a9.285,9.285,0,0,1,3.239-.547,23.576,23.576,0,0,1,6.651,1.308l.128.036c1.861.552,3.741,1.134,5.556,1.7,3.3,1.028,6.724,2.085,10.209,3.021a168.07,168.07,0,0,0,35.363,5.36c1.186.062,2.418.1,3.5.128l.31.01c2.993.087,6.377.184,8.412,1.544,1.688,1.129,1.25,2.647.821,4.113a10.251,10.251,0,0,0-.328,1.36,14.711,14.711,0,0,0-.155,5.079,25.033,25.033,0,0,0,1.77,5.019h.283a24.676,24.676,0,0,1-1.779-5.039A14.575,14.575,0,0,1,66,238.887a10.168,10.168,0,0,1,.328-1.339Z" transform="translate(0 -11.08)" fill="#ffedb5"/>
      <path id="Path_44" data-name="Path 44" d="M-1.377,127.129C1,123.4-1.4,121.9-12.134,117.915c-.848-.317-1.706-.633-2.582-.966-1.122-.424-2.2-.833-3.257-1.241v.184c1.013.388,2.035.776,3.111,1.185.867.327,1.724.649,2.582.961,10.593,3.93,12.956,5.4,10.647,9.035-2.089,3.291-6.131,6.076-10.41,9.025-1.989,1.374-4.023,2.775-5.93,4.272v.266c1.962-1.559,4.069-3.015,6.14-4.441,4.3-2.959,8.348-5.759,10.456-9.071Z" transform="translate(0 -5.225)" fill="#ffedb5"/>
      <path id="Path_45" data-name="Path 45" d="M54.185,235.534a50.042,50.042,0,0,0-9.069-1.037c-1.734-.092-3.522-.189-5.237-.383a171.9,171.9,0,0,1-24.889-4.661c-3.649-.976-7.144-2.06-10.538-3.112-.484-.148-1.04-.348-1.633-.562a20.855,20.855,0,0,0-6.569-1.569,5.96,5.96,0,0,0-2.171.368A6.453,6.453,0,0,0-9.059,227.7c-.173.286-.338.562-.5.808a14.835,14.835,0,0,1-1.514,1.676c-1.514,1.543-3.4,3.459-2.728,4.614s3.394,1.8,5.575,2.315c.493.118.958.225,1.359.332a102.888,102.888,0,0,1,9.853,3.1c7.208,2.724,15.9,5.586,25.51,8.427h.584c-9.79-2.882-18.621-5.79-25.938-8.554a101.48,101.48,0,0,0-9.881-3.112c-.4-.108-.876-.22-1.369-.338-2.126-.5-4.772-1.124-5.419-2.223s1.214-2.979,2.7-4.492A15.178,15.178,0,0,0-9.3,228.564c.173-.251.338-.527.511-.818A6.307,6.307,0,0,1-5.747,224.7a5.563,5.563,0,0,1,2.007-.342A20.747,20.747,0,0,1,2.683,225.9c.593.215,1.159.414,1.651.568,3.385,1.052,6.888,2.136,10.547,3.117a171.872,171.872,0,0,0,24.953,4.676c1.724.194,3.522.291,5.264.383a49.837,49.837,0,0,1,8.987,1.022c5.027,1.227,5,3.628,4.981,6.173a11.871,11.871,0,0,0,.164,2.54,24.67,24.67,0,0,0,1.533,4.589h.283a25.525,25.525,0,0,1-1.542-4.6,11.117,11.117,0,0,1-.164-2.52c.027-2.6.046-5.043-5.146-6.311Z" transform="translate(0 -11.08)" fill="#ffedb5"/>
      <path id="Path_46" data-name="Path 46" d="M41.952,248.566c-13.521-3.71-25.692-7.564-35.2-11.151-1.25-.47-2.609-.864-3.923-1.247a35.713,35.713,0,0,1-5.283-1.824c-2.162-1.028-2.719-2.039-1.806-3.281.721-.971,1.925-1.446,3.7-1.446,2.956,0,6.888,1.338,9.762,2.32,1.131.383,2.108.72,2.874.925a182.242,182.242,0,0,0,26.458,4.957c2.062.235,4.024.337,5.93.439l1.022.046c2.29.1,4.89.215,6.432,1.17s1.7,2.893,1.816,4.451c.036.43.064.839.119,1.191l.027.194a5.594,5.594,0,0,1-.237,3.659h.474a5.857,5.857,0,0,0,.21-3.684l-.027-.194c-.055-.348-.091-.752-.119-1.181-.119-1.6-.274-3.587-1.934-4.609s-4.361-1.15-6.733-1.252L44.5,238c-1.9-.1-3.85-.205-5.885-.44a181.506,181.506,0,0,1-26.349-4.936c-.739-.2-1.715-.532-2.837-.91-2.92-1-6.916-2.356-10-2.356-1.952,0-3.339.537-4.124,1.6-.994,1.338-.374,2.473,1.934,3.572a36.64,36.64,0,0,0,5.374,1.855c1.3.378,2.646.766,3.878,1.231,9.525,3.593,21.714,7.456,35.254,11.171.255.072.474.128.657.184h1.04c-.5-.138-1.5-.408-1.5-.408Z" transform="translate(0 -11.08)" fill="#ffedb5"/>
      <path id="Path_47" data-name="Path 47" d="M70.589,146.39h-.064a6.9,6.9,0,0,0-3.567,1.594c-.21.144-.392.276-.556.379-.9.577-1.779,1.185-2.619,1.778-.547.383-1.086.761-1.642,1.134l-.064.046c-1.825,1.212-2.564,2-2.272,2.407.082.113.283.256.775.287.073,0,.146.005.219.005h.046a14.021,14.021,0,0,0,8.047-3,8.118,8.118,0,0,0,2.691-3.107c.082-.215.3-.951-.219-1.318a1.377,1.377,0,0,0-.766-.215Zm.538,1.482a7.808,7.808,0,0,1-2.609,3.005,13.4,13.4,0,0,1-7.691,2.892l-.036.128v-.128c-.055,0-.11,0-.164,0-.328-.02-.383-.1-.4-.128-.1-.143-.082-.633,2.2-2.151l.073-.046c.556-.378,1.1-.756,1.651-1.14.839-.587,1.706-1.195,2.609-1.768.164-.1.356-.24.566-.388a6.636,6.636,0,0,1,3.257-1.5.717.717,0,0,1,.429.117c.319.225.265.741.128,1.109Z" transform="translate(-8.312 -6.347)" fill="#ffedb5"/>
      <path id="Path_48" data-name="Path 48" d="M166.844,198.163c12.107-.772,25.089-8.627,25.254-15.28.255-10.2-10.21-18.351-20.337-26.232-1.715-1.338-3.494-2.723-5.173-4.083l-1.013-.817c-4.762-3.843-10.163-8.2-11.924-12.909-1.487-3.991-3.759-13.277-1.286-16.486,1.815-2.351,6.979-3.695,11.97-4.993a49.082,49.082,0,0,0,9-2.907l.109-.057q7.828-3.971,13.165-4.073c1.615-.03,3.622-.071,6.46-.219,3.8-.2,6.049-.511,7.691-.736a19.331,19.331,0,0,1,2.463-.251c1.643,0,3.02.655,7.573,2.811,13.457,6.383,13.2,17.482,12.964,28.219-.31,13.507-.629,27.478,26.669,31.9a71.6,71.6,0,0,0,11.359.961c10.264,0,18.995-2.571,25.263-7.426,9.2-7.129,11.641-18.249,6.076-27.677-12.837-21.76-43.51-34.2-76.5-46.059C186.633,81.07,158.076,78.1,133.652,76.164c-1.77-.138-3.449-.21-5-.21-9.9,0-14.606,2.821-20.564,6.393-2.281,1.37-4.644,2.78-7.573,4.226a66.176,66.176,0,0,1-11.751,3.874c-6.733,1.783-13.092,3.465-15.72,7.211-5.574,7.946,8.12,14.135,20.209,19.6,5.593,2.53,10.875,4.916,13.977,7.3,12.271,9.464,8.6,25.424-2.527,34.392-3.476,2.8-10.136,6.26-17.189,9.93C75.836,174.957,62.6,181.84,60.262,187.62c-1.095,2.719-.812,4.62.876,5.805,1.414.992,3.8,1.472,7.281,1.472,5.739,0,13.95-1.324,22.645-2.724,10.629-1.712,22.682-3.654,32.955-3.654a50.319,50.319,0,0,1,12.4,1.3,67.211,67.211,0,0,1,10.556,3.883c5.355,2.331,10.41,4.533,17.562,4.533.749,0,1.524-.025,2.3-.076Zm-30.227-8.576a51.075,51.075,0,0,0-12.59-1.328c-10.337,0-22.426,1.947-33.082,3.664-8.667,1.395-16.851,2.713-22.526,2.713-3.339,0-5.6-.449-6.916-1.374-1.6-1.119-1.861-2.949-.794-5.586,2.308-5.7,15.492-12.556,27.115-18.606,7.071-3.675,13.749-7.15,17.253-9.971,11.222-9.04,14.908-25.137,2.518-34.689-3.129-2.412-8.439-4.813-14.059-7.353C81.575,111.65,68.017,105.518,73.464,97.75c2.564-3.649,8.841-5.315,15.492-7.073a66.26,66.26,0,0,0,11.86-3.914c2.947-1.451,5.319-2.872,7.609-4.242C114.31,79,118.954,76.21,128.662,76.21c1.532,0,3.193.072,4.935.21,24.369,1.932,52.871,4.9,82.788,15.648C249.3,103.9,279.912,116.311,292.7,137.994c5.52,9.357,3.1,20.385-6.012,27.447-6.177,4.789-14.789,7.318-24.9,7.318a70.187,70.187,0,0,1-11.231-.95c-12.089-1.958-19.744-5.985-23.384-12.3-3.266-5.657-3.1-12.617-2.947-19.348.246-10.793.5-21.953-13.12-28.418-6.5-3.087-6.687-3.138-10.446-2.617-1.624.225-3.86.532-7.628.731-2.819.148-4.826.189-6.432.22q-5.5.108-13.457,4.139l-.109.057a48.434,48.434,0,0,1-8.887,2.866c-5.072,1.319-10.319,2.689-12.2,5.126-2.518,3.266-.237,12.617,1.259,16.639,1.77,4.758,7.2,9.138,11.988,13.006l1.013.818c1.679,1.359,3.458,2.744,5.182,4.083,10.082,7.849,20.51,15.959,20.255,26.078-.165,6.546-12.938,14.268-24.853,15.029-.757.046-1.514.072-2.244.072-7,0-11.989-2.177-17.28-4.477a68.179,68.179,0,0,0-10.648-3.914Z" transform="translate(-18.995 -5.858)" fill="#ffedb5"/>
      <path id="Path_49" data-name="Path 49" d="M380.171,119.469c-.466-.189-1.177-.537-2.081-.981-3.467-1.7-9.278-4.533-13.375-4.533a4.52,4.52,0,0,0-3.558,1.293c-.949,1.073,1.14,3.567,2.527,5.217.338.4.63.752.812,1,.374.516.721.986,1,1.41a65.227,65.227,0,0,1,5.428,8.964c.155.332.3.71.466,1.1.684,1.7,1.523,3.812,3.622,4.849a8.568,8.568,0,0,0,2.354.8,6.367,6.367,0,0,0,1.021.086c2.482,0,4.188-1.579,5.84-3.107.374-.347.766-.71,1.149-1.037l.365-.312c6.286-5.36,10.082-8.6-1.478-13.092-1.122-.44-2.582-1.033-4.106-1.656Zm5.2,14.61-.365.312c-.392.337-.785.695-1.159,1.048-1.587,1.466-3.22,2.984-5.446,2.984a5.266,5.266,0,0,1-.885-.077,7.9,7.9,0,0,1-2.19-.741c-1.989-.981-2.819-3.051-3.485-4.717-.164-.4-.31-.781-.466-1.114a65.3,65.3,0,0,0-5.446-8.989c-.292-.424-.63-.9-1.013-1.415-.192-.256-.484-.608-.821-1.017-1.268-1.508-3.385-4.032-2.527-4.993a3.962,3.962,0,0,1,3.147-1.15c3.923,0,9.653,2.8,13.074,4.472.913.444,1.633.8,2.117,1,1.524.624,2.983,1.222,4.115,1.661,11.194,4.354,7.49,7.512,1.35,12.745Z" transform="translate(-42.62 -5.125)" fill="#ffedb5"/>
      <path id="Path_50" data-name="Path 50" d="M387.652,113.735c-2.016-.823-4.023-1.742-6.149-2.713-6.505-2.975-13.868-6.347-20.491-6.347a18.014,18.014,0,0,0-3.8.393c-11.7,2.479-10.018,9.4-7.983,13.312a72.557,72.557,0,0,0,4.416,7.037,60.615,60.615,0,0,1,5,8.223,24.541,24.541,0,0,1,1.569,5.2c1.177,5.289,2.29,10.282,14.88,10.282.995,0,2.071-.031,3.194-.092a30.875,30.875,0,0,0,3.613-.383,8.425,8.425,0,0,0,5.866-3.465c.456-.521.976-1.109,1.624-1.748a38.39,38.39,0,0,1,3.184-2.79v-.266a41.545,41.545,0,0,0-3.421,2.98c-.648.638-1.168,1.231-1.633,1.752a8.21,8.21,0,0,1-5.7,3.383,28.864,28.864,0,0,1-3.558.379c-1.113.061-2.18.092-3.166.092-12.353,0-13.393-4.7-14.606-10.15a24.85,24.85,0,0,0-1.579-5.217,60.5,60.5,0,0,0-5.018-8.238,70.942,70.942,0,0,1-4.406-7.022c-2.017-3.858-3.677-10.695,7.809-13.128a17.726,17.726,0,0,1,3.7-.383c6.524,0,13.85,3.352,20.319,6.311,2.125.976,4.142,1.9,6.158,2.719,1.524.623,2.865,1.17,3.868,1.558l1.232.476V115.7c-.356-.138-.721-.276-1.077-.414-1-.389-2.344-.936-3.859-1.559Z" transform="translate(-42.62 -5.116)" fill="#ffedb5"/>
      <path id="Path_51" data-name="Path 51" d="M380.444,227.894a142.62,142.62,0,0,1-12.435,9.393c-.2.138-.42.286-.648.434-1.642,1.079-3.686,2.418-2.245,3.772,1.4,1.3,5.383,1.569,8.294,1.758.52.036,1.021.066,1.432.1a110.125,110.125,0,0,1,17.745,2.923v-.169a111.039,111.039,0,0,0-17.708-2.907c-.42-.036-.922-.067-1.442-.1-2.856-.19-6.77-.445-8.093-1.687-1.341-1.257.63-2.55,2.208-3.592.228-.154.457-.3.657-.44a141.573,141.573,0,0,0,12.454-9.408,66.2,66.2,0,0,0,8.759-9.735,17.486,17.486,0,0,1,3.156-3.087v-.255a17.678,17.678,0,0,0-3.412,3.281,65.608,65.608,0,0,1-8.74,9.714Z" transform="translate(-42.62 -11.08)" fill="#ffedb5"/>
      <path id="Path_52" data-name="Path 52" d="M282.831,21.7c1.423,2.7,11.614,4.191,18.11,4.191,9.27,0,18.986-1.022,29.278-2.105,10.391-1.094,21.13-2.223,31.585-2.223,11.46,0,21.076,1.375,29.415,4.2.438.148.912.312,1.368.465v-.3l-1.14-.388C383.035,22.69,373.337,21.3,361.8,21.3c-10.492,0-21.258,1.134-31.668,2.228-10.264,1.083-19.962,2.1-29.2,2.1-6.5,0-16.359-1.523-17.672-4.007q-.657-1.25,1.578-2.622h-.593c-1.4.925-1.879,1.824-1.423,2.693Z" transform="translate(-42.62)" fill="#ffedb5"/>
      <path id="Path_53" data-name="Path 53" d="M359.789,39.416c-1.2,0-2.363-.005-3.512-.01-1.1,0-2.19-.01-3.257-.01a95.184,95.184,0,0,0-16.633,1.114,74.954,74.954,0,0,0-8.12,1.988c-4.315,1.232-8.4,2.4-13.284,2.4-.812,0-1.633-.031-2.436-.1a26.127,26.127,0,0,1-8.9-2.632c-2.929-1.293-5.7-2.514-9.58-2.514-.356,0-.712.01-1.076.031-2.4.138-6.232,1.344-9.945,2.514-2.391.751-4.644,1.462-6.241,1.789-2.326.48-4.069.71-5.337.884-3.832.511-4.315.7-6.186,4.655-.511,1.094-.885,2.116-1.25,3.1-1.341,3.669-2.4,6.567-9.379,9.331-4.707,1.865-10.683,2.77-18.274,2.77a202.723,202.723,0,0,1-22.307-1.661c-3.622-.409-7.053-.792-9.589-.94-1.478-.087-3.759-.143-6.1-.143-6.7,0-14.543,1.375-15.09,3.342-.256.935,1.04,2.336,8.722,3.71l.858.153c29.259,5.259,49.668,12.117,70.434,23.676,5.729,3.189,10.109,4.676,13.767,4.676a12.476,12.476,0,0,0,2.5-.25c3.9-.813,6.733-3.567,10.027-6.756a75.834,75.834,0,0,1,5.9-5.31c11.021-8.7,26.832-15.055,44.523-17.9a96.009,96.009,0,0,1,15.145-1.262c15.756,0,26.878,4.323,37.406,8.769v-.322c-10.51-4.431-21.632-8.7-37.406-8.7A97.033,97.033,0,0,0,339.9,67.083c-17.791,2.857-33.693,9.25-44.769,17.993a76.314,76.314,0,0,0-5.922,5.33c-3.248,3.148-6.049,5.861-9.789,6.643a11.318,11.318,0,0,1-2.345.235c-3.54,0-7.81-1.462-13.448-4.6-20.82-11.59-41.284-18.469-70.616-23.737l-.858-.153c-5.748-1.027-8.731-2.248-8.4-3.424.456-1.635,7.436-3.128,14.643-3.128,2.318,0,4.58.051,6.04.138,2.518.148,5.94.531,9.553.94a203.886,203.886,0,0,0,22.4,1.666c7.682,0,13.749-.92,18.539-2.816,7.126-2.826,8.2-5.77,9.562-9.49.364-.986.729-2,1.249-3.092,1.853-3.94,2.236-3.991,5.849-4.472,1.286-.174,3.038-.4,5.392-.889,1.633-.337,3.9-1.053,6.3-1.809,3.494-1.1,7.463-2.351,9.762-2.484.347-.021.694-.031,1.031-.031,3.723,0,6.432,1.2,9.306,2.458a26.681,26.681,0,0,0,9.124,2.683c.83.066,1.679.1,2.509.1,4.99,0,9.315-1.232,13.484-2.422a75,75,0,0,1,8.038-1.967,94.124,94.124,0,0,1,16.5-1.1c1.067,0,2.144,0,3.248.01,1.149.005,2.317.01,3.512.01a95.723,95.723,0,0,1,15.246,1.114A177.748,177.748,0,0,1,392.589,44.6v-.281c-5.776-1.523-11.542-2.836-17.427-3.777a96.636,96.636,0,0,0-15.373-1.124Z" transform="translate(-42.62)" fill="#ffedb5"/>
      <path id="Path_54" data-name="Path 54" d="M387.87,118.227c-1.058-.414-2.49-1-3.987-1.61-2.144-.879-4.215-1.824-6.423-2.831-.492-.225-1.04-.485-1.615-.756-3.676-1.748-8.713-4.14-13.347-4.14a10.717,10.717,0,0,0-3.522.552c-8.011,2.775-3.193,9.4-.319,13.354.346.48.684.935.958,1.338a62.22,62.22,0,0,1,5.218,8.6c.265.562.529,1.226.8,1.927,1.277,3.209,3.02,7.609,7.408,9.193a8.712,8.712,0,0,0,2.263.486c.228.02.475.025.712.025,5.364,0,10.711-4.563,14.625-7.9.711-.6,1.35-1.15,1.943-1.626v-.265c-.648.516-1.368,1.124-2.171,1.809-3.869,3.306-9.179,7.829-14.4,7.829-.228,0-.447-.01-.675-.026a8.321,8.321,0,0,1-2.154-.46c-4.3-1.548-6.03-5.912-7.289-9.1-.283-.7-.539-1.365-.8-1.932a63.236,63.236,0,0,0-5.228-8.611c-.274-.4-.6-.858-.958-1.339-2.846-3.914-7.6-10.46.21-13.164a10.334,10.334,0,0,1,3.376-.531c4.534,0,9.525,2.371,13.165,4.1.575.276,1.122.532,1.633.767,2.2,1,4.27,1.952,6.423,2.831,1.5.613,2.929,1.2,3.987,1.61,1.423.552,2.865,1.1,4.4,1.681.164.061.319.118.474.179v-.184l-.338-.128c-1.523-.577-2.965-1.124-4.388-1.676Z" transform="translate(-42.62 -5.12)" fill="#ffedb5"/>
      <path id="Path_55" data-name="Path 55" d="M340.447,154.495c.52.378,1.487.894,3.923,1.007,9.115.419,22.9,1.047,34.533,6.985l.137.067a28.509,28.509,0,0,1,9.6,7.655,3.7,3.7,0,0,0,2.947,1.324,4.511,4.511,0,0,0,1-.113v-.184a3.931,3.931,0,0,1-1,.143,3.4,3.4,0,0,1-2.7-1.231,28.787,28.787,0,0,0-9.671-7.707l-.137-.066c-11.7-5.974-25.546-6.608-34.7-7.027-2.326-.107-3.248-.592-3.731-.945a2.736,2.736,0,0,1-1.177-2.565c1.268-3.128,2.846-7.022,2.253-11.279-.994-7.211-6.149-13.409-11.121-19.4-4-4.809-8.522-10.261-6.952-12.745,2.8-4.42,14.242-10.762,19.022-13.282a22.876,22.876,0,0,1,10.748-2.412,32.539,32.539,0,0,1,5.638.506c8.394,1.518,20.273,4.988,33.52,9.756v-.184c-13.2-4.748-25.053-8.207-33.438-9.72a32.662,32.662,0,0,0-5.72-.516,23.222,23.222,0,0,0-10.93,2.458c-4.8,2.53-16.277,8.892-19.1,13.343-1.606,2.545,2.947,8.023,6.961,12.863,4.964,5.979,10.1,12.162,11.1,19.347.593,4.237-.986,8.115-2.245,11.243a2.847,2.847,0,0,0,1.223,2.688Z" transform="translate(-42.62 -5.397)" fill="#ffedb5"/>
      <path id="Path_56" data-name="Path 56" d="M272.877,26.936c7.873,2.77,17.052,4.114,28.055,4.114,10.127,0,20.728-1.114,30.983-2.2,9.982-1.053,20.291-2.136,29.88-2.136s17.782,1.129,24.643,3.455c1.2.4,2.454.833,3.759,1.283q1.162.4,2.381.813v-.419c-.693-.235-1.378-.47-2.053-.7-1.314-.445-2.564-.874-3.759-1.283-6.952-2.361-15.127-3.506-24.971-3.506s-20,1.088-30,2.141c-10.228,1.078-20.793,2.187-30.865,2.187-10.885,0-19.953-1.329-27.718-4.063-5.218-1.835-7.736-3.766-7.49-5.734A3.343,3.343,0,0,1,266.81,19H266.1a3.369,3.369,0,0,0-1,1.865c-.264,2.111,2.354,4.149,7.783,6.061Z" transform="translate(-42.62)" fill="#ffedb5"/>
      <path id="Path_57" data-name="Path 57" d="M357.617,149.865a42.215,42.215,0,0,0,7.682,1.17c2.044.195,4.152.394,5.867.741,1.086.22,2.281.552,3.549.9A32.879,32.879,0,0,0,383,154.219a11.76,11.76,0,0,0,1.5-.092c.128-.015.247-.036.374-.056,3.869-.644,5.931-3.363,7.71-5.856V147.8a.221.221,0,0,1-.037.046c-1.806,2.545-3.85,5.427-7.755,6.081-.118.02-.237.036-.355.051a11.614,11.614,0,0,1-1.433.087,32.468,32.468,0,0,1-8.165-1.528c-1.278-.353-2.482-.685-3.577-.9-1.742-.352-3.868-.552-5.921-.751a42.344,42.344,0,0,1-7.6-1.155c-4.507-1.385-4.033-3.919-3.54-6.6a10.242,10.242,0,0,0,.256-3.128c-1.177-8.5-6.816-15.295-12.272-21.857-2.472-2.979-2.655-6.25-.511-9.2,2.327-3.194,7.2-5.775,13.366-7.078a28.683,28.683,0,0,1,5.958-.613c8.8,0,17.07,3.781,24.36,7.118,2.062.946,4.014,1.835,5.885,2.6.483.2.921.378,1.332.546v-.189c-.365-.148-.757-.306-1.177-.48-1.861-.762-3.814-1.651-5.876-2.6-7.326-3.353-15.638-7.149-24.533-7.149a29.218,29.218,0,0,0-6.049.623c-6.24,1.318-11.167,3.93-13.521,7.165-2.181,2.989-1.989,6.3.52,9.321,5.447,6.556,11.076,13.333,12.244,21.806a10.072,10.072,0,0,1-.256,3.1c-.483,2.616-.985,5.319,3.677,6.75Z" transform="translate(-42.62 -5.143)" fill="#ffedb5"/>
      <path id="Path_58" data-name="Path 58" d="M359.788,44.577c-7.673,0-15.829.777-24.487,1.6-9.735.93-19.808,1.891-30.528,1.891-.775,0-1.542,0-2.272-.015-3.722-.051-6.879-.394-9.661-.695a61.505,61.505,0,0,0-6.487-.491c-4.745,0-8.23,1.4-12.034,4.824a29.239,29.239,0,0,0-4.471,5.535c-2.29,3.378-4.662,6.873-9.89,8.943a54.226,54.226,0,0,1-8.9,1.85c-6.378,1.022-13.6,2.177-14.589,4.589-1.222,3.025,9.863,7.16,15.82,9.383,1.1.414,2.062.772,2.692,1.027,6.989,2.872,12.764,4.783,18.256,4.783a21.405,21.405,0,0,0,2.226-.112c4.38-.439,8.357-2.177,12.518-5.463,12.225-9.648,29.807-16.706,49.5-19.874a112.082,112.082,0,0,1,17.691-1.461c15.738,0,27.389,3.562,37.407,7.527v-.189c-10.018-3.955-21.669-7.492-37.407-7.492a112.514,112.514,0,0,0-17.764,1.472c-19.761,3.174-37.388,10.251-49.65,19.93-4.115,3.25-8.038,4.967-12.344,5.4-.712.072-1.442.107-2.181.107-5.419,0-11.149-1.9-18.092-4.753-.629-.261-1.6-.618-2.7-1.032-5.9-2.2-16.888-6.3-15.711-9.224.949-2.325,8.092-3.465,14.4-4.472a53.273,53.273,0,0,0,8.977-1.87c5.3-2.1,7.682-5.611,9.991-9.009a29.082,29.082,0,0,1,4.443-5.509c3.75-3.378,7.162-4.753,11.8-4.753a60.813,60.813,0,0,1,6.432.486,97.3,97.3,0,0,0,9.707.7c.739.01,1.506.015,2.281.015,10.748,0,20.829-.961,30.591-1.9,8.631-.823,16.779-1.6,24.424-1.6a80.416,80.416,0,0,1,12.764.92,179.041,179.041,0,0,1,20.035,4.574v-.174a179.523,179.523,0,0,0-19.962-4.553,80.851,80.851,0,0,0-12.846-.925Z" transform="translate(-42.62)" fill="#ffedb5"/>
      <path id="Path_59" data-name="Path 59" d="M351.714,152.619q2.805.392,5.456.726c9.543,1.237,17.773,2.31,26.011,6.485l.164.082a10.725,10.725,0,0,0,4.571,1.426,3.813,3.813,0,0,0,.539-.036c1.788-.23,2.682-1.63,3.658-3.434.155-.281.319-.557.474-.833v-.5c-.255.429-.5.864-.739,1.293-.957,1.758-1.815,3.117-3.457,3.332-1.186.153-2.747-.286-4.863-1.36l-.164-.081c-8.294-4.206-16.56-5.279-26.139-6.521-1.761-.23-3.586-.465-5.447-.726-6.688-.94-5.556-4.466-4.462-7.87a10.6,10.6,0,0,0,.794-4.318c-1.086-7.854-6.478-14.35-11.7-20.63-.621-.751-1.287-1.482-1.935-2.193-3.348-3.684-6.249-6.863-2.107-10.777,3.111-2.944,7.782-5.356,12.289-7.686.812-.419,1.624-.838,2.418-1.257a15.31,15.31,0,0,1,7.044-1.38c11.24,0,28.529,6.7,38.474,10.737v-.189c-10-4.053-27.216-10.7-38.474-10.7a15.749,15.749,0,0,0-7.235,1.421c-.794.419-1.606.838-2.418,1.257-4.525,2.341-9.206,4.758-12.344,7.722-4.215,3.986-1.15,7.359,2.1,10.926.648.71,1.314,1.441,1.934,2.192,5.2,6.271,10.593,12.751,11.669,20.58a10.612,10.612,0,0,1-.793,4.277c-1.114,3.475-2.272,7.073,4.671,8.049Z" transform="translate(-42.62 -5.189)" fill="#ffedb5"/>
      <path id="Path_60" data-name="Path 60" d="M159.709,226.213c-2.308,1.952-5.182,4.375-4.187,6.051.4.685,1.423,1.2,3.029,1.518a5.053,5.053,0,0,0,.994.092c3.522,0,9.106-3.051,14.032-5.739,3.13-1.712,6.1-3.327,7.874-3.782,8.5-2.162,20.236-3.189,30.582-4.1,4.087-.358,7.947-.7,11.5-1.089a215.444,215.444,0,0,1,23.3-1.344c24.032,0,44.2,4.845,59.97,14.4,1.77,1.073,4.333,1.615,7.645,1.615,10.292,0,27.946-5.612,40.372-16.011,7.436-6.219,18.238-18.939,7.007-34.214-4.5-6.122-11.186-8.973-21.048-8.973-7.5,0-16.058,1.543-25.966,3.332-12.189,2.2-26.011,4.7-40.882,4.7a112.021,112.021,0,0,1-32.5-4.569c-31.75-9.484-32.671-26.783-29.934-40.795,1.067-5.448-.666-9.761-5-12.475-3.065-1.916-7.235-2.928-12.07-2.928-9.16,0-20.592,3.981-24.716,11.6-3.878,7.164,5.319,13.68,15.966,21.223,12.016,8.5,25.628,18.141,22.982,31a27.038,27.038,0,0,1-11.121,16.368c-4.288,2.939-8.074,3.2-12.089,3.475a34.771,34.771,0,0,0-9.945,1.748c-2.837,1.007-3.722,2.724-4.662,4.538a9.955,9.955,0,0,1-2.682,3.608,7.115,7.115,0,0,1-3.421.843c-1.816.179-3.878.378-4.964,1.692-.757.914.247,1.993,1.214,3.035.812.869,1.642,1.768,1.4,2.514a10.451,10.451,0,0,1-2.646,2.668Zm1.725-5.32c-.949-1.022-1.852-1.993-1.205-2.775.977-1.175,2.811-1.354,4.581-1.528a7.681,7.681,0,0,0,3.758-.96,10.242,10.242,0,0,0,2.765-3.7c.912-1.763,1.779-3.424,4.443-4.369a34.192,34.192,0,0,1,9.726-1.707c4.124-.286,8.01-.552,12.435-3.583a27.33,27.33,0,0,0,11.24-16.521c2.664-12.986-11.021-22.675-23.091-31.224-10.556-7.477-19.68-13.936-15.875-20.953,4.051-7.476,15.245-11.385,24.214-11.385,4.68,0,8.722.976,11.678,2.826,4.233,2.647,5.921,6.878,4.872,12.244-2.756,14.1-1.816,31.52,30.208,41.087a112.865,112.865,0,0,0,32.754,4.6c14.953,0,28.812-2.5,41.037-4.711,9.863-1.784,18.384-3.322,25.8-3.322,9.753,0,16.094,2.713,20.564,8.79,11.14,15.152.42,27.764-6.952,33.937-11.888,9.94-29.642,15.883-39.943,15.883-3.147,0-5.593-.511-7.253-1.518-15.866-9.612-36.175-14.487-60.353-14.487a215.887,215.887,0,0,0-23.4,1.349c-3.55.388-7.409.725-11.487,1.083-10.383.91-22.143,1.942-30.719,4.119-1.861.475-4.717,2.034-8.02,3.838-4.853,2.652-10.355,5.657-13.667,5.657a4.451,4.451,0,0,1-.812-.072c-1.46-.3-2.345-.73-2.7-1.333-.913-1.539,1.879-3.9,4.123-5.8,1.351-1.14,2.509-2.121,2.728-2.775.283-.849-.593-1.789-1.441-2.7Z" transform="translate(-42.62 -11.08)" fill="#ffedb5"/>
      <path id="Path_61" data-name="Path 61" d="M103.07,227.056c4.114-2.085,10.629-3.909,18.174-6.025,5.264-1.477,12.344-5.105,11.915-8.074-.228-1.62-2.563-2.836-6.925-3.6a33.069,33.069,0,0,0-5.738-.45c-5.584,0-11.879,1.038-17.426,1.958-2.537.419-4.927.812-7.117,1.093C77.6,214.291,66.512,215.7,56.576,215.7a97.022,97.022,0,0,1-26.613-3.807c-9.726-2.6-16.778-5.049-22.444-7.011-8.339-2.893-12.226-4.17-17.152-4.17a48.454,48.454,0,0,0-8.339.873v.266a48.343,48.343,0,0,1,8.339-.889c4.808,0,8.658,1.267,16.924,4.134,5.675,1.968,12.727,4.415,22.48,7.027a97.621,97.621,0,0,0,26.814,3.833c9.981,0,21.085-1.411,39.478-3.751,2.2-.281,4.6-.675,7.144-1.094,5.519-.91,11.778-1.942,17.3-1.942a31.9,31.9,0,0,1,5.6.44c4.169.735,6.386,1.875,6.605,3.383.411,2.856-6.514,6.377-11.669,7.824-7.572,2.125-14.114,3.96-18.274,6.065-12.554,6.358-10.529,14.657-6.724,22.108h.474c-3.8-7.4-5.839-15.643,6.551-21.918Z" transform="translate(0 -11.08)" fill="#ffedb5"/>
      <path id="Path_62" data-name="Path 62" d="M380.216,191.335a17.415,17.415,0,0,0,5.356.649,42.207,42.207,0,0,0,7.006-.628v-.374a41.2,41.2,0,0,1-7.006.644,16.672,16.672,0,0,1-5.018-.592c-5.356-1.917-7.728-5.3-10.237-8.887-2.162-3.092-4.407-6.291-8.749-8.545v-.107h-.2c-5-2.468-11.724-3.669-20.574-3.669a198.288,198.288,0,0,0-25,2.09,114.373,114.373,0,0,1-12.062,1.185c-1.624,0-2.618-.189-3.029-.572-.547-.511-.137-1.477,1.214-2.857,6.3-6.449,19.04-21.821,18.156-28.183-.694-5.018-5-10.205-9.17-15.218-6.03-7.262-12.262-14.764-7.727-21.939,5.182-8.182,28-22.807,44.231-24.044.949-.072,1.97-.107,3.038-.107,10.565,0,26.011,3.526,42.114,8.631v-.383c-16.112-5.095-31.549-8.606-42.114-8.606-1.1,0-2.144.036-3.12.112-16.441,1.257-39.524,16.021-44.751,24.279-4.626,7.308,1.669,14.882,7.745,22.21,4.143,4.982,8.421,10.139,9.106,15.1.784,5.672-10.319,20.047-18.074,27.984-1.505,1.543-1.9,2.565-1.2,3.214.529.506,1.706.746,3.576.746a114.625,114.625,0,0,0,12.2-1.2,200.4,200.4,0,0,1,24.862-2.085c8.558,0,15.364,1.186,20.245,3.624,4.3,2.2,6.524,5.386,8.686,8.462,2.545,3.639,4.954,7.078,10.492,9.056Z" transform="translate(-42.62 -5.719)" fill="#ffedb5"/>
      <path id="Path_63" data-name="Path 63" d="M374.9,214.669a59.855,59.855,0,0,1-7.573,8.5c-16.814,14.651-35.563,17.119-55.416,19.73-1.515.2-3.1.389-4.635.573-6.615.787-13.448,1.6-19.023,3.628a19.484,19.484,0,0,0-4.005,1.876h.593a20.768,20.768,0,0,1,3.659-1.661c5.5-2,12.3-2.811,18.867-3.593,1.542-.184,3.13-.373,4.644-.572,19.935-2.627,38.775-5.105,55.69-19.844a59.49,59.49,0,0,0,7.619-8.544c3.841-4.906,8.2-10.461,14.214-12.321,1.068-.225,2.08-.424,3.056-.6v-.266c-1.03.184-2.107.394-3.238.634C383.163,204.121,378.774,209.722,374.9,214.669Z" transform="translate(-42.62 -11.08)" fill="#ffedb5"/>
      <path id="Path_64" data-name="Path 64" d="M280.049,243.43a256.873,256.873,0,0,1,29.9-5.208c18.9-2.488,35.226-4.64,50.161-17.651a55.747,55.747,0,0,0,6.934-7.834c4.744-6.061,9.653-12.326,18.767-14.912,2.454-.531,4.69-.945,6.779-1.252v-.368c-2.171.317-4.507.746-7.071,1.3-9.306,2.642-14.26,8.968-19.059,15.085a55.6,55.6,0,0,1-6.888,7.783c-14.808,12.894-31.011,15.03-49.778,17.5a258,258,0,0,0-30.008,5.228c-7.034,1.758-11.733,3.792-13.685,5.872h.712c1.961-1.948,6.505-3.864,13.229-5.545Z" transform="translate(-42.62 -11.08)" fill="#ffedb5"/>
      <path id="Path_65" data-name="Path 65" d="M282.156,231.206c-1.688-2.995-9.1-5.233-22-6.649a238.4,238.4,0,0,0-25.819-1.405,245.048,245.048,0,0,0-38.192,3.02c-1.715.271-3.43.567-5.109.879-21.833,4.058-34.432,10.824-40.089,21.923h.666c5.629-10.915,18.092-17.579,39.624-21.58,1.669-.312,3.385-.6,5.082-.874a243.9,243.9,0,0,1,38.008-3.005,236.233,236.233,0,0,1,25.7,1.4c12.663,1.39,19.9,3.541,21.513,6.4,1.241,2.193-.812,4.865-6.1,7.952-5.465,3.189-10.984,6.413-15.948,9.71h.84c4.863-3.21,10.236-6.353,15.565-9.46,5.455-3.183,7.554-5.979,6.24-8.3Z" transform="translate(-25.806 -11.08)" fill="#ffedb5"/>
      <path id="Path_66" data-name="Path 66" d="M231.539,202.777a3.966,3.966,0,0,0,1.195.174,10.145,10.145,0,0,0,4.626-1.671,11.088,11.088,0,0,1,2.217-1.053,8.964,8.964,0,0,1,2.345-.327,13.22,13.22,0,0,1,4.1.838c.511.159,1.04.327,1.606.486a14.98,14.98,0,0,0,4.069.557,29.467,29.467,0,0,0,4.024-.363,35.271,35.271,0,0,1,4.58-.414h.219a32.007,32.007,0,0,1,9.716,1.978,31.808,31.808,0,0,0,9.653,1.967,17.551,17.551,0,0,0,4.845-.68,20.168,20.168,0,0,0,3.138-1.221,9.972,9.972,0,0,1,4.7-1.216,14.727,14.727,0,0,1,1.97.143c5.858.777,8.44,3.792,10.93,6.71a24.2,24.2,0,0,0,3.9,3.909,18.723,18.723,0,0,0,11.1,3.511h.209a19.142,19.142,0,0,0,11.131-3.577c4.151-3.072,11.7-13.083,8.567-18.065-.921-1.472-2.7-2.4-5.273-2.765a18.416,18.416,0,0,0-2.582-.194,20.549,20.549,0,0,0-6.971,1.441c-.52.174-1.058.353-1.624.531-4.68,1.482-9.315,1.789-14.232,2.116-1.925.128-3.924.261-5.94.465a55.051,55.051,0,0,0-6.222,1.094,35.5,35.5,0,0,1-7.673,1.083,20.091,20.091,0,0,1-5.392-.746,45.911,45.911,0,0,0-12.381-1.993,33.463,33.463,0,0,0-4.5.3c-.693.092-1.377.189-2.043.286a53.9,53.9,0,0,1-7.6.725,23.106,23.106,0,0,1-5.849-.725l-.8-.21a42.812,42.812,0,0,0-10.657-1.814,18.91,18.91,0,0,0-5.684.838c-2.281.71-5.337,3.695-5.337,5.775,0,.981.675,1.707,1.934,2.1Zm3.631-7.65a18.136,18.136,0,0,1,5.465-.807,42.108,42.108,0,0,1,10.465,1.793l.8.21a24,24,0,0,0,6.04.746,54.323,54.323,0,0,0,7.709-.736c.666-.1,1.341-.194,2.035-.286a32.709,32.709,0,0,1,4.388-.3,45.25,45.25,0,0,1,12.18,1.967,20.732,20.732,0,0,0,5.593.772,35.993,35.993,0,0,0,7.837-1.1,55.43,55.43,0,0,1,6.14-1.084c2.007-.2,3.987-.337,5.912-.465,4.954-.327,9.644-.638,14.4-2.146.566-.179,1.113-.363,1.633-.536a20.013,20.013,0,0,1,6.733-1.406,17.62,17.62,0,0,1,2.464.184c2.417.343,4.087,1.216,4.954,2.6,3.074,4.9-4.4,14.79-8.5,17.825a18.534,18.534,0,0,1-10.775,3.475h-.2a18.107,18.107,0,0,1-10.738-3.408,23.858,23.858,0,0,1-3.851-3.864c-2.536-2.974-5.164-6.045-11.24-6.848a15.382,15.382,0,0,0-2.071-.148,10.6,10.6,0,0,0-4.99,1.273,20.279,20.279,0,0,1-3.057,1.19,16.65,16.65,0,0,1-4.635.654,30.664,30.664,0,0,1-9.424-1.936,32.369,32.369,0,0,0-9.936-2.014h-.228a36.541,36.541,0,0,0-4.68.424,28.261,28.261,0,0,1-3.914.358,14.194,14.194,0,0,1-3.869-.531c-.556-.154-1.076-.317-1.578-.476a13.971,13.971,0,0,0-4.325-.868,9.8,9.8,0,0,0-2.545.352,11.318,11.318,0,0,0-2.336,1.1,9.707,9.707,0,0,1-4.3,1.594,3.2,3.2,0,0,1-.967-.143c-1.122-.347-1.7-.976-1.7-1.875,0-2.111,3.175-4.957,5.1-5.555Z" transform="translate(-42.62 -11.08)" fill="#ffedb5"/>
      <path id="Path_67" data-name="Path 67" d="M172.692,220.842a23.787,23.787,0,0,0,2.965.128c2.773,0,13.074-.23,29.141-3.2a251.216,251.216,0,0,1,44.222-3.853c24.834,0,41.329,2.085,62.578,13.475a12.779,12.779,0,0,0,6,1.217c9.233,0,23.2-5.632,31.8-12.822,6.715-5.616,16.477-17.084,6.4-30.795-4.343-5.9-9.79-6.715-15.027-6.715-6.478,0-14.579,1.462-23.968,3.158-12.645,2.285-26.987,4.871-42.88,4.871a122.543,122.543,0,0,1-35.564-5c-35.591-10.63-36.075-30.437-33.337-44.409.848-4.328-.356-7.752-3.376-9.638a13.563,13.563,0,0,0-7.226-1.712c-6.761,0-15.282,3.092-18.484,9-2.893,5.341,5.328,11.161,14.844,17.9,12.161,8.611,27.3,19.327,24.341,33.687a26.307,26.307,0,0,1-5.82,11.621,58.376,58.376,0,0,1-18.886,14.447,116.273,116.273,0,0,1-13.95,5.626c-3.4,1.186-5.456,1.9-5.31,2.443C171.214,220.52,171.706,220.7,172.692,220.842Zm3.914-2.877a116.673,116.673,0,0,0,13.986-5.642,58.669,58.669,0,0,0,18.959-14.493,26.345,26.345,0,0,0,5.848-11.666c2.965-14.422-12.207-25.169-24.4-33.8-9.471-6.705-17.645-12.495-14.8-17.758,3.166-5.842,11.56-8.9,18.22-8.9a13.2,13.2,0,0,1,7.025,1.66c2.974,1.855,4.142,5.238,3.312,9.521-2.737,14.017-2.254,33.886,33.483,44.562a122.925,122.925,0,0,0,35.692,5.018c15.939,0,30.3-2.591,42.972-4.88,9.361-1.692,17.435-3.148,23.876-3.148,5.146,0,10.492.8,14.771,6.618,10.027,13.644.311,25.061-6.368,30.651-8.4,7.032-22.572,12.751-31.567,12.751a12.378,12.378,0,0,1-5.821-1.176,105.367,105.367,0,0,0-30.163-11.048c-8.85-1.733-18.6-2.474-32.617-2.474a251.718,251.718,0,0,0-44.313,3.859c-16.021,2.964-26.285,3.194-29.049,3.194a23.4,23.4,0,0,1-2.892-.128q-1.26-.185-1.342-.445c-.118-.444,2.108-1.216,5.183-2.289Z" transform="translate(-42.62 -11.08)" fill="#ffedb5"/>
      <path id="Path_68" data-name="Path 68" d="M194.415,129.076c-4.891,0-10.264,2.77-12.025,5.259-1.168,1.65-.274,4.466,2.381,7.542,2.5,2.9,5.839,5.126,8.3,5.54a7.058,7.058,0,0,0,1.122.1,6.411,6.411,0,0,0,1.213-.117c3.175-.619,3.1-1.712,2.947-4.1a22.314,22.314,0,0,1,.31-6.25c.73-3.715-.31-6.546-1.715-7.42a4.356,4.356,0,0,0-2.536-.542Zm3.8,7.936a22.267,22.267,0,0,0-.31,6.291c.155,2.4.219,3.3-2.646,3.853a5.822,5.822,0,0,1-2.062.021c-2.345-.394-5.565-2.565-8.019-5.407-2.6-3.01-3.486-5.754-2.363-7.338,1.706-2.412,6.888-5.1,11.6-5.1a3.84,3.84,0,0,1,2.2.454c1.333.833,2.318,3.583,1.6,7.221Z" transform="translate(-21.645 -5.765)" fill="#ffedb5"/>
      <path id="Path_69" data-name="Path 69" d="M304.855,203.135c.995.225,1.579.409,2.318.639.292.092.6.189.976.3a68.907,68.907,0,0,1,9.114,3.322,7.552,7.552,0,0,0,3.121.879,3.508,3.508,0,0,0,2.573-1.155,13.332,13.332,0,0,0,3.895-6.582.972.972,0,0,0-.392-1.186c-.657-.439-1.962-.516-3.877-.219-5.785.9-9.681,1.308-14.616,1.834-.867.092-1.752.184-2.692.286s-1.669.481-1.742.915c-.037.194.027.675,1.332.966Zm.511-1.589c.931-.1,1.825-.2,2.683-.287,4.945-.526,8.859-.94,14.661-1.839a12.267,12.267,0,0,1,1.861-.169,2.747,2.747,0,0,1,1.469.291.77.77,0,0,1,.274.946,13.084,13.084,0,0,1-3.832,6.485,2.952,2.952,0,0,1-2.117,1.006,6.9,6.9,0,0,1-2.782-.807,69.485,69.485,0,0,0-9.206-3.357c-.365-.113-.684-.21-.967-.3-.757-.235-1.35-.424-2.381-.654-.684-.153-1.049-.4-1-.664.055-.3.611-.578,1.323-.655Z" transform="translate(-35.389 -9.035)" fill="#ffedb5"/>
      <path id="Path_70" data-name="Path 70" d="M221.065,208.516c.84,0,1.871-.041,3.157-.123.557-.035,13.795-.863,28-.863,5.538,0,10.474.128,14.671.383,20.975,1.262,39.131,6.868,47.817,11.861a11.213,11.213,0,0,0,5.675,1.385c4.862,0,10.848-2.371,16.431-6.5,9.781-7.237,12.737-21.091,7.892-26.543a6.733,6.733,0,0,0-5.2-2.213c-.174,0-.356,0-.539.015-3.832.22-9.16,1.094-15.893,2.2-12.618,2.075-29.9,4.911-48.638,5.079-16.012.149-34.313-3.4-40.536-5.1a17.7,17.7,0,0,0-4.26-.8c-1.862,0-1.935.986-2.071,2.627a11.614,11.614,0,0,1-1.387,5.12,54.477,54.477,0,0,1-6.1,8.555c-1.888,2.274-3.038,3.644-2.226,4.359.447.394,1.442.567,3.211.567Zm-.739-4.86a54.447,54.447,0,0,0,6.113-8.575,11.816,11.816,0,0,0,1.4-5.161c.128-1.6.2-2.479,1.8-2.479a17.821,17.821,0,0,1,4.142.787,179.25,179.25,0,0,0,39.724,5.121h.939c18.777-.169,36.075-3.01,48.711-5.09,6.724-1.1,12.034-1.978,15.848-2.2a6.439,6.439,0,0,1,5.456,2.111c4.808,5.417,1.861,19.184-7.865,26.379-5.529,4.094-11.441,6.439-16.213,6.439a10.812,10.812,0,0,1-5.474-1.339c-8.722-5.013-26.932-10.634-47.98-11.9-4.206-.256-9.151-.384-14.7-.384-14.214,0-27.471.833-28.027.864-1.277.082-2.3.123-3.13.123-1.651,0-2.6-.159-2.983-.5-.73-.639.392-1.983,2.244-4.211Z" transform="translate(-42.62 -11.08)" fill="#ffedb5"/>
      <path id="Path_71" data-name="Path 71" d="M200.647,214.373a16.883,16.883,0,0,0,3.065-.343c12.773-2.483,27.59-3.69,45.3-3.69,22.052,0,43.9,1.13,68.728,14.805a5.75,5.75,0,0,0,2.782.593c6.943,0,19.771-7.451,23.576-11.943q.519-.613,1.122-1.3c4.844-5.56,12.946-14.871,4.662-26.134-3.312-4.5-6.4-4.5-9.124-4.5-5.474,0-13.137,1.385-22.006,2.984-13.092,2.366-27.936,5.044-44.833,5.044-14.461,0-26.157-1.487-37.945-4.824-1.824-.516-3.576-1.084-5.127-1.579-3.1-1-5.547-1.784-7.126-1.784-1.231,0-1.833.481-1.861,1.472a4.988,4.988,0,0,0,.1.761c1.687,9.7-5.018,18.755-19.926,26.917-2.6,1.425-3.705,2.447-3.276,3.04C198.986,214.209,199.643,214.373,200.647,214.373Zm1.578-3.414c9.589-5.248,15.875-10.941,18.676-16.926a15.959,15.959,0,0,0,1.332-10.113,4.9,4.9,0,0,1-.1-.746c.027-1.18.921-1.318,1.587-1.318,1.506,0,4.051.817,6.989,1.763,1.551.5,3.312,1.063,5.146,1.584,11.824,3.347,23.557,4.844,38.063,4.844,16.943,0,31.8-2.682,44.925-5.054,8.85-1.6,16.5-2.979,21.924-2.979,2.636,0,5.629,0,8.868,4.4,8.229,11.2.164,20.467-4.662,26.007-.4.459-.776.889-1.123,1.3-3.777,4.461-16.477,11.856-23.329,11.856a5.377,5.377,0,0,1-2.591-.547,113.913,113.913,0,0,0-36.494-12.72c-11.605-1.967-22.38-2.131-32.425-2.131-17.736,0-32.58,1.211-45.39,3.7a16.4,16.4,0,0,1-2.974.332c-.621,0-1.4-.066-1.633-.383-.219-.3-.091-1.068,3.211-2.872Z" transform="translate(-42.62 -11.08)" fill="#ffedb5"/>
      <path id="Path_72" data-name="Path 72" d="M151.616,19.01h-.666a31.772,31.772,0,0,0-2.965,9.086c-1.013,5.764-1.907,13.312.2,20.584,1.533,5.3,4.616,7.666,9.99,7.666,3.431,0,7.418-.93,12.043-2.014,3.212-.751,6.533-1.523,10.073-2.085.337-.056.675-.107,1.021-.158a141.825,141.825,0,0,1,33.566-.634c3.239.3,6.523.8,9.708,1.293a112.188,112.188,0,0,0,14.287,1.579,20.9,20.9,0,0,0,5.839-.455c3.878-1.083,1.989-3.787,0-6.648-1.177-1.692-2.4-3.444-2.6-5.013-1.068-8.34,7.253-15.939,18.247-23.2h-.839c-10.912,7.247-19.114,14.851-18.038,23.226.21,1.625,1.442,3.4,2.646,5.121,1.971,2.826,3.668,5.264.31,6.2a20.291,20.291,0,0,1-5.528.419,110.677,110.677,0,0,1-14.142-1.564c-3.193-.5-6.5-1.007-9.771-1.3a143.213,143.213,0,0,0-33.83.644c-.347.051-.685.1-1.031.158-3.586.567-6.925,1.349-10.146,2.1-4.553,1.063-8.494,1.983-11.8,1.983-5,0-7.892-2.274-9.36-7.369-2.1-7.236-1.205-14.754-.2-20.492a31.69,31.69,0,0,1,3-9.122Z" transform="translate(-23.652)" fill="#ffedb5"/>
      <path id="Path_73" data-name="Path 73" d="M143.433,162.017a3.69,3.69,0,0,0-1.67-.46c-1.277,0-2.171.91-3.521,2.285A30.754,30.754,0,0,1,131.6,169.2l-.977.578c-3.8,2.258-5.547,3.291-5.118,3.848.192.25.785.363,1.907.363.958,0,2.363-.077,4.708-.261.967-.077,1.952-.112,2.928-.112,7.91,0,14.507,2.483,19.324,4.3,2.819,1.063,5.045,1.9,6.642,1.9a2.73,2.73,0,0,0,1.624-.444C167.692,175.733,150.02,165.365,143.433,162.017Zm18.849,17.2a2.076,2.076,0,0,1-1.268.348c-1.46,0-3.631-.818-6.387-1.86-4.862-1.835-11.523-4.344-19.579-4.344-.994,0-2.007.041-2.992.118-2.318.184-3.714.26-4.644.26-.876,0-1.378-.071-1.487-.209-.31-.4,1.815-1.661,5.036-3.572l.976-.578a30.7,30.7,0,0,0,6.706-5.407c1.277-1.3,2.117-2.151,3.129-2.151a3.055,3.055,0,0,1,1.36.393C151.316,166.366,166.762,175.994,162.282,179.213Z" transform="translate(-16.411 -7.459)" fill="#ffedb5"/>
      <path id="Path_74" data-name="Path 74" d="M143.56,166.279c-3.194,0-7.308,2.821-7.327,4.16,0,.547.6.869,1.67.879,4.708.046,9.68,1.717,13.311,2.939a19.529,19.529,0,0,0,4.626,1.246,1.329,1.329,0,0,0,.693-.153.545.545,0,0,0,.256-.593c-.338-2.458-8.668-7.379-12.043-8.324a4.278,4.278,0,0,0-1.177-.149Zm12.59,8.5c.028.215-.045.3-.091.322a.406.406,0,0,1-.228.041,20.458,20.458,0,0,1-4.3-1.2c-3.695-1.242-8.75-2.938-13.622-2.984-.721-.006-1.04-.169-1.04-.522.018-1.2,3.841-3.807,6.688-3.807a3.221,3.221,0,0,1,.894.113c3.64,1.016,11.386,5.8,11.7,8.028Z" transform="translate(-16.853 -7.391)" fill="#ffedb5"/>
      <path id="Path_75" data-name="Path 75" d="M132.275,119.929c.784,0,1.414-.624,2.025-2.019,2.29-5.217,9.854-12.121,21.6-15.791a125.38,125.38,0,0,1,24.068-5.2c2.117-.255,3.175-.388,3.43-.7.1-.118.064-.261-.091-.424-.821-.838-15.547-5.453-36.722-6.413l-.894-.041c-1.907-.087-3.559-.163-5.137-.163-5.529,0-9.981.864-20.382,5.785-1.642.777-3.321,1.5-4.945,2.2-5.027,2.162-9.37,4.022-9.087,6.143.219,1.625,3.093,3.24,9.041,5.074,6.588,2.034,10.6,6.072,13.257,8.739,1.688,1.692,2.792,2.811,3.85,2.811ZM115.3,108.247c-5.784-1.784-8.695-3.4-8.9-4.952-.273-2.034,4.015-3.874,8.987-6,1.624-.7,3.312-1.421,4.954-2.2,10.328-4.891,14.744-5.749,20.2-5.749,1.569,0,3.211.077,5.118.163l.894.041c20.692.935,35.728,5.535,36.5,6.332.156.164.128.24.083.286-.2.24-1.342.383-3.239.613a126.184,126.184,0,0,0-24.141,5.212c-11.815,3.695-19.433,10.645-21.733,15.894-.565,1.277-1.14,1.9-1.76,1.9-.9,0-2.09-1.206-3.613-2.729-2.674-2.683-6.706-6.746-13.366-8.8Z" transform="translate(-15.874 -3.903)" fill="#ffedb5"/>
      <path id="Path_76" data-name="Path 76" d="M134,128.7c.794,0,1.341-.531,1.725-1.676,2.372-7.037,7.508-17,24.67-22.317a121.929,121.929,0,0,1,18.311-3.981,22.476,22.476,0,0,0,4.388-1.328,17.012,17.012,0,0,1,5.657-1.451,5.837,5.837,0,0,1,.611.031,7.94,7.94,0,0,1,2.5.746,6.258,6.258,0,0,0,2.673.695,5.66,5.66,0,0,0,1.268-.148,3.276,3.276,0,0,0,1.551-.823,3.11,3.11,0,0,1,2.61-.807,5.134,5.134,0,0,1,3.248,1.426,6.461,6.461,0,0,0,2.153,1.273,10.964,10.964,0,0,0,2.892.424,2.725,2.725,0,0,0,1.542-.322.619.619,0,0,0,.146-.858c-.6-1.206-5.21-2.33-8.266-3.076-.9-.22-1.679-.409-2.181-.557-4.543-1.349-9.078-2.489-12.91-3.429a269.074,269.074,0,0,0-45.061-7.39c-1.6-.112-2.974-.169-4.224-.169-6.97,0-12.372,1.707-23.119,7.308-2.637,1.375-5.356,2.555-7.974,3.695-5.876,2.555-10.52,4.574-10.41,7.114.091,2,3.193,4.139,9.78,6.72,10.6,4.155,17.636,10.466,22.3,14.641,2.874,2.571,4.763,4.272,6.14,4.272Zm-28.283-19.041c-6.5-2.55-9.58-4.65-9.662-6.6-.109-2.464,4.489-4.462,10.31-6.991,2.627-1.145,5.346-2.325,7.992-3.705,10.693-5.57,16.048-7.267,22.937-7.267,1.241,0,2.609.056,4.187.169a268.119,268.119,0,0,1,44.98,7.379c3.832.94,8.357,2.08,12.891,3.424.511.153,1.3.342,2.2.562,3,.731,7.545,1.84,8.111,2.974.155.317.128.562-.1.726a2.581,2.581,0,0,1-1.323.26,10.47,10.47,0,0,1-2.756-.409,6.238,6.238,0,0,1-2.062-1.226,5.476,5.476,0,0,0-3.448-1.492,3.412,3.412,0,0,0-2.856.879,3.07,3.07,0,0,1-1.423.767,5.378,5.378,0,0,1-1.168.138,6.051,6.051,0,0,1-2.509-.659,8.14,8.14,0,0,0-2.619-.772c-.209-.02-.437-.031-.656-.031a17.33,17.33,0,0,0-5.8,1.477,21.736,21.736,0,0,1-4.3,1.308,121.909,121.909,0,0,0-18.375,4c-17.262,5.345-22.426,15.357-24.807,22.424-.356,1.043-.83,1.554-1.46,1.554-1.232,0-3.193-1.763-5.912-4.2-4.671-4.185-11.724-10.512-22.371-14.687Z" transform="translate(-16.365 -3.924)" fill="#ffedb5"/>
      <path id="Path_77" data-name="Path 77" d="M167.7,192.822c6.241-.4,12.116-2.8,14.981-6.117,2.61-3.03,4.024-8.171-4.078-15.448-3.476-3.128-7.271-6.281-10.939-9.332-10.492-8.723-20.4-16.966-24.5-25.234-4.626-9.352-.912-17.069,11.7-24.279,10.921-6.245,25.346-9.828,39.588-9.828,10.7,0,20.254,2.111,26.887,5.939,7.289,4.2,10.939,10.363,10.537,17.8-.091,1.727-.237,3.511-.392,5.4-.547,6.715-1.177,14.325.757,20.656,2.227,7.283,7.509,11.78,16.14,13.752a58.844,58.844,0,0,0,13.028,1.59c7.308,0,13.531-1.789,17.992-5.167,7.582-5.749,9.4-15.592,4.525-24.494-10.464-19.1-35.627-30.5-72.824-42.717-28.256-9.275-52.123-12.137-73.7-13.849-1.606-.128-3.139-.194-4.553-.194-9.014,0-13.3,2.57-18.73,5.826-2.09,1.252-4.243,2.54-6.925,3.863a66.165,66.165,0,0,1-8.138,3.26c-3.8,1.308-7.08,2.438-10.7,5.463-7.171,6,2.427,9.69,12.581,13.589,5.365,2.059,10.921,4.19,13.9,6.715,18.685,15.857,11.149,32.772-2.144,43.315-3.795,3.015-9.342,5.861-15.218,8.871-7.18,3.685-14.607,7.492-18.849,11.749-1.825,1.829-2.345,3.071-1.587,3.8.556.531,1.788.787,3.75.787,3.5,0,9.069-.813,15.519-1.758,9.042-1.319,20.291-2.964,30.236-2.964a55.6,55.6,0,0,1,13.421,1.395,61.644,61.644,0,0,1,9.652,3.552c4.881,2.126,9.48,4.129,15.994,4.129.684,0,1.387-.021,2.089-.067Zm-27.626-7.752a55.026,55.026,0,0,0-13.53-1.41c-9.972,0-21.249,1.645-30.3,2.969-6.432.94-11.979,1.747-15.455,1.753-1.861,0-3.011-.236-3.522-.716-.7-.674-.182-1.865,1.588-3.644,4.224-4.231,11.633-8.033,18.8-11.707,5.884-3.02,11.441-5.867,15.254-8.9,7.792-6.179,12.39-13.226,13.293-20.38,1.04-8.177-2.709-15.955-11.149-23.109-3-2.545-8.576-4.686-13.968-6.756-10.045-3.858-19.533-7.5-12.508-13.379,3.576-3,6.843-4.119,10.611-5.417a65.718,65.718,0,0,0,8.174-3.276c2.692-1.324,4.854-2.621,6.943-3.874,5.383-3.225,9.644-5.775,18.53-5.775,1.4,0,2.92.066,4.516.189,21.55,1.712,45.39,4.569,73.6,13.829,37.142,12.188,62.259,23.574,72.7,42.625,4.853,8.861,3.056,18.648-4.48,24.361-4.407,3.337-10.547,5.1-17.773,5.1a58.465,58.465,0,0,1-12.919-1.579c-8.539-1.952-13.767-6.408-15.975-13.634-1.934-6.317-1.3-13.921-.757-20.626.155-1.89.3-3.674.392-5.4.4-7.482-3.266-13.675-10.611-17.912-6.687-3.858-16.3-5.984-27.078-5.984-14.315,0-28.822,3.6-39.788,9.873-6.7,3.833-10.83,7.783-12.646,12.086-1.614,3.843-1.332,7.875.876,12.341,4.106,8.295,14.023,16.543,24.534,25.281,3.667,3.051,7.463,6.2,10.939,9.327,8.038,7.22,6.642,12.305,4.06,15.3-2.819,3.27-8.613,5.642-14.762,6.03-.694.046-1.387.066-2.062.066-6.414,0-10.985-1.993-15.82-4.1a62.189,62.189,0,0,0-9.708-3.572Z" transform="translate(-20.112 -5.829)" fill="#ffedb5"/>
      <path id="Path_78" data-name="Path 78" d="M173.686,186.485c2.39-.976,3.795-2.34,4.16-4.052,1.086-5.024-6.87-12.357-14.013-17.1-8.914-5.928-17.764-12.255-22.1-18.377a15.586,15.586,0,0,1-.949-2.233c-1.4-3.639-3.722-9.725-7.1-9.725a2.884,2.884,0,0,0-.939.158c-1.406.465-1.816,1.385-1.269,2.8a16.93,16.93,0,0,0,2.391,3.679c.967,1.247,1.8,2.325,1.779,2.939-.037,1.579-1.35,2.274-2.619,2.948a4.648,4.648,0,0,0-2.39,2.014c-.474,1.216.42,2.131,1.286,3.015.8.817,1.624,1.661,1.369,2.749-.484,2-11.779,9.2-21.732,15.556-8.248,5.258-15.365,9.8-15.246,10.67,0,.067.055.118.128.154a10.122,10.122,0,0,0,3.786.47c2.947,0,7.044-.368,11.8-.8,5.757-.517,12.28-1.1,17.946-1.1a36.194,36.194,0,0,1,10.118,1.078c1.3.393,2.746.864,4.27,1.359,6.806,2.218,15.273,4.973,22.444,4.973a18.34,18.34,0,0,0,6.87-1.165Zm-33.456-5.3a36.747,36.747,0,0,0-10.246-1.1c-5.684,0-12.216.588-17.992,1.1-4.735.424-8.831.792-11.751.792a9.842,9.842,0,0,1-3.613-.434.084.084,0,0,1-.037-.046c-.109-.808,7.317-5.54,15.172-10.558,9.991-6.373,21.3-13.594,21.806-15.633.273-1.139-.575-2-1.4-2.841-.885-.9-1.716-1.748-1.259-2.908.346-.9,1.3-1.4,2.308-1.931,1.314-.7,2.673-1.416,2.71-3.056.018-.644-.831-1.738-1.807-3.005a17.37,17.37,0,0,1-2.381-3.649c-.52-1.344-.146-2.208,1.14-2.637a2.593,2.593,0,0,1,.8-.133c3.157,0,5.547,6.245,6.825,9.6a13.9,13.9,0,0,0,.967,2.258c4.343,6.143,13.211,12.48,22.143,18.418,7.107,4.727,15.026,12.009,13.95,16.987-.365,1.671-1.725,3-4.051,3.95a17.8,17.8,0,0,1-6.706,1.134c-7.089,0-15.528-2.744-22.307-4.952C142.976,182.055,141.535,181.585,140.23,181.186Z" transform="translate(-14.81 -7.247)" fill="#ffedb5"/>
      <path id="Path_79" data-name="Path 79" d="M170.566,180.072c.812-4.211-7.234-10.814-11.258-13.353a183.046,183.046,0,0,1-14.99-10.584c-3.175-2.448-4.927-3.8-6.058-3.8-.776,0-1.2.562-1.469,1.947-1.989,10.4-14,16.041-21.185,19.4-3.147,1.477-5.219,2.448-5.31,3.25-.027.23.119.445.438.629a6.637,6.637,0,0,0,3.266.572c1.77,0,4.006-.23,6.6-.5a107.3,107.3,0,0,1,11.067-.735,32.66,32.66,0,0,1,13.092,2.263c4.936,2.147,12.235,4.441,17.955,4.441a13.913,13.913,0,0,0,5.246-.874,3.78,3.78,0,0,0,2.609-2.667ZM162.7,183.46c-5.648,0-12.883-2.274-17.782-4.405a33.014,33.014,0,0,0-13.256-2.3,108.169,108.169,0,0,0-11.122.741c-2.573.266-4.8.491-6.542.491a6.235,6.235,0,0,1-3.065-.526c-.265-.159-.383-.328-.365-.517.082-.735,2.235-1.747,5.209-3.142,7.208-3.383,19.279-9.041,21.277-19.507.237-1.252.611-1.809,1.2-1.809.994,0,2.819,1.406,5.839,3.736a183.106,183.106,0,0,0,15,10.594c4,2.524,12,9.076,11.195,13.235a3.649,3.649,0,0,1-2.5,2.561,13.551,13.551,0,0,1-5.091.843Z" transform="translate(-15.61 -7.434)" fill="#ffedb5"/>
      <path id="Path_80" data-name="Path 80" d="M248.517,138.024c-.939,7.993,3.157,13.5,7.308,15.975a11.721,11.721,0,0,0,5.867,1.763,5.76,5.76,0,0,0,5.62-3.3c6.231-13.68-14.99-28.1-17.59-29.307-.749-.348-1.269-.394-1.606-.184-.611.373-.42,1.594-.073,3.807A39.946,39.946,0,0,1,248.517,138.024Zm-.064-14.876a.275.275,0,0,1,.165-.041,2.176,2.176,0,0,1,.821.251c2.582,1.2,23.621,15.489,17.444,29.047a5.332,5.332,0,0,1-5.182,3.1,11.076,11.076,0,0,1-5.529-1.681c-4.087-2.443-8.12-7.875-7.189-15.786a40.182,40.182,0,0,0-.475-11.279c-.3-1.931-.52-3.321-.045-3.613Z" transform="translate(-29.048 -5.838)" fill="#ffedb5"/>
      <path id="Path_81" data-name="Path 81" d="M359.789,48.154c-7.134,0-15.035.756-23.411,1.554-10,.956-20.336,1.942-31.6,1.942-.83,0-1.651-.005-2.427-.015l-1.989-.031c-1.706-.025-3.312-.051-4.863-.051-9.707,0-15.719,1.109-19.679,6.95-2.5,3.695-5.347,7.88-12.153,10.583-1.925.767-3.85,1.416-5.556,1.993-3.941,1.334-7.052,2.386-7.171,3.843-.11,1.339,2.308,2.949,7.828,5.218,5.3,2.177,9.653,3.235,13.32,3.235.329,0,.666-.01.986-.026,5.328-.276,8.9-2.744,13.43-5.867,2.052-1.421,4.388-3.025,7.125-4.558,11.852-6.638,26.413-11.478,42.105-14a123.266,123.266,0,0,1,19.452-1.6A105.019,105.019,0,0,1,392.588,64.1V63.92a105.457,105.457,0,0,0-37.406-6.751,123.486,123.486,0,0,0-19.525,1.61c-15.738,2.53-30.345,7.384-42.223,14.038-2.747,1.538-5.082,3.148-7.144,4.569-4.48,3.092-8.029,5.54-13.239,5.81-.319.015-.638.026-.958.026-3.6,0-7.91-1.048-13.165-3.2-5.437-2.238-7.819-3.807-7.718-5.085.109-1.375,3.166-2.407,7.043-3.72,1.706-.577,3.64-1.232,5.575-2,6.879-2.729,9.734-6.94,12.252-10.655,3.9-5.759,9.836-6.853,19.425-6.853,1.551,0,3.156.025,4.853.051l1.989.031q1.178.015,2.436.015c11.286,0,21.641-.991,31.65-1.947,8.357-.8,16.258-1.553,23.365-1.553a69.48,69.48,0,0,1,11.012.782A182.263,182.263,0,0,1,392.6,54.236v-.174a183.5,183.5,0,0,0-21.715-5.126,69.8,69.8,0,0,0-11.085-.787Z" transform="translate(-42.62)" fill="#ffedb5"/>
      <path id="Path_82" data-name="Path 82" d="M241.457,137.564c-1.058,7.753,1.679,14.028,7.7,17.672a21.294,21.294,0,0,0,10.894,2.954c5.529,0,9.945-2.152,11.268-5.479,3.841-9.73-2.108-18.479-7.765-24.11a62.429,62.429,0,0,0-19.278-12.827,11.607,11.607,0,0,0-3.193-.9,1.018,1.018,0,0,0-.556.132c-.53.333-.311,1.283.118,3.164a50.01,50.01,0,0,1,.821,19.4Zm-.739-22.465a.632.632,0,0,1,.356-.081,11.775,11.775,0,0,1,3.047.879c9.261,3.459,33.858,19.22,26.924,36.774-1.287,3.255-5.6,5.36-10.994,5.36a20.921,20.921,0,0,1-10.693-2.9c-5.967-3.608-8.676-9.843-7.627-17.554a49.979,49.979,0,0,0-.83-19.435c-.393-1.722-.63-2.759-.183-3.046Z" transform="translate(-29.092 -5.69)" fill="#ffedb5"/>
      <path id="Path_83" data-name="Path 83" d="M236.21,138.065c-1.049,9.649,2.245,17.273,9.288,21.464a24.954,24.954,0,0,0,12.782,3.311c9.032,0,16.678-4.093,19.041-10.185,3.476-8.984.484-17.83-8.886-26.292-9.5-8.57-22.636-14.11-29.625-16.655-3.558-1.293-5.081-1.834-5.665-1.441-.484.327-.165,1.257.456,3.107,1.35,4.012,4.169,12.357,2.609,26.681Zm-2.865-29.686a.562.562,0,0,1,.329-.071,23.356,23.356,0,0,1,4.981,1.543c23.284,8.463,45.591,24.152,38.383,42.779-2.326,6.02-9.872,10.062-18.767,10.062a24.542,24.542,0,0,1-12.581-3.266c-6.989-4.159-10.255-11.743-9.215-21.35,1.56-14.345-1.259-22.7-2.619-26.717-.574-1.692-.912-2.709-.52-2.98Z" transform="translate(-29.315 -5.634)" fill="#ffedb5"/>
      <path id="Path_84" data-name="Path 84" d="M131.216,106c2.581,0,4.434-1.395,6.413-3.49,3.458-3.659,10.684-5.433,14.562-6.383,1.961-.48,2.7-.659,2.609-.966-.082-.256-.584-.363-3.266-.465-8.084-.307-26.221,4.012-28.311,7.262-.483.751-.127,1.436,1.04,1.972,3.111,1.447,5.2,2.06,6.962,2.06Zm-7.4-3.914c1.907-2.969,18.767-7.042,26.842-7.042.283,0,.556,0,.821.015a24.427,24.427,0,0,1,2.564.174c-.338.133-1.241.353-2.117.567-3.951.966-11.3,2.77-14.871,6.541-2.245,2.371-3.887,3.3-5.849,3.3-1.6,0-3.558-.593-6.55-1.977-.958-.445-1.241-.961-.84-1.58Z" transform="translate(-15.865 -3.835)" fill="#ffedb5"/>
      <path id="Path_85" data-name="Path 85" d="M139.153,105.819c6.213-6.342,17.572-8.554,26.769-9.776.885-.118.967-.373.94-.511-.219-1.032-8.832-3.01-21.687-3.01-1.451,0-2.938.025-4.407.077-5.875.2-19.725,4.788-24.7,8.186-1.3.885-1.88,1.615-1.743,2.183.347,1.41,2.582,2.033,5.182,2.759,2.746.767,5.858,1.635,7.381,3.659a4.138,4.138,0,0,0,3.449,1.779c2.381,0,5.355-1.8,8.822-5.341ZM127.3,109.284c-1.579-2.111-4.772-3-7.591-3.792-2.482-.69-4.626-1.288-4.936-2.565-.118-.486.447-1.171,1.642-1.983,4.918-3.358,18.594-7.9,24.379-8.09,1.468-.051,2.937-.077,4.379-.077,12.636,0,21.057,1.957,21.23,2.785.028.133-.355.2-.583.235-9.288,1.232-20.757,3.47-27.061,9.9-5.237,5.341-9.169,6.634-11.45,3.588Z" transform="translate(-15.749 -3.854)" fill="#ffedb5"/>
      <path id="Path_86" data-name="Path 86" d="M259.192,149.64a1.7,1.7,0,0,0,1.259-.557c1.779-1.865,1.742-8.324-2.975-12.254a1.6,1.6,0,0,0-2.171.2c-1.77,1.707-2.518,7.134,2.308,11.871a2.259,2.259,0,0,0,1.57.741Zm-3.321-12.428a1.119,1.119,0,0,1,.675-.363.7.7,0,0,1,.41.184c4.507,3.761,4.608,10.134,2.938,11.887a1.036,1.036,0,0,1-.693.368,1.669,1.669,0,0,1-1.022-.563C253.544,144.172,254.21,138.811,255.871,137.212Z" transform="translate(-28.759 -6.003)" fill="#ffedb5"/>
      <path id="Path_87" data-name="Path 87" d="M318.541,165.324c.648.526,2.244.751,5.319.751,1.925,0,4.215-.087,6.87-.184,3.284-.123,7.016-.261,10.866-.261,12.2,0,20.428,1.452,25.911,4.579,5.1,2.2,7.91,5.78,10.392,8.943,3.02,3.843,5.62,7.16,11.377,7.16a16.6,16.6,0,0,0,1.916-.118c.438-.051.9-.117,1.387-.2v-.266c-.511.092-1.013.164-1.478.22a16.275,16.275,0,0,1-1.825.112c-5.456,0-8-3.245-10.958-7.006-2.508-3.189-5.346-6.8-10.51-9.03-5.556-3.168-13.886-4.645-26.212-4.645-3.868,0-7.6.138-10.9.261-2.645.1-4.935.184-6.842.184-2.828,0-4.4-.205-4.936-.639-.292-.24-.3-.562-.018-.992,5.8-8.692,10.665-19.7,10.191-23.083-.821-5.933-5.474-11.539-9.981-16.961-5.511-6.628-10.712-12.888-7.409-18.111,4.6-7.257,25.583-19.854,36.942-20.722.547-.041,1.158-.061,1.815-.061,8.85,0,24.442,3.552,42.115,9.418v-.3C374.915,88.531,359.332,85,350.455,85c-.684,0-1.314.02-1.879.066-11.487.879-32.681,13.578-37.316,20.891-3.366,5.32,1.871,11.626,7.418,18.305,4.489,5.4,9.123,10.982,9.944,16.87.411,2.969-3.941,13.649-10.163,22.97-.338.511-.32.915.064,1.227Z" transform="translate(-42.62 -5.682)" fill="#ffedb5"/>
      <path id="Path_88" data-name="Path 88" d="M361.8,246.21c-.52,0-1.4.031-2.518.071-1.88.067-4.452.159-7.007.159-6.341,0-9.662-.583-9.872-1.738-.319-1.732,7.035-4.308,11.9-6.009,1.935-.68,3.6-1.263,4.38-1.641a76.776,76.776,0,0,0,16.623-11.013,63.262,63.262,0,0,0,8.284-9.239,23.728,23.728,0,0,1,9-6.792v-.189a23.911,23.911,0,0,0-9.251,6.92,63.357,63.357,0,0,1-8.266,9.219,76.752,76.752,0,0,1-16.569,10.977c-.757.373-2.417.955-4.342,1.63-5.219,1.824-12.354,4.328-12.025,6.153.228,1.262,3.549,1.875,10.145,1.875,2.564,0,5.146-.092,7.025-.163,1.113-.041,1.989-.072,2.5-.072a116.9,116.9,0,0,1,25.856,2.611h.739a116.362,116.362,0,0,0-26.6-2.764Z" transform="translate(-42.62 -11.08)" fill="#ffedb5"/>
      <path id="Path_89" data-name="Path 89" d="M185.5,33.631a35.75,35.75,0,0,0,4.334-.312c1.678-.209,3.275-.409,4.707-.516,2.446-.184,4.809-.261,6.907-.327a23.338,23.338,0,0,0,6.587-1.1c8.494-2.78,12.043-8.473,13.175-10.788.273-.557.547-1.073.812-1.574h-.283c-.256.486-.52.991-.785,1.533-1.122,2.3-4.644,7.941-13.047,10.7a22.871,22.871,0,0,1-6.477,1.083c-2.09.066-4.462.143-6.916.327-1.451.107-3.047.307-4.735.516a34.578,34.578,0,0,1-4.27.307,7.8,7.8,0,0,1-4.3-.889c-1.3-.884-1.478-2.463-.584-4.972l.146-.409a15.343,15.343,0,0,1,6.605-8.2h-.365a15.479,15.479,0,0,0-6.514,8.166l-.146.409c-.912,2.56-.711,4.18.639,5.1a8.146,8.146,0,0,0,4.507.945Z" transform="translate(-22.884)" fill="#ffedb5"/>
      <path id="Path_90" data-name="Path 90" d="M359.789,51.681c-6.6,0-14.251.731-22.353,1.5-10.255.981-20.866,1.993-32.662,1.993q-1.3,0-2.573-.015l-2.007-.031c-1.661-.026-3.221-.051-4.69-.051-12.782,0-13.412,3.935-14.087,8.1-.365,2.284-.748,4.65-2.992,6.659a25.258,25.258,0,0,1-5.246,2.586c-4.863,2.044-10.374,4.364-7.728,6.536a6.24,6.24,0,0,0,4.069,1.405,9.947,9.947,0,0,0,2.755-.424c4.316-1.247,8.923-4.937,12.627-7.9,2.1-1.681,3.914-3.133,4.909-3.47a10.284,10.284,0,0,1,3.2-.394c.383,0,.776.01,1.168.015s.8.015,1.2.015a9.781,9.781,0,0,0,4.526-.833,3.7,3.7,0,0,0,2.153-3.128,3.568,3.568,0,0,1,1.542-2.719c3.558-2.381,16.039-4.047,24.3-5.146,2.427-.322,4.525-.6,6.094-.854a133.975,133.975,0,0,1,21.185-1.737,114.736,114.736,0,0,1,37.407,6.153v-.3a115.477,115.477,0,0,0-37.407-6.107,134.988,134.988,0,0,0-21.313,1.748c-1.551.25-3.649.532-6.076.854-8.813,1.175-20.884,2.785-24.533,5.233a3.781,3.781,0,0,0-1.651,2.857,3.474,3.474,0,0,1-2.008,2.964,9.146,9.146,0,0,1-4.215.767c-.392,0-.793-.01-1.186-.015s-.794-.015-1.186-.015a11.028,11.028,0,0,0-3.439.429c-1.077.363-2.829,1.763-5.055,3.541-3.485,2.785-8.248,6.6-12.463,7.819-2.573.741-4.6.45-6.249-.9-2.4-1.967,2.928-4.211,7.627-6.188a24.892,24.892,0,0,0,5.356-2.652c2.308-2.06,2.691-4.456,3.065-6.771.675-4.221,1.268-7.87,13.631-7.87,1.469,0,3.029.026,4.68.051l2.007.031c.858.01,1.715.015,2.582.015,11.843,0,22.462-1.017,32.745-2,8.083-.772,15.71-1.5,22.27-1.5a58.144,58.144,0,0,1,9.233.644,189.582,189.582,0,0,1,23.567,5.759v-.291a188.87,188.87,0,0,0-23.439-5.713,59.237,59.237,0,0,0-9.361-.654Z" transform="translate(-42.62)" fill="#ffedb5"/>
      <path id="Path_91" data-name="Path 91" d="M187.262,28.239c.7.761,2.217,1.15,4.5,1.15.593,0,1.25-.026,1.944-.082,2.673-.2,5.173-.281,7.39-.353a15.125,15.125,0,0,0,1.861-.169,12.721,12.721,0,0,0,1.9-.455c4.936-1.615,10.766-6.372,10.957-9.316h-.456c-.2,2.826-6,7.548-10.729,9.1a11.378,11.378,0,0,1-1.8.429,14.582,14.582,0,0,1-1.788.164c-2.208.071-4.717.153-7.408.358-3.157.24-5.192-.082-5.976-.935-1.068-1.155.2-3.388,3.3-5.821a20.653,20.653,0,0,1,6.97-3.286h-.958a20.208,20.208,0,0,0-6.386,3.138c-3.248,2.55-4.5,4.824-3.34,6.086Z" transform="translate(-22.875)" fill="#ffedb5"/>
      <path id="Path_92" data-name="Path 92" d="M332.319,158.665c1.7,1.364,5.282,1.518,10.236,1.732.539.026,1.1.046,1.661.072,1.569.071,3.211.1,4.945.138,8.065.153,17.207.332,25.464,4.543l.1.051c4.58,2.243,7.3,6.2,9.708,9.689,2.417,3.516,4.516,6.552,7.837,6.552.1,0,.21-.011.31-.016v-.153c-.1.005-.21.02-.31.02-3.139,0-5.192-2.989-7.582-6.454-2.418-3.506-5.155-7.481-9.78-9.75l-.1-.052c-8.33-4.246-17.526-4.425-25.637-4.578-1.733-.036-3.376-.067-4.936-.138-.566-.026-1.122-.051-1.66-.072-4.881-.209-8.412-.363-10.036-1.666-1.533-1.237-1.323-3.557.7-7.512a17.044,17.044,0,0,0,2.126-10.231c-.912-6.567-5.812-12.464-10.547-18.172-4.945-5.959-9.625-11.585-7.18-15.449,4.069-6.434,23.721-17.789,31.859-18.407.183-.015.493-.031.968-.031,6.8,0,22.179,3.168,42.114,10.011v-.179c-19.926-6.822-35.3-9.986-42.114-9.986-.484,0-.812.015-1,.031-8.2.629-27.991,12.045-32.079,18.509-2.481,3.925,2.218,9.577,7.19,15.566,4.726,5.693,9.616,11.575,10.519,18.116a16.88,16.88,0,0,1-2.116,10.18c-2.081,4.058-2.281,6.347-.666,7.645Z" transform="translate(-42.62 -5.623)" fill="#ffedb5"/>
      <path id="Path_93" data-name="Path 93" d="M161.661,204.877c13.132-.868,28.769-9.908,32.958-16.818,7.276-11.994-5.662-21.652-18.177-30.994-12.074-9.014-23.486-17.528-17.938-27.9,4.833-9.03,20.443-13.9,32.676-13.9,6.6,0,12.294,1.354,16.06,3.817,4.472,2.923,6.226,7.364,5.08,12.843-3.942,18.821-5.116,39.41,31.1,45.481a74.184,74.184,0,0,0,12.2,1.048c15.248,0,24.976-5.059,30.453-9.306,10.5-8.141,14.156-20.318,9.075-30.3-4.3-8.463-12.779-16.675-25.893-25.1-19.5-12.52-46.064-23.282-81.2-32.91l-1.517-.419c-14.781-4.052-30.065-8.243-46.161-10.553-.952-.138-2.011-.3-3.14-.475a114.727,114.727,0,0,0-16.466-1.717,27.453,27.453,0,0,0-5.467.47,11.786,11.786,0,0,0-4.833,2.264,12.943,12.943,0,0,1-3.272,1.819c-.89.317-2.637.705-4.471,1.119-2.972.664-6.059,1.354-7.03,2.019-1.879,1.278-1.358,2.044-.864,2.79.362.532.7,1.037.256,1.789l-.344.593q-2.672,4.553-8.828,5.586c-1.191.2-2.672.45-4.427.772a20.075,20.075,0,0,0-9.163,3.771,17.847,17.847,0,0,1-5.768,2.9h-.247c-3.175,0-27.252.92-29.1,4.349-.494.925.582,1.927,3.219,2.984a19.1,19.1,0,0,0,7.391,1.477c.776,0,1.482-.041,2.161-.077.582-.03,1.129-.061,1.649-.061,1.94,0,3.9.317,6.579,4.155.661.945,1.173,1.717,1.6,2.361,2.081,3.158,2.152,3.2,7.435,4.507,1.314.322,2.946.725,5.018,1.283,6.809,1.819,8.2,3.883,9.966,6.5a22.278,22.278,0,0,0,4,4.712,48.521,48.521,0,0,0,7.091,4.87c4.313,2.6,8.387,5.059,9.684,9.162,2.249,7.109-4.41,13.895-11.941,20.171-3.651,3.046-11.156,6.587-19.1,10.338-13.494,6.368-28.787,13.588-28.839,20.273a9.423,9.423,0,0,0,5.027,8.708c3.669,2.136,9.243,3.173,17.048,3.173,11.315,0,25.215-2.213,37.483-4.16,9.657-1.533,18-2.861,23.326-2.861a18.478,18.478,0,0,1,3.034.209,50.574,50.574,0,0,1,13.167,4.6c5.231,2.427,10.178,4.716,17.242,4.716.723,0,1.464-.025,2.2-.071Zm-32.437-9.586a18.919,18.919,0,0,0-3.21-.225c-5.415,0-13.793,1.333-23.495,2.872-12.233,1.942-26.1,4.149-37.324,4.149-7.629,0-13.061-1-16.607-3.066a9.148,9.148,0,0,1-4.851-8.452c.053-6.516,15.222-13.681,28.61-20,7.982-3.766,15.513-7.323,19.217-10.41,7.6-6.342,14.331-13.205,12.039-20.441-1.332-4.211-5.468-6.7-9.843-9.347a48.078,48.078,0,0,1-7.02-4.819,21.61,21.61,0,0,1-3.933-4.645c-1.817-2.693-3.254-4.814-10.283-6.7-2.081-.557-3.722-.96-5.036-1.287q-5.1-1.263-7.108-4.308c-.423-.644-.935-1.421-1.6-2.367-2.566-3.664-4.568-4.379-7.152-4.379-.547,0-1.111.031-1.711.066-.661.036-1.349.077-2.1.077a17.946,17.946,0,0,1-7.038-1.41c-2.39-.956-3.387-1.825-2.981-2.581,1.605-2.979,24.05-4.1,28.513-4.1h.22l.071-.163.132.158A18.726,18.726,0,0,0,72.8,90.9a19.3,19.3,0,0,1,8.881-3.659c1.746-.322,3.219-.567,4.41-.767,6.412-1.073,6.491-1.129,9.243-5.815l.344-.593a1.707,1.707,0,0,0-.265-2.034c-.476-.705-.882-1.313.758-2.427.873-.593,4.013-1.3,6.782-1.916,1.87-.419,3.634-.812,4.577-1.145a13.218,13.218,0,0,0,3.422-1.9,11.057,11.057,0,0,1,4.56-2.151,26.633,26.633,0,0,1,5.264-.45,113.9,113.9,0,0,1,16.308,1.707c1.129.174,2.188.337,3.148.475,16.034,2.3,31.291,6.485,46.046,10.527l1.517.419c35.058,9.6,61.56,20.339,81.006,32.824,13.053,8.381,21.484,16.547,25.762,24.958,5.028,9.879,1.42,21.929-8.977,29.983-5.4,4.18-14.975,9.162-29.96,9.162a72.7,72.7,0,0,1-12.021-1.037c-35.744-5.989-34.572-26.415-30.656-45.093,1.173-5.581-.635-10.119-5.23-13.119-3.881-2.539-9.746-3.935-16.519-3.935-12.452,0-28.345,4.963-33.267,14.161-5.644,10.543,6.394,19.532,18.045,28.224,12.409,9.265,25.25,18.847,18.079,30.657-4.136,6.812-19.535,15.73-32.446,16.583-.724.046-1.438.072-2.134.072-6.853,0-11.712-2.254-16.863-4.64a51.262,51.262,0,0,0-13.37-4.671Z" transform="translate(0.94 -5.817)" fill="#ffedb5"/>
      <path id="Path_94" data-name="Path 94" d="M181.67,37.612a79.886,79.886,0,0,0,9.552-.8c1.551-.194,3.011-.373,4.179-.465,2.207-.169,4.351-.235,6.423-.3,4.315-.138,8.393-.271,11.632-1.3a10.366,10.366,0,0,0,5.812-4.185A66.384,66.384,0,0,1,228.6,19.005h-.319A66.512,66.512,0,0,0,219,30.5a10.142,10.142,0,0,1-5.693,4.1c-3.184,1.012-7.226,1.145-11.505,1.283-2.08.066-4.224.138-6.441.3-1.177.087-2.646.271-4.206.465a80.214,80.214,0,0,1-9.488.8c-3.075,0-5.155-.409-6.533-1.257-3.357-2.06-1.67-6.761-.766-9.291l.146-.4a17.992,17.992,0,0,1,5-7.5H179.2a18.234,18.234,0,0,0-4.945,7.476l-.146.4c-.912,2.555-2.609,7.3.839,9.423,1.433.879,3.641,1.308,6.734,1.308Z" transform="translate(-22.923)" fill="#ffedb5"/>
      <path id="Path_95" data-name="Path 95" d="M252.295,19.01h-.63a30.333,30.333,0,0,0-2.837,1.855c-10.063,7.66-14.525,14.733-13.64,21.622.347,2.678-.246,4.451-1.8,5.422a8.127,8.127,0,0,1-4.306.915,60.148,60.148,0,0,1-9.389-1.165,88.587,88.587,0,0,0-9.461-1.3c-2.308-.143-4.616-.209-7.07-.209-7.728,0-15.082.69-22.855,1.421l-3.941.368-.1.01c-2.728.25-5.821.531-8.831.531-5.693,0-9.334-1.058-11.14-3.235-3.768-4.543-2.71-10.016-1.788-14.84.127-.649.246-1.293.364-1.927a28.881,28.881,0,0,1,3.312-9.464H157.7a29.228,29.228,0,0,0-3.285,9.439c-.109.634-.237,1.278-.356,1.927-.93,4.86-2,10.369,1.825,14.978,1.889,2.274,5.666,3.383,11.551,3.383,3.047,0,6.158-.286,8.9-.531l.1-.01,3.941-.368c7.755-.726,15.081-1.416,22.782-1.416,2.436,0,4.726.066,7.016.209a87.417,87.417,0,0,1,9.379,1.288,60.135,60.135,0,0,0,9.525,1.181,8.737,8.737,0,0,0,4.643-1c1.634-1.022,2.263-2.857,1.907-5.611-.866-6.822,3.558-13.839,13.558-21.453a32.986,32.986,0,0,1,3.1-2.008Z" transform="translate(-23.422)" fill="#ffedb5"/>
      <path id="Path_96" data-name="Path 96" d="M249.33,57.746c-3.093,1.221-7.326,1.819-12.947,1.819a191.506,191.506,0,0,1-20.491-1.559c-3.841-.429-7.463-.838-10.428-1.012-1.451-.087-5.347-.286-10.146-.286-8.886,0-20.291.675-24.113,3.889-1.67,1.4-1.734,3.153-.2,5.218.721.971,2.582,1.5,4.379,2.008a12.493,12.493,0,0,1,3.714,1.441,8.2,8.2,0,0,1,2.089,2.77,7.236,7.236,0,0,0,3.22,3.516,16.854,16.854,0,0,0,7.4,1.477,55.816,55.816,0,0,0,6.067-.45,54.674,54.674,0,0,1,5.976-.445,17.651,17.651,0,0,1,5.027.639A14.344,14.344,0,0,1,215.5,80.59c1.925,1.778,3.74,3.455,9.725,4.242,12.527,1.64,15.967,3.357,24.26,7.5,1.067.537,2.217,1.109,3.476,1.727a43.076,43.076,0,0,1,7.326,4.763,47.285,47.285,0,0,0,6.4,4.308,36.412,36.412,0,0,0,8.886,3.148c3.777.961,7.354,1.871,10.593,4.988l.5.49c4.078,3.946,8.192,7.6,10.729,7.6a1.961,1.961,0,0,0,1.049-.265c.912-.562,1.159-2.049.757-4.548-.237-1.467-2.125-2.775-3.959-4.043-1.971-1.364-3.832-2.657-3.723-4.083.137-1.707,1.98-2.55,3.933-3.439a10.5,10.5,0,0,0,3.777-2.371,14.678,14.678,0,0,0,3.074-6.925c.675-3.025,1.314-5.877,6.15-9.107,8.64-5.78,20.765-10.144,34.14-12.3a78.8,78.8,0,0,1,12.6-1.063c13.667,0,23.465,4.165,33.848,8.57q1.766.751,3.558,1.5v-.445q-1.6-.675-3.175-1.339c-10.464-4.446-20.354-8.642-34.231-8.642a79.882,79.882,0,0,0-12.782,1.078c-13.494,2.167-25.729,6.572-34.46,12.408-4.954,3.312-5.6,6.214-6.3,9.291a14.373,14.373,0,0,1-3.02,6.818,10.255,10.255,0,0,1-3.6,2.243c-1.98.9-4.024,1.835-4.17,3.7-.118,1.559,1.907,2.964,3.86,4.323,1.77,1.227,3.594,2.494,3.813,3.848.475,2.944-.054,3.951-.593,4.273a1.04,1.04,0,0,1-.574.148c-2.509,0-7.883-5.2-10.173-7.42l-.511-.491c-3.339-3.214-7.007-4.144-10.875-5.136a35.922,35.922,0,0,1-8.7-3.081,47.032,47.032,0,0,1-6.332-4.262,43.256,43.256,0,0,0-7.418-4.819c-1.259-.618-2.408-1.191-3.476-1.727-8.384-4.19-11.851-5.923-24.542-7.584-5.73-.751-7.481-2.366-9.324-4.078a14.857,14.857,0,0,0-6.879-3.95,18.909,18.909,0,0,0-5.319-.68,56.847,56.847,0,0,0-6.1.45,54.339,54.339,0,0,1-5.949.439,15.926,15.926,0,0,1-6.988-1.4,6.9,6.9,0,0,1-3.02-3.352,8.548,8.548,0,0,0-2.19-2.877,12.911,12.911,0,0,0-3.932-1.548c-1.77-.5-3.449-.976-4.078-1.824-1.442-1.947-1.4-3.593.146-4.885,3.676-3.082,14.853-3.731,23.584-3.731,4.772,0,8.631.2,10.073.286,2.928.174,6.541.583,10.364,1.007A192.041,192.041,0,0,0,236.365,59.9c5.757,0,10.109-.618,13.311-1.886,7.984-3.163,5.694-7.931,3.477-12.541-2.363-4.926-4.809-10.021,5.027-13.343a15.031,15.031,0,0,1,4.68-.6c5.885,0,14.169,1.8,22.179,3.541,6.98,1.518,13.567,2.949,17.855,3,.621.01,1.232.01,1.852.01,9.215,0,18.53-.889,27.544-1.753,9-.859,18.293-1.748,27.471-1.748a111.544,111.544,0,0,1,17.727,1.308c5.091.813,10.109,1.891,15.073,3.117v-.388c-4.9-1.211-9.863-2.269-14.9-3.071a112.614,112.614,0,0,0-17.9-1.324c-9.233,0-18.566.889-27.58,1.753-8.987.858-18.275,1.748-27.435,1.748-.62.01-1.222,0-1.843-.01-4.178-.056-10.711-1.477-17.636-2.979-8.065-1.753-16.4-3.567-22.407-3.567a15.851,15.851,0,0,0-5.018.654c-10.246,3.465-7.737,8.688-5.31,13.742,2.254,4.7,4.389,9.137-3.23,12.158Z" transform="translate(-42.62)" fill="#ffedb5"/>
      <path id="Path_97" data-name="Path 97" d="M171.734,44.695c1.952,0,4.215-.133,7.572-.45,8.513-.8,16.961-1.17,26.6-1.17,2.417,0,4.9.02,7.6.071.94.015,1.752.026,2.491.026,4.462,0,7.062-.3,8.978-1.048,2.29-.889,3.658-2.443,4.552-5.207,2.062-6.337,6.6-12.03,14.27-17.907h-.338c-7.618,5.862-12.143,11.549-14.2,17.881-.885,2.719-2.217,4.247-4.443,5.105-1.871.726-4.425,1.017-8.823,1.017-.739,0-1.551-.01-2.481-.026-2.7-.046-5.183-.071-7.609-.071-9.644,0-18.111.373-26.641,1.175-3.34.312-5.593.45-7.527.45-5.5,0-9.443-1.032-10.821-6.071-1.314-4.814-.146-9.914,1.059-13.343a23.932,23.932,0,0,1,3.211-6.117H164.9a23.556,23.556,0,0,0-3.193,6.091c-1.213,3.439-2.381,8.56-1.058,13.394C161.853,42.9,165.064,44.695,171.734,44.695Z" transform="translate(-23.217)" fill="#ffedb5"/>
      <path id="Path_98" data-name="Path 98" d="M175.492,40.857c.858,0,1.779-.046,2.755-.138,7.254-.68,15.009-1.083,23.065-1.191,1.879-.025,3.686,0,5.41.026,1.159.015,2.253.031,3.321.031,3.284,0,6.678-.143,9.3-1.17a8.529,8.529,0,0,0,4.735-4.334,46.858,46.858,0,0,1,11.97-15.07h-.328A46.92,46.92,0,0,0,223.81,34.04a8.34,8.34,0,0,1-4.625,4.247c-2.564,1.007-5.912,1.145-9.142,1.145-1.068,0-2.153-.015-3.312-.031-1.724-.026-3.54-.051-5.419-.026-8.066.112-15.848.511-23.11,1.2-4.17.394-7.272-.077-9.206-1.4-4.407-3-2.035-9.735-.757-13.353a20.853,20.853,0,0,1,3.978-6.812h-.311a20.9,20.9,0,0,0-3.941,6.781c-1.286,3.644-3.668,10.42.812,13.476a11.932,11.932,0,0,0,6.706,1.584Z" transform="translate(-23.037)" fill="#ffedb5"/>
    </g>
    <rect id="Rectangle_4" data-name="Rectangle 4" width="10" height="10" rx="2" transform="translate(301 -234.579)" fill="#cfa935"/>
    <rect id="Rectangle_5" data-name="Rectangle 5" width="10" height="10" rx="2" transform="translate(321 -234.579)" fill="#cfa935"/>
    <rect id="Rectangle_6" data-name="Rectangle 6" width="10" height="10" rx="2" transform="translate(341 -234.579)" fill="#cfa935"/>
    <rect id="Rectangle_7" data-name="Rectangle 7" width="373" height="39" transform="translate(271 -167.579)" fill="rgba(207,169,53,0.1)"/>
    <path id="Vector" d="M.909,6.136H16.9L12.085,1.5a.875.875,0,0,1-.2-.284.846.846,0,0,1-.006-.677.873.873,0,0,1,.2-.287.913.913,0,0,1,.3-.191.942.942,0,0,1,.7.006.909.909,0,0,1,.3.2l6.364,6.125a.852.852,0,0,1,0,1.237L13.37,13.754a.934.934,0,0,1-1.274-.011.852.852,0,0,1-.011-1.227L16.9,7.886H.909a.927.927,0,0,1-.643-.256.852.852,0,0,1,0-1.237A.927.927,0,0,1,.909,6.136Z" transform="translate(596 -64)" fill="#cfa935"/>
    <path id="Path_99" data-name="Path 99" d="M72.5,29h5.8a7.253,7.253,0,0,1,7.25,7.25V66.7a7.253,7.253,0,0,1-7.25,7.25H75.4v9.729a1.876,1.876,0,0,1-2.943,1.537L56.057,73.95H33.35A7.253,7.253,0,0,1,26.1,66.7V60.9Z" transform="translate(534.5 -202.651)" fill="#eecd68"/>
    <path id="Path_100" data-name="Path 100" d="M14.5,56.55V68.964a2.086,2.086,0,0,0,3.277,1.711L38.324,56.549H65.25a8.707,8.707,0,0,0,8.7-8.7V10.15a8.707,8.707,0,0,0-8.7-8.7H10.15a8.707,8.707,0,0,0-8.7,8.7v37.7a8.707,8.707,0,0,0,8.7,8.7Z" transform="translate(534.5 -202.651)" fill="#cfa935"/>
    <path id="Path_101" data-name="Path 101" d="M16.313,36.25H14.5a4.344,4.344,0,0,1-4.35-4.35V29a4.344,4.344,0,0,1,4.35-4.35h1.813Z" transform="translate(534.5 -202.651)" fill="#ced7dd"/>
    <path id="Path_102" data-name="Path 102" d="M59.088,24.65H60.9A4.344,4.344,0,0,1,65.25,29v2.9a4.344,4.344,0,0,1-4.35,4.35H59.088Z" transform="translate(534.5 -202.651)" fill="#ced7dd"/>
    <path id="Path_103" data-name="Path 103" d="M46.255,15.95H47.85a11.6,11.6,0,0,1,11.6,11.6v5.8a11.6,11.6,0,0,1-11.6,11.6H27.55a11.6,11.6,0,0,1-11.6-11.6v-5.8a11.6,11.6,0,0,1,11.6-11.6Z" transform="translate(534.5 -202.651)" fill="#e4eaef"/>
    <path id="Path_104" data-name="Path 104" d="M46.4,37.7a7.25,7.25,0,0,0,0-14.5H29a7.25,7.25,0,1,0,0,14.5Z" transform="translate(534.5 -202.651)" fill="#1c1f30"/>
    <path id="Path_105" data-name="Path 105" d="M44.355,21.75A9.236,9.236,0,0,0,46.4,16.685,2.179,2.179,0,0,0,44.225,14.5H31.175A2.18,2.18,0,0,0,29,16.685a9.236,9.236,0,0,0,2.045,5.065,3.609,3.609,0,0,0,2.91,1.45h7.492A3.608,3.608,0,0,0,44.355,21.75Z" transform="translate(534.5 -202.651)" fill="#ced7dd"/>
    <path id="Path_106" data-name="Path 106" d="M31.175,32.653a2.184,2.184,0,1,1,2.175-2.211v.036A2.174,2.174,0,0,1,31.175,32.653Z" transform="translate(534.5 -202.651)" fill="#71ffe4"/>
    <path id="Path_107" data-name="Path 107" d="M44.225,32.628A2.184,2.184,0,1,1,46.4,30.417v.036A2.174,2.174,0,0,1,44.225,32.628Z" transform="translate(534.5 -202.651)" fill="#71ffe4"/>
  </g>
</svg>
