<svg width="26" height="26" viewBox="0 0 26 26" fill="none" xmlns="http://www.w3.org/2000/svg">
<g clip-path="url(#clip0_43_871)">
<path d="M13 0C5.81491 0 0 5.81425 0 13C0 20.185 5.81425 26 13 26C20.1851 26 26 20.1857 26 13C26 5.81491 20.1857 0 13 0ZM12.6153 19.0846C11.8795 19.0846 11.3148 18.4685 11.3148 17.7669C11.3148 17.0482 11.8966 16.4493 12.6153 16.4493C13.3341 16.4493 13.9329 17.0482 13.9329 17.7669C13.9329 18.4685 13.3511 19.0846 12.6153 19.0846ZM14.566 12.428C13.6249 13.1638 13.6077 13.6772 13.6077 14.567C13.6077 14.8922 13.4366 15.2686 12.5982 15.2686C11.8965 15.2686 11.657 15.0119 11.657 14.1221C11.657 12.6505 12.3073 11.9489 12.8035 11.5211C13.3682 11.0419 14.3265 10.5115 14.3265 9.5875C14.3265 8.80029 13.642 8.42385 12.7864 8.42385C11.041 8.42385 11.4175 9.74152 10.4934 9.74152C10.0314 9.74152 9.46669 9.43343 9.46669 8.76611C9.46669 7.8421 10.5276 6.47309 12.8378 6.47309C15.0281 6.47309 16.4826 7.68808 16.4826 9.29657C16.4826 10.9051 15.0281 12.0687 14.566 12.428Z" fill="white"/>
</g>
<defs>
<clipPath id="clip0_43_871">
<rect width="26" height="26" fill="white"/>
</clipPath>
</defs>
</svg>
