<svg width="26" height="24" viewBox="0 0 26 24" fill="none" xmlns="http://www.w3.org/2000/svg">
<path d="M12.9993 4.23253C14.1681 4.23253 15.1156 3.28505 15.1156 2.11627C15.1156 0.947484 14.1681 0 12.9993 0C11.8305 0 10.8831 0.947484 10.8831 2.11627C10.8831 3.28505 11.8305 4.23253 12.9993 4.23253Z" fill="#B8860B"/>
<path d="M23.8838 7.86052C25.0526 7.86052 26.0001 6.91304 26.0001 5.74426C26.0001 4.57548 25.0526 3.62799 23.8838 3.62799C22.7151 3.62799 21.7676 4.57548 21.7676 5.74426C21.7676 6.91304 22.7151 7.86052 23.8838 7.86052Z" fill="#B8860B"/>
<path d="M2.11627 7.86052C3.28505 7.86052 4.23253 6.91304 4.23253 5.74426C4.23253 4.57548 3.28505 3.62799 2.11627 3.62799C0.947484 3.62799 0 4.57548 0 5.74426C0 6.91304 0.947484 7.86052 2.11627 7.86052Z" fill="#B8860B"/>
<path fill-rule="evenodd" clip-rule="evenodd" d="M24.167 7.13135C24.2444 6.7468 24.0654 6.3574 23.7256 6.16392C23.3846 5.97164 22.9577 6.0188 22.6675 6.28243C22.6675 6.28243 21.4026 7.43247 19.9756 8.73004C19.3081 9.3371 18.383 9.57292 17.5062 9.36129C16.6295 9.14966 15.9148 8.5172 15.598 7.67191L13.8481 3.00766C13.7151 2.65333 13.3777 2.41873 12.9992 2.41873C12.6207 2.41873 12.2833 2.65333 12.1503 3.00766L10.4004 7.67191C10.0836 8.5172 9.36888 9.14966 8.49214 9.36129C7.6154 9.57292 6.69029 9.3371 6.02276 8.73004C4.59579 7.43247 3.33087 6.28243 3.33087 6.28243C3.04064 6.0188 2.61376 5.97164 2.27274 6.16392C1.93292 6.3574 1.75395 6.7468 1.83134 7.13135C1.83134 7.13135 3.17729 13.8611 3.86054 17.2798C4.17133 18.8349 5.53662 19.9535 7.12201 19.9535H18.8764C20.4617 19.9535 21.827 18.8349 22.1378 17.2798C22.8211 13.8611 24.167 7.13135 24.167 7.13135Z" fill="#B8860B"/>
<path fill-rule="evenodd" clip-rule="evenodd" d="M20.2554 21.7675H5.74388C5.24324 21.7675 4.83691 22.1738 4.83691 22.6744C4.83691 23.1751 5.24324 23.5814 5.74388 23.5814H20.2554C20.7561 23.5814 21.1624 23.1751 21.1624 22.6744C21.1624 22.1738 20.7561 21.7675 20.2554 21.7675Z" fill="#B8860B"/>
</svg>
