<svg xmlns="http://www.w3.org/2000/svg" x="0px" y="0px" width="100" height="100" viewBox="0 0 48 48">
<path fill="none" stroke="#000" stroke-linecap="round" stroke-linejoin="round" stroke-width="3" d="M20.9,40.5h-9.4c-2.2,0-4-1.8-4-4v-25c0-2.2,1.8-4,4-4H27"></path><path fill="none" stroke="#000" stroke-linecap="round" stroke-linejoin="round" stroke-width="3" d="M40.5,20.1l0,16.4c0,2.2-1.8,4-4,4h-8.2"></path><path fill="none" stroke="#000" stroke-linecap="round" stroke-linejoin="round" stroke-miterlimit="10" stroke-width="3" d="M34.8,8.4L40,3.3c1.4-1.4,3.6-1.4,5,0l0,0c1.4,1.4,1.4,3.6,0,5L34.2,19c-0.2,0.2-0.4,0.3-0.6,0.4l-5.1,1.3	c-0.6,0.2-1.2-0.4-1-1l1.3-5.1c0.1-0.2,0.2-0.4,0.4-0.6l2.3-2.3"></path><line x1="38" x2="43" y1="5.2" y2="10.2" fill="none" stroke="#000" stroke-linecap="round" stroke-linejoin="round" stroke-miterlimit="10" stroke-width="3"></line>
</svg>