<svg width="60" height="60" viewBox="0 0 60 60" fill="none" xmlns="http://www.w3.org/2000/svg">
<g clip-path="url(#clip0_43_875)">
<path d="M38.5155 38.8871C38.7632 38.2764 38.9062 37.6125 38.9062 36.9141C38.9062 34.0062 36.5407 31.6406 33.6328 31.6406C30.7249 31.6406 28.3594 34.0062 28.3594 36.9141C28.3594 38.8691 29.4407 40.5591 31.025 41.4697C29.9305 41.8601 28.4771 42.1875 26.6016 42.1875C24.6914 42.1875 23.2479 41.8604 22.177 41.4704C23.7619 40.5599 24.8438 38.8695 24.8438 36.9141C24.8438 34.0062 22.4782 31.6406 19.5703 31.6406C16.6624 31.6406 14.2969 34.0062 14.2969 36.9141C14.2969 37.6082 14.4394 38.268 14.6842 38.8758C13.7866 39.118 12.9729 39.5616 12.4051 40.1637C11.3752 41.1438 10.7812 42.5222 10.7812 43.9453C10.7812 45.3701 11.3752 46.7468 12.4051 47.7271L12.4154 47.7168C13.6411 48.8926 18.2829 52.7344 26.6016 52.7344C34.9202 52.7344 39.562 48.8926 40.7877 47.7168L40.798 47.7271C41.8246 46.7503 42.4014 45.4371 42.4219 44.0278C42.439 42.6013 41.8863 41.252 40.9318 40.2994C40.2789 39.6081 39.4324 39.1362 38.5155 38.8871ZM16.0547 28.125C17.0263 28.125 17.8125 27.3388 17.8125 26.3672V12.3047C17.8125 11.3331 17.0263 10.5469 16.0547 10.5469C15.0831 10.5469 14.2969 11.3331 14.2969 12.3047V26.3672C14.2969 27.3388 15.0831 28.125 16.0547 28.125ZM7.26562 31.6406H5.27344C2.36555 31.6406 0 34.0062 0 36.9141V43.9453C0 46.8532 2.36555 49.2188 5.27344 49.2188H7.26562C8.23723 49.2188 9.02344 48.4325 9.02344 47.4609V33.3984C9.02344 32.4268 8.23723 31.6406 7.26562 31.6406ZM47.6953 31.6406H45.9375C44.9659 31.6406 44.1797 32.4268 44.1797 33.3984V47.4609C44.1797 48.4325 44.9659 49.2188 45.9375 49.2188H47.6953C50.6032 49.2188 52.9688 46.8532 52.9688 43.9453V36.9141C52.9688 34.0062 50.6032 31.6406 47.6953 31.6406ZM54.7266 0H30.1172C27.1991 0 24.8438 2.35535 24.8438 5.27344V24.6094L23.0859 32.5781L45.9375 28.125H54.7266C57.6446 28.125 60 25.7694 60 22.8516V5.27344C60 2.35535 57.6446 0 54.7266 0Z" fill="url(#paint0_linear_43_875)"/>
<path d="M34.0547 28.125L27.3749 31.4648C27.129 31.5702 26.8828 31.6406 26.6016 31.6406C26.285 31.6406 25.9688 31.5702 25.6875 31.3945C25.1603 31.0429 24.8438 30.4805 24.8438 29.8828V24.6094H12.5391C9.62098 24.6094 7.26562 26.9647 7.26562 29.8828V54.7266C7.26562 57.6444 9.62098 60 12.5391 60H40.6641C43.5821 60 45.9375 57.6444 45.9375 54.7266V28.125H34.0547ZM33.6328 35.1562C34.6173 35.1562 35.3906 35.9296 35.3906 36.9141C35.3906 37.8983 34.6173 38.6719 33.6328 38.6719C32.6483 38.6719 31.875 37.8983 31.875 36.9141C31.875 35.9296 32.6483 35.1562 33.6328 35.1562ZM19.5703 35.1562C20.5548 35.1562 21.3281 35.9296 21.3281 36.9141C21.3281 37.8983 20.5548 38.6719 19.5703 38.6719C18.5858 38.6719 17.8125 37.8983 17.8125 36.9141C17.8125 35.9296 18.5858 35.1562 19.5703 35.1562ZM38.3788 45.1757C38.2383 45.3514 34.2656 49.2188 26.6016 49.2188C18.9375 49.2188 14.9648 45.3514 14.8243 45.1757C14.1212 44.5077 14.1212 43.3827 14.8243 42.7147C15.4923 42.0117 16.6171 42.0117 17.2852 42.6798C17.3556 42.75 18.1641 43.5236 19.676 44.2264C21.2225 45 23.5078 45.7031 26.6016 45.7031C32.7539 45.7031 35.7773 42.8203 35.9181 42.6797C36.6211 42.0117 37.7461 42.0466 38.3789 42.7146C39.082 43.4179 39.082 44.5077 38.3788 45.1757ZM42.4219 21.0938C43.3935 21.0938 44.1797 20.3075 44.1797 19.3359V15.8203C44.1797 14.8487 43.3935 14.0625 42.4219 14.0625C41.4503 14.0625 40.6641 14.8487 40.6641 15.8203V19.3359C40.6641 20.3075 41.4503 21.0938 42.4219 21.0938ZM42.4219 10.5469C43.3927 10.5469 44.1797 9.75984 44.1797 8.78906C44.1797 7.81828 43.3927 7.03125 42.4219 7.03125C41.4511 7.03125 40.6641 7.81828 40.6641 8.78906C40.6641 9.75984 41.4511 10.5469 42.4219 10.5469ZM16.0547 14.0625C18.9626 14.0625 21.3281 11.697 21.3281 8.78906C21.3281 5.88117 18.9626 3.51562 16.0547 3.51562C13.1468 3.51562 10.7812 5.88117 10.7812 8.78906C10.7812 11.697 13.1468 14.0625 16.0547 14.0625Z" fill="url(#paint1_linear_43_875)"/>
</g>
<defs>
<linearGradient id="paint0_linear_43_875" x1="30" y1="52.7344" x2="30" y2="0" gradientUnits="userSpaceOnUse">
<stop stop-color="#ADDCFF"/>
<stop offset="0.5028" stop-color="#EAF6FF"/>
<stop offset="1" stop-color="#EAF6FF"/>
</linearGradient>
<linearGradient id="paint1_linear_43_875" x1="26.6016" y1="60" x2="26.6016" y2="3.51562" gradientUnits="userSpaceOnUse">
<stop stop-color="#CFA935"/>
<stop offset="1" stop-color="#FCE59E"/>
</linearGradient>
<clipPath id="clip0_43_875">
<rect width="60" height="60" fill="white"/>
</clipPath>
</defs>
</svg>
