<svg width="20" height="20" viewBox="0 0 20 20" fill="none" xmlns="http://www.w3.org/2000/svg">
<g id="paper 1" clip-path="url(#clip0_337_413)">
<path id="Vector" d="M11.875 0H2.29167C1.025 0 0 1.025 0 2.29167V15.2083C0 16.475 1.025 17.5 2.29167 17.5H9.075C8.34167 16.5 7.91667 15.2833 7.91667 13.9583C7.91667 10.625 10.625 7.91667 13.9583 7.91667C14.025 7.91667 14.1 7.91667 14.1667 7.925V2.29167C14.1667 1.025 13.1417 0 11.875 0ZM3.33333 3.33333H6.66667C7.125 3.33333 7.5 3.70833 7.5 4.16667C7.5 4.625 7.125 5 6.66667 5H3.33333C2.875 5 2.5 4.625 2.5 4.16667C2.5 3.70833 2.875 3.33333 3.33333 3.33333ZM7.5 11.6667H3.33333C2.875 11.6667 2.5 11.2917 2.5 10.8333C2.5 10.375 2.875 10 3.33333 10H7.5C7.95833 10 8.33333 10.375 8.33333 10.8333C8.33333 11.2917 7.95833 11.6667 7.5 11.6667ZM10.8333 8.33333H3.33333C2.875 8.33333 2.5 7.95833 2.5 7.5C2.5 7.04167 2.875 6.66667 3.33333 6.66667H10.8333C11.2917 6.66667 11.6667 7.04167 11.6667 7.5C11.6667 7.95833 11.2917 8.33333 10.8333 8.33333Z" fill="#CBCBCB"/>
<path id="Vector_2" d="M13.9585 18.3334C11.546 18.3334 9.5835 16.3709 9.5835 13.9584C9.5835 11.5459 11.546 9.58337 13.9585 9.58337C16.371 9.58337 18.3335 11.5459 18.3335 13.9584C18.3335 16.3709 16.371 18.3334 13.9585 18.3334ZM13.9585 11.25C12.4652 11.25 11.2502 12.465 11.2502 13.9584C11.2502 15.4517 12.4652 16.6667 13.9585 16.6667C15.4518 16.6667 16.6668 15.4517 16.6668 13.9584C16.6668 12.465 15.4518 11.25 13.9585 11.25Z" fill="#CBCBCB"/>
<path id="Vector_3" d="M19.1669 20C18.9535 20 18.7402 19.9183 18.5777 19.7558L15.8694 17.0475C15.5435 16.7216 15.5435 16.195 15.8694 15.8691C16.1952 15.5433 16.7219 15.5433 17.0477 15.8691L19.756 18.5775C20.0819 18.9033 20.0819 19.43 19.756 19.7558C19.5935 19.9183 19.3802 20 19.1669 20Z" fill="#CBCBCB"/>
</g>
<defs>
<clipPath id="clip0_337_413">
<rect width="20" height="20" fill="white"/>
</clipPath>
</defs>
</svg>
