<svg width="49" height="36" viewBox="0 0 49 36" fill="none" xmlns="http://www.w3.org/2000/svg">
<g id="Group">
<g id="Group_2">
<path id="Vector" d="M38.2869 35.6537H30.3672H28.2346H27.774V25.0307H31.2483C32.1293 25.0307 32.65 24.0294 32.1293 23.3085L25.3711 13.9571C24.9405 13.3564 24.0494 13.3564 23.6189 13.9571L16.8606 23.3085C16.34 24.0294 16.8506 25.0307 17.7417 25.0307H21.216V35.6537H20.7554H18.6228H9.44156C4.18512 35.3633 0 30.4473 0 25.1208C0 21.4463 1.99244 18.2423 4.94606 16.5102C4.67573 15.7793 4.53555 14.9984 4.53555 14.1774C4.53555 10.4228 7.56927 7.38905 11.3239 7.38905C12.1349 7.38905 12.9158 7.52922 13.6467 7.79955C15.8194 3.19391 20.5051 0 25.9518 0C33.0004 0.0100123 38.8075 5.40662 39.4683 12.285C44.885 13.2162 49 18.2323 49 23.9093C49 29.9767 44.2742 35.2331 38.2869 35.6537Z" fill="#4D5060"/>
</g>
</g>
</svg>
