<svg width="20" height="20" viewBox="0 0 20 20" fill="none" xmlns="http://www.w3.org/2000/svg">
<g id="fi-rr-zoom-in" clip-path="url(#clip0_554_464)">
<path id="Vector" d="M19.7557 18.5781L14.7815 13.6039C16.137 11.946 16.8035 9.83063 16.643 7.69519C16.4826 5.55974 15.5075 3.56766 13.9195 2.13098C12.3315 0.69431 10.252 -0.0770391 8.11119 -0.0235126C5.9704 0.030014 3.93207 0.90432 2.41783 2.41856C0.903588 3.9328 0.0292815 5.97113 -0.024245 8.11192C-0.0777715 10.2527 0.693577 12.3322 2.13025 13.9202C3.56693 15.5082 5.55901 16.4833 7.69445 16.6438C9.8299 16.8042 11.9453 16.1377 13.6032 14.7822L18.5773 19.7564C18.7345 19.9082 18.945 19.9922 19.1635 19.9903C19.382 19.9884 19.591 19.9007 19.7455 19.7462C19.9 19.5917 19.9877 19.3827 19.9895 19.1642C19.9914 18.9457 19.9075 18.7352 19.7557 18.5781ZM8.33315 15.0006C7.01461 15.0006 5.72568 14.6096 4.62935 13.877C3.53302 13.1445 2.67854 12.1033 2.17395 10.8851C1.66937 9.66693 1.53735 8.32649 1.79458 7.03328C2.05182 5.74008 2.68676 4.55219 3.61911 3.61984C4.55146 2.68749 5.73934 2.05255 7.03255 1.79532C8.32576 1.53808 9.6662 1.6701 10.8844 2.17469C12.1025 2.67927 13.1437 3.53375 13.8763 4.63008C14.6088 5.72641 14.9998 7.01534 14.9998 8.33389C14.9978 10.1014 14.2948 11.7959 13.045 13.0457C11.7952 14.2956 10.1007 14.9986 8.33315 15.0006Z" fill="#5B5A5F"/>
<path id="Vector_2" d="M10.8333 7.5H9.16666V5.83333C9.16666 5.61232 9.07886 5.40036 8.92258 5.24408C8.7663 5.0878 8.55434 5 8.33333 5C8.11231 5 7.90035 5.0878 7.74407 5.24408C7.58779 5.40036 7.5 5.61232 7.5 5.83333V7.5H5.83333C5.61232 7.5 5.40036 7.58779 5.24408 7.74407C5.0878 7.90035 5 8.11231 5 8.33333C5 8.55434 5.0878 8.7663 5.24408 8.92258C5.40036 9.07886 5.61232 9.16666 5.83333 9.16666H7.5V10.8333C7.5 11.0543 7.58779 11.2663 7.74407 11.4226C7.90035 11.5789 8.11231 11.6667 8.33333 11.6667C8.55434 11.6667 8.7663 11.5789 8.92258 11.4226C9.07886 11.2663 9.16666 11.0543 9.16666 10.8333V9.16666H10.8333C11.0543 9.16666 11.2663 9.07886 11.4226 8.92258C11.5789 8.7663 11.6667 8.55434 11.6667 8.33333C11.6667 8.11231 11.5789 7.90035 11.4226 7.74407C11.2663 7.58779 11.0543 7.5 10.8333 7.5Z" fill="#5B5A5F"/>
</g>
<defs>
<clipPath id="clip0_554_464">
<rect width="20" height="20" fill="white"/>
</clipPath>
</defs>
</svg>
