<svg width="120" height="120" viewBox="0 0 120 120" fill="none" xmlns="http://www.w3.org/2000/svg">
<g id="translation 1" clip-path="url(#clip0_27_467)">
<g id="Group">
<path id="Vector" d="M86.1865 72.6562H55.5469C53.6054 72.6562 52.0313 71.0822 52.0313 69.1406V3.51562C52.0313 1.57406 53.6054 0 55.5469 0H116.484C118.426 0 120 1.57406 120 3.51562V69.1406C120 71.0822 118.426 72.6562 116.484 72.6562H104.595M47.4474 81.2487L37.7665 55.8305L37.7351 55.7512C37.103 54.2046 35.6145 53.2045 33.9436 53.2029H33.9399C32.2709 53.2029 30.7826 54.2002 30.1479 55.7442L20.5179 81.2588C19.8324 83.0751 20.749 85.1037 22.5657 85.7892C24.3821 86.4748 26.4106 85.5579 27.0961 83.7415L28.6268 79.6854H39.3279L40.8767 83.7516C41.5676 85.5661 43.599 86.4766 45.4132 85.7857H45.4135C47.2278 85.0943 48.1383 83.0632 47.4474 81.2487ZM31.2804 72.6539L33.953 65.5725L36.6502 72.6539H31.2804Z" fill="url(#paint0_linear_27_467)"/>
<path id="Vector_2" d="M33.9527 65.5725L36.6499 72.6539H31.2804L33.9527 65.5725ZM67.9688 72.6562V102.422C67.9688 104.363 66.3947 105.938 64.4531 105.938H33.8135L27.754 118.057C26.4584 120.648 22.7606 120.648 21.465 118.057L15.4052 105.938H3.51562C1.57406 105.938 0 104.363 0 102.422V36.7969C0 34.8553 1.57406 33.2812 3.51562 33.2812H52.0312V69.1406C52.0312 71.0822 53.6053 72.6562 55.5469 72.6562H67.9688ZM47.4473 81.2487L37.7665 55.8305L37.7351 55.7512C37.103 54.2046 35.6145 53.2045 33.9436 53.2029H33.9398C32.2709 53.2029 30.7826 54.2002 30.1479 55.7442L20.5179 81.2588C19.8323 83.0752 20.749 85.1037 22.5656 85.7892C24.382 86.4748 26.4105 85.5579 27.0961 83.7415L28.6268 79.6854H39.3279L40.8766 83.7516C41.5676 85.5661 43.5989 86.4766 45.4132 85.7857H45.4134C47.2277 85.0943 48.1383 83.0632 47.4473 81.2487ZM102.589 51.5625C102.589 53.5041 101.015 55.0781 99.0736 55.0781C94.2987 55.0781 89.8291 53.7469 86.0156 51.4369C82.2021 53.7469 77.7326 55.0781 72.9577 55.0781C71.0161 55.0781 69.442 53.5041 69.442 51.5625C69.442 49.6209 71.0161 48.0469 72.9577 48.0469C75.5173 48.0469 77.9541 47.5148 80.167 46.5593C76.9406 42.9237 74.7448 38.3552 74.0402 33.3148H72.9577C71.0161 33.3148 69.442 31.7407 69.442 29.7991C69.442 27.8576 71.0161 26.2835 72.9577 26.2835H82.5V21.0938C82.5 19.1522 84.0741 17.5781 86.0156 17.5781C87.9572 17.5781 89.5312 19.1522 89.5312 21.0938V26.2835H99.0736C101.015 26.2835 102.589 27.8576 102.589 29.7991C102.589 31.7407 101.015 33.3148 99.0736 33.3148H97.991C97.2865 38.3552 95.0906 42.9239 91.8642 46.5593C94.0772 47.5148 96.514 48.0469 99.0736 48.0469C101.015 48.0469 102.589 49.6209 102.589 51.5625ZM81.1692 33.3148C81.8639 36.859 83.5877 40.0371 86.0156 42.5276C88.4437 40.0371 90.1673 36.859 90.862 33.3148H81.1692Z" fill="url(#paint1_linear_27_467)"/>
</g>
</g>
<defs>
<linearGradient id="paint0_linear_27_467" x1="70.1452" y1="86.0166" x2="70.1452" y2="0" gradientUnits="userSpaceOnUse">
<stop stop-color="#ADDCFF"/>
<stop offset="0.5028" stop-color="#EAF6FF"/>
<stop offset="1" stop-color="#EAF6FF"/>
</linearGradient>
<linearGradient id="paint1_linear_27_467" x1="51.2946" y1="120" x2="51.2946" y2="17.5781" gradientUnits="userSpaceOnUse">
<stop stop-color="#5558FF"/>
<stop offset="1" stop-color="#00C0FF"/>
</linearGradient>
<clipPath id="clip0_27_467">
<rect width="120" height="120" fill="white"/>
</clipPath>
</defs>
</svg>
