<svg width="120" height="120" viewBox="0 0 120 120" fill="none" xmlns="http://www.w3.org/2000/svg">
<g clip-path="url(#clip0_337_924)">
<path d="M86.1865 72.6562H55.5469C53.6053 72.6562 52.0312 71.0822 52.0312 69.1406V3.51563C52.0312 1.57406 53.6053 0 55.5469 0H116.484C118.426 0 120 1.57406 120 3.51563V69.1406C120 71.0822 118.426 72.6562 116.484 72.6562H104.595" fill="url(#paint0_linear_337_924)"/>
<path d="M33.9527 65.5725L36.6499 72.6539H31.2804L33.9527 65.5725ZM67.9688 72.6562V102.422C67.9688 104.363 66.3947 105.938 64.4531 105.938H33.8135L27.754 118.057C26.4584 120.648 22.7606 120.648 21.465 118.057L15.4052 105.938H3.51562C1.57406 105.938 0 104.363 0 102.422V36.7969C0 34.8553 1.57406 33.2812 3.51562 33.2812H52.0312V69.1406C52.0312 71.0822 53.6053 72.6562 55.5469 72.6562H67.9688ZM47.4473 81.2487L37.7665 55.8305L37.7351 55.7512C37.103 54.2046 35.6145 53.2045 33.9436 53.2029H33.9398C32.2709 53.2029 30.7826 54.2002 30.1479 55.7442L20.5179 81.2588C19.8323 83.0752 20.749 85.1037 22.5656 85.7892C24.382 86.4748 26.4105 85.5579 27.0961 83.7415L28.6268 79.6854H39.3279L40.8766 83.7516C41.5676 85.5661 43.5989 86.4766 45.4132 85.7857C47.2275 85.0943 48.1383 83.0632 47.4473 81.2487Z" fill="url(#paint1_linear_337_924)"/>
<path fill-rule="evenodd" clip-rule="evenodd" d="M102.147 50.9844C102.147 52.9259 100.573 54.5 98.6316 54.5C93.8566 54.5 89.3871 53.1688 85.5736 50.8587C81.7601 53.1688 77.2905 54.5 72.5156 54.5C70.5741 54.5 69 52.9259 69 50.9844C69 49.0428 70.5741 47.4688 72.5156 47.4688C75.0752 47.4688 77.512 46.9367 79.725 45.9812C76.4986 42.3455 74.3027 37.7771 73.5982 32.7366H72.5156C70.5741 32.7366 69 31.1626 69 29.221C69 27.2795 70.5741 25.7054 72.5156 25.7054H82.058V20.5156C82.058 18.5741 83.632 17 85.5736 17C87.5152 17 89.0892 18.5741 89.0892 20.5156V25.7054H98.6316C100.573 25.7054 102.147 27.2795 102.147 29.221C102.147 31.1626 100.573 32.7366 98.6316 32.7366H97.549C96.8444 37.7771 94.6486 42.3458 91.4222 45.9812C93.6352 46.9367 96.072 47.4688 98.6316 47.4688C100.573 47.4688 102.147 49.0428 102.147 50.9844ZM85.8879 41.4874C85.6929 41.7492 85.3071 41.7492 85.112 41.4874C84.4738 40.631 83.2032 38.8684 82.5 37.5C81.8714 36.2767 81.2227 34.4468 80.917 33.5439C80.8196 33.2565 81.0026 32.955 81.3026 32.9088C82.2382 32.7645 84.1396 32.5 85.5 32.5C86.8604 32.5 88.7617 32.7645 89.6974 32.9088C89.9973 32.955 90.1803 33.2565 90.083 33.5439C89.7773 34.4468 89.1286 36.2767 88.5 37.5C87.7968 38.8684 86.5262 40.631 85.8879 41.4874Z" fill="white"/>
</g>
<defs>
<linearGradient id="paint0_linear_337_924" x1="70.1452" y1="86.0166" x2="70.1452" y2="0" gradientUnits="userSpaceOnUse">
<stop stop-color="#CFA935" stop-opacity="0.5"/>
<stop offset="1" stop-color="#CFA935" stop-opacity="0.3"/>
</linearGradient>
<linearGradient id="paint1_linear_337_924" x1="51.2946" y1="120" x2="51.2946" y2="17.5781" gradientUnits="userSpaceOnUse">
<stop stop-color="#CFA935"/>
<stop offset="1" stop-color="#CFA935" stop-opacity="0.5"/>
</linearGradient>
<clipPath id="clip0_337_924">
<rect width="120" height="120" fill="white"/>
</clipPath>
</defs>
</svg>
