<svg width="106" height="120" viewBox="0 0 106 120" fill="none" xmlns="http://www.w3.org/2000/svg">
<path d="M94.9219 0H87.8906C85.9216 0 84.375 1.54664 84.375 3.51562C84.375 5.48414 82.8284 7.03125 80.8594 7.03125C78.8904 7.03125 77.3438 5.48414 77.3438 3.51562C77.3438 1.54664 75.7971 0 73.8281 0H59.7656C57.7966 0 56.25 1.54664 56.25 3.51562C56.25 5.48414 54.7034 7.03125 52.7344 7.03125C50.7654 7.03125 49.2188 5.48414 49.2188 3.51562C49.2188 1.54664 47.6721 0 45.7031 0H31.6406C29.6716 0 28.125 1.54664 28.125 3.51562C28.125 5.48414 26.5784 7.03125 24.6094 7.03125C22.6404 7.03125 21.0938 5.48414 21.0938 3.51562C21.0938 1.54664 19.5471 0 17.5781 0H10.5469C4.71047 0 0 4.71094 0 10.5469V109.453C0 115.289 4.71047 120 10.5469 120H80.8594L105.469 95.3906V10.5469C105.469 4.71094 100.758 0 94.9219 0Z" fill="url(#paint0_linear_337_915)"/>
<path d="M87.8906 95.3906C84.0232 95.3906 80.8594 98.5547 80.8594 102.422V120C81.7734 120 82.6875 119.648 83.3201 118.945L104.414 97.8513C105.117 97.2188 105.469 96.3047 105.469 95.3906H87.8906ZM24.6094 56.4844H80.8594C82.8026 56.4844 84.375 54.912 84.375 52.9688C84.375 51.0255 82.8026 49.4531 80.8594 49.4531H24.6094C22.6662 49.4531 21.0938 51.0255 21.0938 52.9688C21.0938 54.912 22.6662 56.4844 24.6094 56.4844ZM24.6094 42.4219H80.8594C82.8026 42.4219 84.375 40.8495 84.375 38.9062C84.375 36.963 82.8026 35.3906 80.8594 35.3906H24.6094C22.6662 35.3906 21.0938 36.963 21.0938 38.9062C21.0938 40.8495 22.6662 42.4219 24.6094 42.4219ZM24.6094 70.5469H80.8594C82.8026 70.5469 84.375 68.9745 84.375 67.0312C84.375 65.088 82.8026 63.5156 80.8594 63.5156H24.6094C22.6662 63.5156 21.0938 65.088 21.0938 67.0312C21.0938 68.9745 22.6662 70.5469 24.6094 70.5469ZM52.7344 77.5781H24.6094C22.6662 77.5781 21.0938 79.1505 21.0938 81.0938C21.0938 83.037 22.6662 84.6094 24.6094 84.6094H52.7344C54.6776 84.6094 56.25 83.037 56.25 81.0938C56.25 79.1505 54.6776 77.5781 52.7344 77.5781Z" fill="url(#paint1_linear_337_915)"/>
<defs>
<linearGradient id="paint0_linear_337_915" x1="52.7344" y1="120" x2="52.7344" y2="0" gradientUnits="userSpaceOnUse">
<stop stop-color="#CFA935"/>
<stop offset="1" stop-color="#CFA935" stop-opacity="0.5"/>
</linearGradient>
<linearGradient id="paint1_linear_337_915" x1="63.2812" y1="120" x2="63.2812" y2="35.3906" gradientUnits="userSpaceOnUse">
<stop stop-color="white" stop-opacity="0.6"/>
<stop offset="1" stop-color="white"/>
</linearGradient>
</defs>
</svg>
