<svg width="120" height="120" viewBox="0 0 120 120" fill="none" xmlns="http://www.w3.org/2000/svg">
<g clip-path="url(#clip0_337_908)">
<path d="M28.4929 49.4843C26.1609 50.1817 24.1159 51.6123 22.6614 53.5639C21.2069 55.5155 20.4204 57.8841 20.4186 60.318V63.2965L0.581603 46.137C0.414541 45.9927 0.277581 45.8169 0.178566 45.6196C0.0795505 45.4223 0.0204254 45.2074 0.0045761 44.9872C-0.0112732 44.7671 0.0164647 44.5459 0.0862013 44.3365C0.155938 44.1271 0.266303 43.9334 0.410978 43.7667L34.2782 4.5982C34.4225 4.43114 34.5983 4.29418 34.7956 4.19516C34.9929 4.09614 35.2078 4.037 35.428 4.02113C35.6481 4.00526 35.8693 4.03297 36.0788 4.10267C36.2882 4.17237 36.4819 4.2827 36.6486 4.42734L45.9868 12.5016L22.1401 23.3695C20.9226 23.9294 19.9762 24.9486 19.5078 26.2042C19.0395 27.4598 19.0873 28.8498 19.6407 30.0703L28.4929 49.4843ZM22.7139 28.6704L31.9904 49.0141H44.9828C45.5182 49.0155 46.0526 49.0589 46.5812 49.1437V22.017C46.5815 20.6744 47.115 19.3869 48.0643 18.4376C49.0137 17.4882 50.3011 16.9548 51.6437 16.9544H77.9767L72.8802 5.79351C72.7888 5.59249 72.6587 5.41146 72.4974 5.26076C72.336 5.11006 72.1465 4.99267 71.9397 4.91528C71.7329 4.83789 71.5128 4.80204 71.2922 4.80976C71.0715 4.81749 70.8545 4.86865 70.6536 4.96031L23.5405 26.4434C23.3398 26.5351 23.1592 26.6655 23.009 26.8272C22.8588 26.9888 22.7419 27.1785 22.6651 27.3854C22.5884 27.5922 22.5531 27.8122 22.5615 28.0327C22.5699 28.2532 22.6216 28.4699 22.7139 28.6704ZM92.9837 33.7868H104.125L91.6518 21.3202V32.4546C91.6542 32.8071 91.7952 33.1446 92.0445 33.3939C92.2938 33.6432 92.6312 33.7843 92.9837 33.7868ZM88.284 20.3297V32.4546C88.2831 33.0724 88.4039 33.6843 88.6397 34.2553C88.8754 34.8263 89.2215 35.3452 89.658 35.7823C90.0945 36.2195 90.6129 36.5662 91.1836 36.8028C91.7542 37.0394 92.366 37.1612 92.9837 37.1611H105.109V60.038C102.55 60.3894 100.115 61.355 98.0113 62.8523H63.7473C63.6883 62.8269 63.6312 62.7972 63.5764 62.7635C63.0198 62.3606 62.5029 61.9054 62.0329 61.4041L60.5 59.9081H95.1491C95.5966 59.9081 96.0259 59.7303 96.3423 59.4139C96.6588 59.0974 96.8366 58.6682 96.8366 58.2206C96.8366 57.7731 96.6588 57.3438 96.3423 57.0274C96.0259 56.7109 95.5966 56.5331 95.1491 56.5331H59.9153C59.5493 56.5341 59.1935 56.6537 58.9014 56.874C58.6092 57.0944 58.3963 57.4036 58.2948 57.7552L53.7742 53.3438C52.7932 52.3339 51.7052 51.4338 50.5295 50.6592C50.3382 50.542 50.147 50.4338 49.9557 50.3245V22.017C49.9566 21.5697 50.1347 21.1409 50.451 20.8247C50.7672 20.5084 51.196 20.3303 51.6432 20.3294L88.284 20.3297ZM58.228 33.6023C58.228 34.0499 58.4058 34.4791 58.7223 34.7956C59.0387 35.1121 59.468 35.2898 59.9155 35.2898H82.232C82.6795 35.2898 83.1088 35.1121 83.4252 34.7956C83.7417 34.4791 83.9195 34.0499 83.9195 33.6023C83.9195 33.1548 83.7417 32.7256 83.4252 32.4091C83.1088 32.0926 82.6795 31.9148 82.232 31.9148H59.9153C59.468 31.9158 59.0394 32.0939 58.7231 32.4101C58.4069 32.7264 58.2289 33.1551 58.228 33.6023ZM96.8364 50.017C96.8364 49.5695 96.6586 49.1403 96.3421 48.8238C96.0256 48.5073 95.5964 48.3295 95.1489 48.3295H59.9153C59.4677 48.3295 59.0385 48.5073 58.722 48.8238C58.4056 49.1403 58.2278 49.5695 58.2278 50.017C58.2278 50.4646 58.4056 50.8938 58.722 51.2103C59.0385 51.5267 59.4677 51.7045 59.9153 51.7045H95.1491C95.5966 51.7045 96.0258 51.5266 96.3422 51.2102C96.6586 50.8937 96.8364 50.4645 96.8364 50.017ZM59.9153 40.1264C59.4677 40.1264 59.0385 40.3042 58.722 40.6207C58.4056 40.9371 58.2278 41.3664 58.2278 41.8139C58.2278 42.2615 58.4056 42.6907 58.722 43.0071C59.0385 43.3236 59.4677 43.5014 59.9153 43.5014H95.1491C95.5966 43.5014 96.0259 43.3236 96.3423 43.0071C96.6588 42.6907 96.8366 42.2615 96.8366 41.8139C96.8366 41.3664 96.6588 40.9371 96.3423 40.6207C96.0259 40.3042 95.5966 40.1264 95.1491 40.1264H59.9153ZM120 75.9541C119.999 78.8892 118.98 81.733 117.117 84.0011C115.255 86.2692 112.663 87.8213 109.784 88.393C106.905 88.9647 103.917 88.5206 101.329 87.1363C98.7412 85.7521 96.7131 83.5134 95.5905 80.8015C94.4679 78.0897 94.3202 75.0725 95.1726 72.264C96.0251 69.4555 97.8249 67.0294 100.265 65.3991C102.706 63.7687 105.636 63.0349 108.557 63.3228C111.478 63.6106 114.209 64.9022 116.284 66.9776C117.464 68.1554 118.4 69.5547 119.038 71.0952C119.675 72.6356 120.002 74.2869 120 75.9541ZM115.902 69.5808C115.746 69.4233 115.56 69.2983 115.355 69.213C115.151 69.1277 114.931 69.0838 114.71 69.0838C114.488 69.0838 114.268 69.1277 114.064 69.213C113.859 69.2983 113.674 69.4233 113.518 69.5808L104.337 78.7547L101.106 75.517C100.789 75.2009 100.359 75.0236 99.9114 75.0242C99.4637 75.0248 99.0345 75.2033 98.7184 75.5203C98.4023 75.8373 98.225 76.2669 98.2256 76.7147C98.2262 77.1624 98.4047 77.5915 98.7217 77.9077L103.149 82.3341C103.465 82.6491 103.894 82.826 104.34 82.826C104.787 82.826 105.216 82.6491 105.532 82.3341L115.902 71.9648C116.217 71.648 116.394 71.2195 116.394 70.7728C116.393 70.326 116.217 69.8975 115.902 69.5808ZM107.308 92.0205C109.166 92.0215 111.01 91.7027 112.759 91.0779V106.707C112.752 109.166 111.771 111.522 110.032 113.26C108.292 114.998 105.936 115.977 103.477 115.983H33.0765C30.6174 115.978 28.2604 114.999 26.5209 113.261C24.7813 111.522 23.8007 109.166 23.7932 106.707V60.318C23.7961 58.2167 24.6316 56.2022 26.1168 54.7157C27.6021 53.2293 29.6159 52.392 31.7172 52.3873H44.9828C46.3163 52.3937 47.6192 52.7878 48.7328 53.5214C49.7073 54.1645 50.6077 54.9136 51.4173 55.755L59.676 63.8224C60.3169 64.4907 61.0236 65.0925 61.7854 65.6189C62.3705 66.0088 63.0564 66.2201 63.7595 66.2269H94.5275C92.7147 68.6083 91.6031 71.4488 91.3183 74.4281C91.0334 77.4075 91.5866 80.4071 92.9154 83.0889C94.2442 85.7707 96.2958 88.0279 98.8389 89.606C101.382 91.1841 104.315 92.0204 107.308 92.0205ZM34.5114 92.239C34.5114 92.6865 34.6892 93.1158 35.0056 93.4322C35.3221 93.7487 35.7513 93.9265 36.1989 93.9265H52.6478C53.0953 93.9265 53.5245 93.7487 53.841 93.4322C54.1575 93.1158 54.3353 92.6865 54.3353 92.239C54.3353 91.7914 54.1575 91.3622 53.841 91.0457C53.5245 90.7293 53.0953 90.5515 52.6478 90.5515H36.1982C35.9764 90.5508 35.7566 90.594 35.5516 90.6786C35.3466 90.7631 35.1603 90.8874 35.0035 91.0442C34.8467 91.2011 34.7224 91.3874 34.6379 91.5924C34.5533 91.7975 34.5102 92.0172 34.5109 92.239H34.5114ZM102.042 103.77C102.042 103.323 101.864 102.893 101.548 102.577C101.231 102.261 100.802 102.083 100.355 102.083H36.1982C35.7516 102.083 35.3233 102.26 35.0076 102.576C34.6918 102.892 34.5144 103.32 34.5144 103.766C34.5144 104.213 34.6918 104.641 35.0076 104.957C35.3233 105.273 35.7516 105.45 36.1982 105.45H100.354C100.801 105.451 101.229 105.274 101.546 104.959C101.862 104.644 102.04 104.216 102.042 103.77L102.042 103.77Z" fill="url(#paint0_linear_337_908)"/>
</g>
<defs>
<linearGradient id="paint0_linear_337_908" x1="60" y1="116" x2="60" y2="4" gradientUnits="userSpaceOnUse">
<stop stop-color="#CFA935"/>
<stop offset="1" stop-color="#CFA935" stop-opacity="0.5"/>
</linearGradient>
<clipPath id="clip0_337_908">
<rect width="120" height="120" fill="white"/>
</clipPath>
</defs>
</svg>
