<svg width="120" height="107" viewBox="0 0 120 107" fill="none" xmlns="http://www.w3.org/2000/svg">
<path d="M39.2595 13.8396C39.2902 13.8701 39.3572 13.8701 39.3907 13.8424C39.3935 13.8424 39.3935 13.8424 39.3963 13.8396L45.6307 7.66103C45.6642 7.62508 45.6642 7.56147 45.6307 7.52551L41.2214 3.15568C41.2047 3.13909 41.1795 3.13079 41.1544 3.13079C41.1293 3.13079 41.1014 3.13909 41.0846 3.15568L34.8502 9.33706C34.8195 9.36748 34.8195 9.43662 34.8502 9.46981L39.2595 13.8396ZM76.5572 33.4707L51 8.14503C50.4251 7.57253 49.4065 7.57253 48.8316 8.14503L47.4837 9.48087C47.4809 9.48364 47.4781 9.48641 47.4753 9.48917L41.2409 15.6678C41.227 15.6816 41.213 15.6954 41.1991 15.7065L39.8846 17.0091C39.2874 17.6038 39.2874 18.569 39.8846 19.1609L44.8046 24.0368C44.813 24.0313 44.8242 24.0285 44.8326 24.0258C44.9972 23.9456 45.1646 23.8709 45.3321 23.8017C46.7191 23.2182 48.2233 22.9195 49.7302 22.9195C55.9647 22.9195 61.0381 27.9476 61.0381 34.1262C61.0381 35.285 60.8567 36.4438 60.4995 37.5474C60.3405 38.0369 60.1507 38.5154 59.9219 38.98C59.9191 38.9883 59.9163 38.9994 59.9107 39.0077L65.4419 44.4865C66.0167 45.059 67.0381 45.0563 67.613 44.4865L76.5572 35.6224C77.1544 35.0278 77.1544 34.0625 76.5572 33.4707ZM73.0298 35.462L67.4484 40.9934C67.1944 41.2479 66.8595 41.3723 66.5274 41.3723C66.1926 41.3723 65.8605 41.2479 65.6037 40.9934C65.0958 40.4901 65.0958 39.6714 65.6037 39.1653L70.2642 34.5466L48.9935 13.4663C48.4856 12.9629 48.4856 12.1443 48.9935 11.6381C49.5042 11.1348 50.3302 11.1348 50.8381 11.6381L73.0298 33.6339C73.5405 34.1372 73.5405 34.9559 73.0298 35.462ZM49.7302 25.5054C48.2093 25.5027 46.6912 25.9037 45.3767 26.6615C43.4484 27.7733 41.986 29.5959 41.3609 31.7698C41.146 32.5193 41.0316 33.3103 41.0316 34.1262C41.0316 36.3526 41.8884 38.3881 43.2949 39.9203C44.8856 41.6544 47.1823 42.7469 49.7302 42.7469C52.9535 42.7469 55.7721 41.0017 57.2763 38.413C58.0326 37.1159 58.4316 35.6252 58.4288 34.1262C58.4288 31.7504 57.4549 29.5959 55.8781 28.0333C54.3042 26.4734 52.1302 25.5054 49.7302 25.5054ZM49.7302 37.5778C50.4502 37.5778 51.0335 38.1558 51.0335 38.8721C51.0335 39.5857 50.4502 40.161 49.7302 40.161C46.373 40.161 43.6409 37.4561 43.6409 34.1262C43.6409 30.7962 46.373 28.0914 49.7302 28.0914C50.4502 28.0914 51.0335 28.6694 51.0335 29.383C51.0335 30.0965 50.4502 30.6746 49.7302 30.6746C47.8102 30.6746 46.2474 32.2234 46.2474 34.1262C46.2474 36.0317 47.8102 37.5778 49.7302 37.5778ZM67.6381 48.1152L80.2214 35.6584L82.9367 38.3522L70.3535 50.809L67.6381 48.1152ZM77.3888 51.6248L83.7572 45.3107L81.6781 43.2503L75.307 49.5616L77.3888 51.6248ZM104.051 63.9433V66.3302H81.1479V63.9433C81.1479 62.6269 82.2279 61.5565 83.5563 61.5565H101.643C102.971 61.5565 104.051 62.6269 104.051 63.9433ZM53.6121 68.9161H104.051V73.6925H53.6121V68.9161ZM51.3991 94.2003C63.7953 94.2003 74.9135 87.2279 80.2465 76.2784H72.0753C67.4232 83.1153 59.746 87.1698 51.3991 87.1698C37.6409 87.1698 26.4502 76.0793 26.4502 62.4443C26.4502 52.9773 31.8307 44.4561 40.2949 40.2965C39.1116 38.5264 38.4223 36.4051 38.4223 34.1262C38.4223 33.88 38.4307 33.6339 38.4474 33.3932C26.9414 38.4352 19.3563 49.841 19.3563 62.4443C19.3563 79.9541 33.7312 94.2003 51.3991 94.2003ZM114.148 3.99093C110.922 3.99093 108.296 6.59347 108.296 9.79063C108.296 10.6618 108.491 11.4915 108.843 12.2328L105.268 14.9819C103.058 11.6215 99.2344 9.3979 94.8977 9.3979C91.1721 9.3979 87.8288 11.038 85.5572 13.6294L79.6521 7.5504C80.1098 6.80089 80.3721 5.9214 80.3721 4.98382C80.3721 2.2347 78.1172 0 75.346 0C72.5749 0 70.3172 2.2347 70.3172 4.98382C70.3172 7.73018 72.5749 9.96487 75.346 9.96487C76.2279 9.96487 77.054 9.74085 77.7739 9.34259L84.0391 15.795C83.0763 17.5374 82.5293 19.537 82.5293 21.6583C82.5293 28.4177 88.0772 33.916 94.8977 33.916C96.5191 33.916 98.0679 33.6062 99.4856 33.042L101.512 36.5185C100.097 37.7437 99.2037 39.5442 99.2037 41.5466C99.2037 45.2333 102.229 48.2313 105.946 48.2313C109.663 48.2313 112.691 45.2333 112.691 41.5466C112.691 37.8626 109.666 34.8646 105.946 34.8646C105.184 34.8646 104.45 34.9918 103.767 35.2242L101.791 31.8306C105.092 29.6291 107.269 25.8926 107.269 21.6583C107.269 20.1344 106.987 18.6741 106.471 17.3272L110.442 14.2766C111.452 15.098 112.744 15.5903 114.148 15.5903C117.374 15.5903 120 12.9878 120 9.79063C120 6.59347 117.374 3.99093 114.148 3.99093ZM94.8977 14.5698C95.6177 14.5698 96.2009 15.1478 96.2009 15.8641C96.2009 16.5777 95.6177 17.1557 94.8977 17.1557C92.3916 17.1557 90.3544 19.1747 90.3544 21.6583C90.3544 24.1419 92.3916 26.1609 94.8977 26.1609C95.6177 26.1609 96.2009 26.7389 96.2009 27.4525C96.2009 28.1688 95.6205 28.7441 94.8977 28.7441C90.9544 28.7441 87.7479 25.5663 87.7479 21.6583C87.7479 17.7504 90.9544 14.5698 94.8977 14.5698ZM102.795 105.706C102.795 106.422 102.212 107 101.492 107H1.30326C0.583256 107 0 106.422 0 105.706C0 104.992 0.583256 104.414 1.30326 104.414H6.29023V100.6C6.29023 97.0711 9.18698 94.2003 12.7479 94.2003H38.2046C42.2735 95.8652 46.7302 96.7862 51.3991 96.7862C56.0512 96.7862 60.5358 95.8791 64.6493 94.2003H90.0502C93.6112 94.2003 96.5079 97.0711 96.5079 100.6V104.414H101.492C102.212 104.414 102.795 104.992 102.795 105.706Z" fill="url(#paint0_linear_337_905)"/>
<defs>
<linearGradient id="paint0_linear_337_905" x1="60" y1="102" x2="60.9171" y2="0.00824684" gradientUnits="userSpaceOnUse">
<stop stop-color="#CFA935"/>
<stop offset="1" stop-color="#CFA935" stop-opacity="0.5"/>
</linearGradient>
</defs>
</svg>
