<svg width="95" height="120" viewBox="0 0 95 120" fill="none" xmlns="http://www.w3.org/2000/svg">
<path id="Vector" d="M94.9998 58.0365V118.31C94.9998 119.241 94.2434 120 93.3162 120H1.68354C0.75639 120 0 119.241 0 118.31V58.0365C0 57.1057 0.75615 56.3464 1.68354 56.3464H4.77596V113.75C4.77596 114.328 5.07732 114.866 5.56434 115.175C6.05112 115.487 6.65407 115.525 7.17573 115.284C13.1573 112.483 36.9104 112.667 46.6016 118.877C46.8799 119.052 47.1927 119.142 47.5059 119.142C47.819 119.142 48.1319 119.052 48.4102 118.877C58.1014 112.667 81.8544 112.483 87.8363 115.284C88.3577 115.527 88.9607 115.486 89.4474 115.175C89.9345 114.866 90.2243 114.328 90.2243 113.75V56.3464H93.3165C94.2436 56.3464 95 57.1057 95 58.0365H94.9998ZM8.1493 111.389V53.7955C10.4228 53.0523 14.1999 52.569 18.5574 52.4524C18.2325 57.5666 18.3749 63.1589 18.5882 68.2304C18.8138 73.5977 23.2146 77.8329 28.5658 77.8329H45.8163V114.604C39.322 111.543 30.632 110.595 25.6422 110.302C18.6984 109.897 12.2297 110.32 8.1493 111.389ZM12.7973 84.5795C12.8699 85.5093 13.6795 86.204 14.6057 86.1311C18.51 85.8198 22.4647 85.8408 26.4051 86.1325C30.6635 86.4478 34.8998 87.0765 39.0346 87.9416C39.9425 88.1312 40.8319 87.5459 41.0207 86.6345C41.2094 85.723 40.6265 84.8304 39.7186 84.6406C35.4277 83.7429 31.0404 83.091 26.6418 82.7653C22.5349 82.4613 18.4129 82.4394 14.3428 82.7639C13.4166 82.8368 12.7247 83.6497 12.7973 84.5795ZM12.7973 93.8435C12.8699 94.7733 13.6795 95.4679 14.6057 95.395C18.51 95.0835 22.4647 95.1048 26.4051 95.3964C30.6635 95.7118 34.8998 96.3405 39.0346 97.2056C39.9425 97.3951 40.8319 96.8099 41.0207 95.8984C41.2094 94.987 40.6265 94.0943 39.7186 93.9046C35.4277 93.0069 31.0404 92.355 26.6418 92.0293C22.5349 91.7253 18.4129 91.7033 14.3428 92.0278C13.4166 92.1007 12.7247 92.9137 12.7973 93.8435ZM26.4051 104.66C30.6635 104.975 34.8998 105.604 39.0346 106.469C39.9425 106.659 40.8319 106.074 41.0207 105.162C41.2094 104.251 40.6265 103.358 39.7186 103.168C35.4277 102.271 31.0404 101.619 26.6418 101.293C22.5349 100.989 18.4129 100.967 14.3428 101.292C13.4166 101.364 12.7247 102.177 12.7973 103.107C12.8699 104.037 13.6795 104.731 14.6057 104.658C18.51 104.347 22.4647 104.368 26.4051 104.66V104.66ZM66.4339 77.8329C71.7852 77.8329 76.186 73.5977 76.4118 68.2304C76.6251 63.1584 76.7675 57.5652 76.4423 52.4504C80.8085 52.5656 84.5875 53.0521 86.8622 53.7955V111.389C82.7818 110.32 76.3132 109.897 69.3693 110.302C64.3774 110.595 55.6718 111.543 49.1837 114.608V77.8326H66.4342L66.4339 77.8329ZM80.6572 101.292C76.5871 100.967 72.4651 100.989 68.3582 101.293C63.9596 101.619 59.5723 102.271 55.2814 103.168C54.3735 103.358 53.7905 104.251 53.9793 105.162C54.1681 106.074 55.0575 106.659 55.9654 106.47C60.1005 105.604 64.3367 104.976 68.5951 104.66C72.5353 104.369 76.49 104.348 80.3943 104.659C81.3205 104.732 82.1303 104.037 82.2027 103.107C82.2753 102.178 81.5834 101.365 80.6572 101.292V101.292ZM80.6572 92.0278C76.5871 91.7033 72.4651 91.7253 68.3582 92.0293C63.9596 92.355 59.5723 93.0069 55.2814 93.9046C54.3735 94.0941 53.7905 94.987 53.9793 95.8984C54.1681 96.8099 55.0575 97.3951 55.9654 97.2056C60.1005 96.3405 64.3367 95.7118 68.5951 95.3964C72.5353 95.1048 76.49 95.0838 80.3943 95.395C81.3205 95.4679 82.1303 94.7733 82.2027 93.8435C82.2753 92.9137 81.5834 92.1007 80.6572 92.0281V92.0278ZM68.3582 82.7653C63.9596 83.091 59.5723 83.7429 55.2814 84.6406C54.3735 84.8302 53.7905 85.7228 53.9793 86.6345C54.1681 87.5462 55.0575 88.1312 55.9654 87.9416C60.1005 87.0765 64.3367 86.4478 68.5951 86.1325C72.5353 85.8408 76.49 85.8198 80.3943 86.1311C81.3205 86.204 82.1303 85.5093 82.2027 84.5795C82.2753 83.6497 81.5834 82.8368 80.6572 82.7639C76.5871 82.4394 72.4651 82.4613 68.3582 82.7653ZM25.9268 7.44804L46.363 12.9452C47.142 13.1548 47.8578 13.1548 48.6365 12.9452L67.8209 7.78486V15.146L66.7168 16.2544C66.5758 16.3959 66.5049 16.5681 66.5049 16.7682V24.9416C66.5049 25.1577 66.7646 25.2654 66.9166 25.1128L68.7897 23.2324L70.6627 25.1128C70.8147 25.2654 71.0745 25.1574 71.0745 24.9416V16.7682C71.0745 16.5681 71.0035 16.3959 70.8626 16.2544L69.7584 15.146V6.55132C69.7584 6.12518 69.4828 5.76494 69.073 5.6546L48.6365 0.15718C47.8575 -0.0523932 47.1418 -0.0523932 46.363 0.15718L25.9268 5.6546C25.5167 5.76494 25.2413 6.12518 25.2413 6.55132C25.2413 6.97747 25.5167 7.3377 25.9268 7.44804ZM57.1636 40.596L56.2959 40.3816L49.8679 47.0508L52.5012 49.6646L57.1639 40.596H57.1636ZM61.1596 12.5761L49.3838 15.7438C48.1177 16.0845 46.8825 16.0845 45.6162 15.7438L33.8406 12.5763V18.8306C37.6868 21.1483 42.4031 22.5139 47.5001 22.5139C52.5972 22.5139 57.3135 21.1485 61.1599 18.8306V12.5763L61.1596 12.5761ZM51.8011 40.1837C50.4328 40.569 48.9905 40.7754 47.4999 40.7754C46.0092 40.7754 44.5672 40.569 43.1992 40.1837L47.5001 44.6467L51.8011 40.1837ZM28.5661 74.4524H30.2958V58.6509C30.2958 57.7175 31.0495 56.9608 31.9793 56.9608C32.9091 56.9608 33.6629 57.7175 33.6629 58.6509V74.4524H61.3369V58.6509C61.3369 57.7175 62.0906 56.9608 63.0204 56.9608C63.9502 56.9608 64.704 57.7175 64.704 58.6509V74.4524H66.4339C69.9819 74.4524 72.8978 71.6461 73.0476 68.0875C73.2802 62.5558 73.322 57.2902 73.018 51.749C72.6924 47.4982 71.745 45.9006 69.0867 44.336C67.1095 43.172 63.6965 42.2456 60.5245 41.4288L54.4416 53.2583C54.196 53.7366 53.7384 54.0695 53.209 54.1533C53.1217 54.1673 53.0332 54.1743 52.9454 54.1743C52.5058 54.1743 52.0796 54.001 51.7616 53.6854L47.4999 49.4541L43.2381 53.6854C42.9202 54.0007 42.494 54.1743 42.0543 54.1743C41.9666 54.1743 41.8783 54.1673 41.7908 54.1533C41.2614 54.0695 40.8042 53.7368 40.5582 53.2583L34.4753 41.4288C31.3033 42.2456 27.8902 43.172 25.913 44.336C23.2547 45.9006 22.3074 47.4982 21.9817 51.749C21.6777 57.2899 21.7196 62.556 21.9524 68.0875C22.102 71.6461 25.0181 74.4524 28.5661 74.4524ZM37.8366 40.5958L42.4993 49.6646L45.1326 47.0508L38.7048 40.3814L37.8366 40.5958ZM60.3157 22.5675C56.3305 24.4708 51.9189 25.4105 47.5001 25.4105C43.0813 25.4105 38.6697 24.4708 34.6845 22.5675C34.558 23.2988 34.4914 24.0511 34.4914 24.8187C34.4914 32.0313 40.3157 37.8781 47.5001 37.8781C54.6845 37.8781 60.5088 32.0313 60.5088 24.8187C60.5088 24.0509 60.4422 23.2988 60.3157 22.5675Z" fill="url(#paint0_linear_27_445)"/>
<defs>
<linearGradient id="paint0_linear_27_445" x1="47.4999" y1="120" x2="47.4999" y2="0.000243186" gradientUnits="userSpaceOnUse">
<stop stop-color="#8E4AFF"/>
<stop offset="1" stop-color="#00C1FF"/>
</linearGradient>
</defs>
</svg>
