<svg width="108" height="120" viewBox="0 0 108 120" fill="none" xmlns="http://www.w3.org/2000/svg">
<path d="M50.4369 115.714C52.4015 117.372 54.5449 118.81 56.8278 120H10.7956C7.93272 119.999 5.18743 118.87 3.16309 116.861C1.13876 114.852 0.00103579 112.127 0 109.286V10.7143C0.00103579 7.873 1.13876 5.14837 3.16309 3.13928C5.18743 1.13018 7.93272 0.00102799 10.7956 0H53.9778C56.2678 0.00413558 58.4637 0.905124 60.0881 2.50714L85.9974 28.2214C87.6116 29.8336 88.5195 32.0129 88.5236 34.2857V52.0286C87.1188 51.4472 85.6761 50.9604 84.2054 50.5714V34.2857C84.2054 33.1491 83.7504 32.059 82.9406 31.2553C82.1308 30.4515 81.0324 30 79.8871 30H69.0916C66.2287 29.999 63.4834 28.8698 61.4591 26.8607C59.4348 24.8516 58.2971 22.127 58.296 19.2857V8.57143C58.2962 8.00858 58.1846 7.45121 57.9676 6.93118C57.7507 6.41114 57.4326 5.93863 57.0316 5.54063C56.6306 5.14264 56.1545 4.82696 55.6305 4.61163C55.1065 4.39631 54.5449 4.28556 53.9778 4.28571H10.7956C9.0792 4.29068 7.43458 4.96957 6.22092 6.17409C5.00727 7.3786 4.32323 9.01085 4.31822 10.7143V109.286C4.32325 110.989 5.0073 112.621 6.22095 113.826C7.4346 115.03 9.07921 115.709 10.7956 115.714H50.4369ZM45.3414 45C45.9067 44.989 46.4452 44.7585 46.8411 44.3578C47.237 43.9571 47.4587 43.4183 47.4587 42.8571C47.4587 42.2959 47.2369 41.7571 46.841 41.3564C46.445 40.9558 45.9066 40.7252 45.3412 40.7143H10.7956C10.2304 40.7255 9.69223 40.9562 9.29655 41.3568C8.90086 41.7575 8.67922 42.2961 8.67922 42.8571C8.67922 43.4182 8.90086 43.9568 9.29655 44.3574C9.69223 44.7581 10.2304 44.9888 10.7956 45H45.3414ZM50.5016 57.8571H10.7956C10.2296 57.8672 9.69027 58.0974 9.29362 58.4981C8.89697 58.8989 8.67473 59.4382 8.67473 60C8.67473 60.5618 8.89697 61.1011 9.29362 61.5019C9.69027 61.9026 10.2296 62.1328 10.7956 62.1429H46.0107C47.3786 60.5867 48.8813 59.1527 50.5016 57.8571ZM10.7956 92.1429C10.2296 92.1529 9.69027 92.3831 9.29362 92.7839C8.89697 93.1846 8.67473 93.7239 8.67473 94.2857C8.67473 94.8475 8.89697 95.3868 9.29362 95.7876C9.69027 96.1883 10.2296 96.4185 10.7956 96.4286H38.1083C37.7118 95.0186 37.3946 93.5878 37.1583 92.1429H10.7956ZM10.7956 75C10.2296 75.01 9.69027 75.2402 9.29362 75.641C8.89697 76.0418 8.67473 76.5811 8.67473 77.1429C8.67473 77.7046 8.89697 78.2439 9.29362 78.6447C9.69027 79.0455 10.2296 79.2757 10.7956 79.2857H37.4174C37.705 77.8341 38.0873 76.4025 38.5617 75H10.7956ZM106.142 115.779C106.19 116.108 106.159 116.443 106.053 116.758C105.948 117.074 105.769 117.36 105.532 117.595C105.296 117.83 105.007 118.007 104.689 118.112C104.372 118.217 104.034 118.247 103.702 118.2L89.9486 116.25C85.2023 118.705 79.9282 119.984 74.5761 119.978C45.0368 120.159 29.784 84.1472 50.8253 63.3C78.4954 37.0232 120.998 68.0827 104.177 102.129L106.142 115.779ZM59.3757 83.5714C58.5247 83.5834 57.7126 83.9272 57.1151 84.5287C56.5175 85.1302 56.1825 85.941 56.1825 86.7856C56.1825 87.6303 56.5174 88.4411 57.115 89.0426C57.7125 89.6441 58.5246 89.988 59.3756 90C60.2266 89.9881 61.0387 89.6442 61.6363 89.0427C62.2338 88.4412 62.5688 87.6305 62.5689 86.7858C62.5689 85.9411 62.2339 85.1303 61.6364 84.5288C61.0388 83.9273 60.2267 83.5834 59.3757 83.5714ZM74.4895 83.5714C73.6385 83.5834 72.8264 83.9272 72.2288 84.5287C71.6313 85.1302 71.2963 85.941 71.2963 86.7856C71.2962 87.6303 71.6312 88.4411 72.2288 89.0426C72.8263 89.6441 73.6384 89.988 74.4894 90C75.3404 89.9881 76.1525 89.6442 76.75 89.0427C77.3476 88.4412 77.6826 87.6305 77.6826 86.7858C77.6826 85.9411 77.3477 85.1303 76.7501 84.5288C76.1526 83.9273 75.3405 83.5834 74.4895 83.5714ZM89.6033 83.5714C88.7523 83.5834 87.9402 83.9272 87.3426 84.5287C86.7451 85.1302 86.4101 85.941 86.41 86.7856C86.41 87.6303 86.745 88.4411 87.3425 89.0426C87.9401 89.6441 88.7522 89.988 89.6032 90C90.4542 89.9881 91.2663 89.6442 91.8638 89.0427C92.4614 88.4412 92.7964 87.6305 92.7964 86.7858C92.7964 85.9411 92.4615 85.1303 91.8639 84.5288C91.2664 83.9273 90.4543 83.5834 89.6033 83.5714Z" fill="url(#paint0_linear_337_912)"/>
<defs>
<linearGradient id="paint0_linear_337_912" x1="54" y1="0" x2="54" y2="120" gradientUnits="userSpaceOnUse">
<stop stop-color="#CFA935" stop-opacity="0.5"/>
<stop offset="1" stop-color="#CFA935"/>
</linearGradient>
</defs>
</svg>
